<?xml version="1.0" encoding="utf-8"?>
<!-- Generator: Adobe Illustrator 16.0.4, SVG Export Plug-In . SVG Version: 6.00 Build 0)  -->
<!DOCTYPE svg PUBLIC "-//W3C//DTD SVG 1.1//EN" "http://www.w3.org/Graphics/SVG/1.1/DTD/svg11.dtd">
<svg version="1.1" id="Capa_1" xmlns="http://www.w3.org/2000/svg" xmlns:xlink="http://www.w3.org/1999/xlink" x="0px" y="0px"
	 width="16px" height="16px" viewBox="289.64 412.945 16 16" enable-background="new 289.64 412.945 16 16" xml:space="preserve">
<g>
	<g>
		<path fill="#D8DCE1" d="M289.633,417.131v10.256c0,0.688,0.561,1.25,1.25,1.25h13.506c0.688,0,1.25-0.562,1.25-1.25v-10.256
			H289.633z"/>
	</g>
	<g>
		<path fill="#FF4F19" d="M304.39,413.629h-13.506c-0.689,0-1.25,0.561-1.25,1.25v2.251h16.007v-2.251
			C305.64,414.19,305.078,413.629,304.39,413.629z M291.634,416.13c-0.415,0-0.75-0.336-0.75-0.75s0.336-0.75,0.75-0.75
			c0.414,0,0.75,0.336,0.75,0.75S292.048,416.13,291.634,416.13z M303.639,416.13c-0.414,0-0.75-0.336-0.75-0.75
			s0.336-0.75,0.75-0.75c0.415,0,0.751,0.336,0.751,0.75S304.054,416.13,303.639,416.13z"/>
	</g>
	<g>
		<g>
			<path fill="#FFFFFF" d="M297.636,419.381c-0.552,0-1,0.449-1,1.001c0,0.551,0.449,1,1,1c0.551,0,1-0.449,1-1
				C298.637,419.831,298.188,419.381,297.636,419.381z"/>
		</g>
		<g>
			<path fill="#FFFFFF" d="M295.135,419.381c-0.552,0-1,0.449-1,1.001c0,0.551,0.448,1,1,1c0.552,0,1-0.449,1-1
				C296.135,419.831,295.687,419.381,295.135,419.381z"/>
		</g>
		<g>
			<path fill="#FFFFFF" d="M292.634,419.381c-0.551,0-1,0.449-1,1.001c0,0.551,0.449,1,1,1c0.552,0,1-0.449,1-1
				C293.635,419.831,293.186,419.381,292.634,419.381z"/>
		</g>
		<g>
			<path fill="#FFFFFF" d="M300.138,419.381c-0.552,0-1.001,0.449-1.001,1.001c0,0.551,0.449,1,1.001,1s1-0.449,1-1
				C301.138,419.831,300.69,419.381,300.138,419.381z"/>
		</g>
		<g>
			<path fill="#FFFFFF" d="M302.638,421.382c0.553,0,1.001-0.449,1.001-1c0-0.552-0.448-1.001-1.001-1.001c-0.551,0-1,0.449-1,1.001
				C301.638,420.934,302.087,421.382,302.638,421.382z"/>
		</g>
		<g>
			<path fill="#FFFFFF" d="M297.636,421.883c-0.552,0-1,0.449-1,1.002c0,0.551,0.449,1,1,1c0.551,0,1-0.449,1-1
				C298.637,422.332,298.188,421.883,297.636,421.883z"/>
		</g>
		<g>
			<path fill="#FFFFFF" d="M295.135,421.883c-0.552,0-1,0.449-1,1.002c0,0.551,0.448,1,1,1c0.552,0,1-0.449,1-1
				C296.135,422.332,295.687,421.883,295.135,421.883z"/>
		</g>
		<g>
			<path fill="#FFFFFF" d="M292.634,421.883c-0.551,0-1,0.449-1,1.002c0,0.551,0.449,1,1,1c0.552,0,1-0.449,1-1
				C293.635,422.332,293.186,421.883,292.634,421.883z"/>
		</g>
		<g>
			<path fill="#FFFFFF" d="M300.138,421.883c-0.552,0-1.001,0.449-1.001,1.002c0,0.551,0.449,1,1.001,1s1-0.449,1-1
				C301.138,422.332,300.69,421.883,300.138,421.883z"/>
		</g>
		<g>
			<path fill="#FFFFFF" d="M302.638,421.883c-0.551,0-1,0.449-1,1.002c0,0.551,0.449,1,1,1c0.553,0,1.001-0.449,1.001-1
				C303.639,422.332,303.191,421.883,302.638,421.883z"/>
		</g>
		<g>
			<path fill="#FFFFFF" d="M297.636,424.385c-0.552,0-1,0.449-1,1c0,0.553,0.449,1,1,1c0.551,0,1-0.447,1-1
				C298.637,424.834,298.188,424.385,297.636,424.385z"/>
		</g>
		<g>
			<path fill="#FFFFFF" d="M295.135,424.385c-0.552,0-1,0.449-1,1c0,0.553,0.448,1,1,1c0.552,0,1-0.447,1-1
				C296.135,424.834,295.687,424.385,295.135,424.385z"/>
		</g>
		<g>
			<path fill="#FFFFFF" d="M292.634,424.385c-0.551,0-1,0.449-1,1c0,0.553,0.449,1,1,1c0.552,0,1-0.447,1-1
				C293.635,424.834,293.186,424.385,292.634,424.385z"/>
		</g>
		<g>
			<path fill="#FFFFFF" d="M300.138,424.385c-0.552,0-1.001,0.449-1.001,1c0,0.553,0.449,1,1.001,1s1-0.447,1-1
				C301.138,424.834,300.69,424.385,300.138,424.385z"/>
		</g>
		<g>
			<path fill="#FFFFFF" d="M302.638,424.385c-0.551,0-1,0.449-1,1c0,0.553,0.449,1,1,1c0.553,0,1.001-0.447,1.001-1
				C303.639,424.834,303.191,424.385,302.638,424.385z"/>
		</g>
	</g>
	<g>
		<g>
			<path fill="#5C546A" d="M291.634,415.755c-0.208,0-0.375-0.167-0.375-0.375v-1.751c0-0.207,0.168-0.375,0.375-0.375
				c0.207,0,0.375,0.168,0.375,0.375v1.751C292.009,415.587,291.841,415.755,291.634,415.755z"/>
		</g>
	</g>
	<g>
		<g>
			<path fill="#5C546A" d="M303.639,415.755c-0.207,0-0.375-0.167-0.375-0.375v-1.751c0-0.207,0.168-0.375,0.375-0.375
				s0.375,0.168,0.375,0.375v1.751C304.014,415.587,303.846,415.755,303.639,415.755z"/>
		</g>
	</g>
	<g>
		<circle fill="#FFD200" cx="292.634" cy="420.382" r="1"/>
	</g>
	<g>
		<circle fill="#FF9600" cx="297.636" cy="425.385" r="1"/>
	</g>
	<g>
		<circle fill="#FF4F19" cx="300.138" cy="422.884" r="1.001"/>
	</g>
</g>
</svg>
