<?xml version="1.0" encoding="utf-8"?>
<!-- Generator: Adobe Illustrator 16.0.4, SVG Export Plug-In . SVG Version: 6.00 Build 0)  -->
<!DOCTYPE svg PUBLIC "-//W3C//DTD SVG 1.1//EN" "http://www.w3.org/Graphics/SVG/1.1/DTD/svg11.dtd">
<svg version="1.1" id="Capa_1" xmlns="http://www.w3.org/2000/svg" xmlns:xlink="http://www.w3.org/1999/xlink" x="0px" y="0px"
	 width="16px" height="16px" viewBox="289.64 412.954 16 16" enable-background="new 289.64 412.954 16 16" xml:space="preserve">
<g>
	<g>
		<g>
			<path fill="#010002" d="M297.641,412.977c4.404,0,7.976,3.572,7.976,7.978s-3.571,7.978-7.976,7.978
				c-4.406,0-7.978-3.572-7.978-7.978S293.235,412.977,297.641,412.977L297.641,412.977z M293.473,419.043
				c-0.147-3.167-1.705,1.094-2.958,1.595c-0.178,4.034,3.08,7.448,7.126,7.448c3.938,0,7.133-3.193,7.133-7.132
				c0-1.676-1.324-3.498-3.129-1.779c-0.696,0.661-1.679,1.194-1.828,0.121c-0.169-1.221-0.36-1.512-1.365-0.122
				c-2.646,3.66-0.822-3.079-2.894-0.336C294.685,419.933,293.558,420.87,293.473,419.043z"/>
			<path fill="#010002" d="M301.771,424.131c-0.592,1.711-2.218,2.941-4.13,2.941c-1.914,0-3.54-1.23-4.131-2.941h0.26
				c0.774,1.057,2.316,1.758,3.871,1.758c1.554,0,3.165-0.701,3.94-1.758H301.771z"/>
			<circle fill="#010002" cx="295.051" cy="422.16" r="0.562"/>
			<circle fill="#010002" cx="300.365" cy="422.16" r="0.562"/>
		</g>
	</g>
</g>
</svg>
