<?xml version="1.0" encoding="utf-8"?>
<svg version="1.1" id="error-laptop" xmlns="http://www.w3.org/2000/svg"
     xmlns:xlink="http://www.w3.org/1999/xlink" x="0px" y="0px" width="377.536px" height="232.723px"
     viewBox="0 0 377.536 232.723" enable-background="new 0 0 377.536 232.723" xml:space="preserve">
                <g>
                    <g>
                        <g opacity="0.22">
                            <path fill="#A2DBF1" d="M203.074,34.198C163.935,46.694,39.963-14.924,49.666,69.242c1.517,12.515,9.577,30.192,2.77,41.876
                c-4.933,8.75-13.975,13.877-22.708,17.279c-22.814,9.274-31.309,26.682-25.531,51.526
                c15.454,66.945,99.581,51.069,143.745,31.219c31.408-14.771,68.45-17.309,100.973-4.812
                c25.479,10.175,41.362,31.52,71.267,25.267c26.521-5.322,30.522-30.36,22.778-53.668c-4.399-14.42-7.559-20.513,1.168-34.432
                c7.354-13.824,20.297-24.299,21.293-40.494c0.218-17.541-7.843-35.217-23.441-41.86c-12.763-5.436-24.331-3.241-36.956-6.583
                c-28.083-7.893-46.13-51.525-80.968-36.52c-8.687,4.101-13.574,13.549-23.039,16.301"/>
                        </g>
                        <g opacity="0.3">
                            <g>
                                <g>
                                    <path fill="#A2DBF1"
                                          d="M188.882,28.188c3.547,0,3.547-5.5,0-5.5S185.335,28.188,188.882,28.188L188.882,28.188z"/>
                                </g>
                            </g>
                            <g>
                                <g>
                                    <path fill="#A2DBF1"
                                          d="M25.945,112.75c7.094,0,7.094-11,0-11S18.851,112.75,25.945,112.75L25.945,112.75z"/>
                                </g>
                            </g>
                            <g>
                                <g>
                                    <path fill="#A2DBF1"
                                          d="M356.632,156.612c7.094,0,7.094-11,0-11S349.539,156.612,356.632,156.612L356.632,156.612z"/>
                                </g>
                            </g>
                            <g>
                                <g>
                                    <path fill="#A2DBF1"
                                          d="M170.32,25.438c7.094,0,7.094-11,0-11S163.226,25.438,170.32,25.438L170.32,25.438z"/>
                                </g>
                            </g>
                            <g>
                                <g>
                                    <path fill="#A2DBF1"
                                          d="M367.632,139.15c9.222,0,9.222-14.3,0-14.3S358.411,139.15,367.632,139.15L367.632,139.15z"/>
                                </g>
                            </g>
                            <g>
                                <g>
                                    <path fill="#A2DBF1"
                                          d="M7.383,130.9c9.222,0,9.222-14.3,0-14.3S-1.839,130.9,7.383,130.9L7.383,130.9z"/>
                                </g>
                            </g>
                            <g>
                                <g>
                                    <path fill="#A2DBF1"
                                          d="M312.632,44.962c9.222,0,9.222-14.3,0-14.3S303.411,44.962,312.632,44.962L312.632,44.962z"/>
                                </g>
                            </g>
                            <g>
                                <g>
                                    <path fill="#A2DBF1"
                                          d="M186.132,16.5c10.641,0,10.641-16.5,0-16.5C175.492,0,175.492,16.5,186.132,16.5L186.132,16.5z"/>
                                </g>
                            </g>
                            <g>
                                <g>
                                    <path fill="#A2DBF1"
                                          d="M373.545,152.074c5.32,0,5.32-8.25,0-8.25S368.225,152.074,373.545,152.074L373.545,152.074z"/>
                                </g>
                            </g>
                            <g>
                                <g>
                                    <path fill="#A2DBF1"
                                          d="M5.458,107.938c5.32,0,5.32-8.25,0-8.25S0.137,107.938,5.458,107.938L5.458,107.938z"/>
                                </g>
                            </g>
                            <g>
                                <g>
                                    <path fill="#A2DBF1"
                                          d="M329.82,52.938c5.32,0,5.32-8.25,0-8.25S324.5,52.938,329.82,52.938L329.82,52.938z"/>
                                </g>
                            </g>
                            <g>
                                <g>
                                    <path fill="#A2DBF1"
                                          d="M328.445,37.812c3.547,0,3.547-5.5,0-5.5S324.898,37.812,328.445,37.812L328.445,37.812z"/>
                                </g>
                            </g>
                            <g>
                                <g>
                                    <path fill="#A2DBF1"
                                          d="M49.871,28.324c7.094,0,7.094-11,0-11S42.777,28.324,49.871,28.324L49.871,28.324z"/>
                                </g>
                            </g>
                            <g>
                                <g>
                                    <path fill="#A2DBF1"
                                          d="M362.82,217.938c7.094,0,7.094-11,0-11S355.726,217.938,362.82,217.938L362.82,217.938z"/>
                                </g>
                            </g>
                            <g>
                                <g>
                                    <path fill="#A2DBF1"
                                          d="M5.32,222.75c7.094,0,7.094-11,0-11S-1.773,222.75,5.32,222.75L5.32,222.75z"/>
                                </g>
                            </g>
                            <g>
                                <g>
                                    <path fill="#A2DBF1"
                                          d="M66.371,20.074c3.547,0,3.547-5.5,0-5.5S62.824,20.074,66.371,20.074L66.371,20.074z"/>
                                </g>
                            </g>
                            <g>
                                <g>
                                    <path fill="#A2DBF1"
                                          d="M363.507,195.938c3.547,0,3.547-5.5,0-5.5S359.96,195.938,363.507,195.938L363.507,195.938z"/>
                                </g>
                            </g>
                            <g>
                                <g>
                                    <path fill="#A2DBF1"
                                          d="M21.82,229.625c3.547,0,3.547-5.5,0-5.5S18.273,229.625,21.82,229.625L21.82,229.625z"/>
                                </g>
                            </g>
                        </g>
                    </g>
                    <g>
                        <g>
                            <g>
                                <g>
                                    <g>
                                        <g>
                                            <path fill="#222221" d="M100.334,137.023c-3.705,1.309-6.151,1.559-8.049-2.188c-1.462-2.885-2.437-5.865-4.277-8.566
                                c-3.988-5.854-7.85-6.247-14.236-5.413c-6.338,0.828-14.984-0.792-15.946-8.121c-0.686-5.224-0.726-10.027-3.013-14.914
                                c-1.126-2.408-4.682-0.312-3.562,2.082c2.537,5.422,1.428,11.326,3.285,16.849c1.884,5.604,8.157,7.411,13.431,8.04
                                c3.985,0.475,7.474-0.486,11.381-0.481c4.196,0.005,7.061,7.203,8.391,10.362c2.772,6.587,6.7,8.797,13.692,6.327
                                C103.921,140.121,102.849,136.135,100.334,137.023L100.334,137.023z"/>
                                        </g>
                                    </g>
                                    <g>
                                        <g>
                                            <g>
                                                <path fill="#222221" d="M56.742,92.254c-1.235,1.618-2.745,2.628-4.542,3.533c-1.901,0.958-0.229,3.804,1.666,2.85
                                    c2.336-1.177,4.135-2.634,5.726-4.717c0.547-0.717,0.112-1.845-0.592-2.258C58.151,91.166,57.287,91.541,56.742,92.254
                                    L56.742,92.254z"/>
                                            </g>
                                        </g>
                                        <g>
                                            <g>
                                                <path fill="#222221" d="M50.833,87.862c0.009,3.489,0.518,6.959,0.55,10.45c0.019,2.127,3.319,2.129,3.3,0
                                    c-0.032-3.491-0.541-6.961-0.55-10.45C54.127,85.734,50.827,85.734,50.833,87.862L50.833,87.862z"/>
                                            </g>
                                        </g>
                                        <g>
                                            <g>
                                                <path fill="#222221" d="M45.267,91.229c2.208,2.76,4.45,5.514,7.483,7.408c1.811,1.13,3.466-1.726,1.666-2.85
                                    c-2.769-1.729-4.802-4.375-6.816-6.891C46.27,87.234,43.951,89.585,45.267,91.229L45.267,91.229z"/>
                                            </g>
                                        </g>
                                        <g>
                                            <g>
                                                <path fill="#222221" d="M42.517,96.178c3.07,2.903,6.897,3.865,10.955,2.625c2.029-0.62,1.164-3.806-0.877-3.183
                                    c-2.93,0.896-5.503,0.344-7.745-1.775C43.305,92.384,40.967,94.714,42.517,96.178L42.517,96.178z"/>
                                            </g>
                                        </g>
                                    </g>
                                </g>
                                <g>
                                    <g>
                                        <g>
                                            <path fill="#222221" d="M269.045,147.262c0.148-5.391,1.95-7.189,7.154-7.613c3.381-0.276,6.811-0.229,10.154-0.852
                                c5.104-0.95,5.009-7.99,6.983-11.623c3.016-5.549,11.118-4.959,16.347-6.599c5.761-1.806,7.972-6.683,8.312-12.363
                                c0.159-2.658-3.967-2.643-4.125,0c-0.506,8.45-6.703,8.744-13.51,10.145c-6,1.234-10.063,4.523-12.149,10.305
                                c-0.653,1.81-0.812,5.583-2.954,6.157c-3.488,0.936-7.503,0.508-11.092,0.897c-6.744,0.73-9.068,5.146-9.245,11.546
                                C264.847,149.923,268.972,149.916,269.045,147.262L269.045,147.262z"/>
                                        </g>
                                    </g>
                                    <g>
                                        <g>
                                            <g>
                                                <path fill="#222221" d="M308.292,103.15c1.41,3.362,3.84,5.793,7.203,7.203c0.831,0.348,1.814-0.369,2.029-1.153
                                    c0.262-0.951-0.323-1.682-1.152-2.03c-2.169-0.909-3.988-2.729-4.898-4.897c-0.348-0.829-1.078-1.415-2.029-1.153
                                    C308.661,101.336,307.943,102.319,308.292,103.15L308.292,103.15z"/>
                                            </g>
                                        </g>
                                        <g>
                                            <g>
                                                <path fill="#222221" d="M313.182,98.862c0,2.75,0,5.5,0,8.25c0,2.128,3.301,2.128,3.301,0c0-2.75,0-5.5,0-8.25
                                    C316.483,96.734,313.182,96.734,313.182,98.862L313.182,98.862z"/>
                                            </g>
                                        </g>
                                        <g>
                                            <g>
                                                <path fill="#222221" d="M318.742,99.523c-1,2.885-2.727,5.056-5.076,6.972c-1.649,1.346,0.7,3.666,2.334,2.333
                                    c2.797-2.282,4.74-5.015,5.924-8.428C322.623,98.384,319.434,97.526,318.742,99.523L318.742,99.523z"/>
                                            </g>
                                        </g>
                                        <g>
                                            <g>
                                                <path fill="#222221" d="M322.758,102.979c-1.438,2.279-3.709,3.735-6.164,4.742c-1.941,0.796-1.093,3.99,0.877,3.183
                                    c3.288-1.348,6.206-3.198,8.137-6.258C326.747,102.84,323.89,101.185,322.758,102.979L322.758,102.979z"/>
                                            </g>
                                        </g>
                                    </g>
                                </g>
                            </g>
                            <g>
                                <g>
                                    <g>
                                        <path fill="#B3B3B3" d="M288.71,207.028c0,2.886-21.604,3.724-23.939,3.724H103.094c-2.332,0-23.939-0.838-23.939-3.724
                            l19.715-29.552c0-2.886,1.893-5.225,4.225-5.225h161.677c2.335,0,4.226,2.339,4.226,5.225L288.71,207.028z"/>
                                        <g>
                                            <g>
                                                <polygon fill="#3E3E3D"
                                                         points="150.684,200.445 109.132,200.445 116.403,182.845 153.985,182.845                                 "/>
                                                <polygon fill="#3E3E3D"
                                                         points="217.181,200.445 258.733,200.445 251.46,182.845 213.88,182.845                               "/>
                                                <polygon fill="#3E3E3D"
                                                         points="263.351,200.445 277.983,200.445 266.01,182.845 254.972,182.845                              "/>
                                                <polygon fill="#3E3E3D"
                                                         points="104.516,200.445 89.883,200.445 101.857,182.845 112.893,182.845                              "/>
                                                <polygon fill="#3E3E3D"
                                                         points="213.526,200.445 154.338,200.445 157.638,182.845 210.226,182.845                                 "/>
                                            </g>
                                            <g>
                                                <rect x="93.495" y="186.057" fill="#B3B3B3" width="180.878"
                                                      height="2.694"/>
                                                <rect x="91.534" y="192.657" fill="#B3B3B3" width="184.8"
                                                      height="2.694"/>
                                            </g>
                                        </g>
                                    </g>
                                    <g>
                                        <path fill="#3E3E3D" d="M289.817,213.873c0,2.333-0.483,4.224-2.814,4.224H80.864c-2.335,0-2.815-1.891-2.815-4.224v-3.622
                            c0-2.333,0.48-4.224,2.815-4.224h206.139c2.331,0,2.814,1.891,2.814,4.224V213.873z"/>
                                        <path fill="#6F6F6F" d="M222.57,212.163c0,1.215-0.984,2.2-2.199,2.2h-72.875c-1.216,0-2.2-0.985-2.2-2.2l0,0
                            c0-1.215,0.984-2.2,2.2-2.2h72.875C221.585,209.962,222.57,210.948,222.57,212.163L222.57,212.163z"/>
                                    </g>
                                </g>
                                <g>
                                    <path fill="#3E3E3D" d="M271.108,173.487c0,2.333-1.891,4.226-4.226,4.226H100.983c-2.334,0-4.226-1.893-4.226-4.226V65.254
                        c0-2.333,1.892-4.226,4.226-4.226h165.899c2.335,0,4.226,1.893,4.226,4.226V173.487z"/>
                                    <g>
                                        <g>
                                            <path fill="#FFFFFF"
                                                  d="M183.933,66.906c2.271,0,2.271-3.521,0-3.521S181.663,66.906,183.933,66.906L183.933,66.906z"/>
                                        </g>
                                    </g>
                                    <g>
                                        <path fill="#FFFFFF" d="M258.904,166.684c0,2.007-1.627,3.634-3.632,3.634H112.595c-2.006,0-3.635-1.627-3.635-3.634V73.606
                            c0-2.007,1.629-3.634,3.635-3.634h142.677c2.005,0,3.632,1.627,3.632,3.634V166.684z"/>
                                        <g>
                                            <g>
                                                <g>

                                                    <line fill="none" stroke="#425973" stroke-width="3.3"
                                                          stroke-linecap="round" stroke-linejoin="round"
                                                          stroke-miterlimit="10" x1="162.106" y1="107.699" x2="149.66"
                                                          y2="120.144"/>

                                                    <line fill="none" stroke="#425973" stroke-width="3.3"
                                                          stroke-linecap="round" stroke-linejoin="round"
                                                          stroke-miterlimit="10" x1="162.106" y1="120.146" x2="149.661"
                                                          y2="107.7"/>
                                                </g>
                                                <g>

                                                    <line fill="none" stroke="#425973" stroke-width="3.3"
                                                          stroke-linecap="round" stroke-linejoin="round"
                                                          stroke-miterlimit="10" x1="218.206" y1="107.699" x2="205.759"
                                                          y2="120.144"/>

                                                    <line fill="none" stroke="#425973" stroke-width="3.3"
                                                          stroke-linecap="round" stroke-linejoin="round"
                                                          stroke-miterlimit="10" x1="218.206" y1="120.146" x2="205.761"
                                                          y2="107.7"/>
                                                </g>
                                            </g>
                                            <g>
                                                <g>
                                                    <path fill="#DD9AB2"
                                                          d="M212.62,135.162v12.283c0,2.431-1.971,4.4-4.4,4.4h-2.373c-2.43,0-4.4-1.97-4.4-4.4v-12.283"/>
                                                    <g>
                                                        <polygon fill="#D6819F"
                                                                 points="208.962,135.804 207.033,150.104 205.103,135.804                                         "/>
                                                    </g>
                                                </g>

                                                <line fill="none" stroke="#425973" stroke-width="2.75"
                                                      stroke-linecap="round" stroke-linejoin="round"
                                                      stroke-miterlimit="10" x1="146.639" y1="135.148" x2="221.226"
                                                      y2="135.148"/>
                                            </g>
                                            <g>
                                                <g>
                                                    <g>
                                                        <path fill="#E9C2D0"
                                                              d="M134.433,133.329c7.094,0,7.094-11,0-11S127.339,133.329,134.433,133.329L134.433,133.329z"/>
                                                    </g>
                                                </g>
                                                <g>
                                                    <g>
                                                        <path fill="#E9C2D0"
                                                              d="M233.433,133.329c7.094,0,7.094-11,0-11S226.339,133.329,233.433,133.329L233.433,133.329z"/>
                                                    </g>
                                                </g>
                                            </g>
                                        </g>
                                    </g>
                                </g>
                            </g>
                        </g>
                        <g>
                            <g>
                                <g>
                                    <path fill="#DB9022" d="M242.783,46.612c0,12.1,0,24.2,0,36.3c0,3.547,5.5,3.547,5.5,0c0-12.1,0-24.2,0-36.3
                        C248.283,43.065,242.783,43.065,242.783,46.612L242.783,46.612z"/>
                                </g>
                            </g>
                            <g>
                                <g>
                                    <path fill="#DB9022"
                                          d="M245.533,96.938c5.32,0,5.32-8.25,0-8.25S240.212,96.938,245.533,96.938L245.533,96.938z"/>
                                </g>
                            </g>
                        </g>
                    </g>
                </g>
            </svg>
