<?xml version="1.0" encoding="utf-8"?>
<!-- Generator: Adobe Illustrator 16.0.4, SVG Export Plug-In . SVG Version: 6.00 Build 0)  -->
<!DOCTYPE svg PUBLIC "-//W3C//DTD SVG 1.1//EN" "http://www.w3.org/Graphics/SVG/1.1/DTD/svg11.dtd">
<svg version="1.1" id="Capa_1" xmlns="http://www.w3.org/2000/svg" xmlns:xlink="http://www.w3.org/1999/xlink" x="0px" y="0px"
	 width="16px" height="16px" viewBox="289.64 412.945 16 16" enable-background="new 289.64 412.945 16 16" xml:space="preserve">
<g>
	<path d="M304.385,427.179c-0.178-0.438-0.36-0.875-0.559-1.307c-0.176-0.385-0.402-0.499-0.822-0.401
		c-0.534,0.122-1.059,0.285-1.593,0.395c-1.029,0.215-2.064,0.236-3.082-0.087c-1.277-0.4-1.956-1.325-2.374-2.52h3.46
		c0.271,0,0.49-0.218,0.49-0.488v-1.092c0-0.272-0.219-0.491-0.49-0.491h-3.793c0-0.305-0.002-0.598,0-0.889h3.793
		c0.271,0,0.49-0.218,0.49-0.49v-1.091c0-0.271-0.219-0.49-0.49-0.49h-3.315c0-0.013,0-0.026,0.006-0.034
		c0.398-0.904,0.979-1.63,1.929-2.008c1.107-0.438,2.239-0.428,3.38-0.193c0.54,0.11,1.07,0.275,1.61,0.398
		c0.395,0.089,0.624-0.026,0.792-0.394c0.196-0.424,0.375-0.855,0.555-1.29c0.168-0.408,0.068-0.697-0.316-0.922
		c-0.096-0.057-0.194-0.103-0.298-0.143c-1.599-0.623-3.245-0.855-4.946-0.584c-1.196,0.193-2.313,0.604-3.278,1.353
		c-1.216,0.941-2.005,2.185-2.463,3.647l-0.056,0.169h-1.704c-0.272,0-0.491,0.219-0.491,0.49v1.091c0,0.272,0.218,0.49,0.491,0.49
		h1.342c0,0.299,0,0.588,0,0.889h-1.342c-0.272,0-0.491,0.218-0.491,0.491v1.092c0,0.271,0.218,0.488,0.491,0.488h1.617
		c0.123,0.398,0.226,0.803,0.381,1.186c0.82,1.975,2.192,3.381,4.257,4.05c1.708,0.553,3.429,0.537,5.147,0.063
		c0.447-0.124,0.893-0.283,1.316-0.478C304.442,427.891,304.549,427.572,304.385,427.179z"/>
</g>
</svg>
