<?xml version="1.0" encoding="utf-8"?>
<!-- Generator: Adobe Illustrator 16.0.4, SVG Export Plug-In . SVG Version: 6.00 Build 0)  -->
<!DOCTYPE svg PUBLIC "-//W3C//DTD SVG 1.1//EN" "http://www.w3.org/Graphics/SVG/1.1/DTD/svg11.dtd">
<svg version="1.1" id="Capa_1" xmlns="http://www.w3.org/2000/svg" xmlns:xlink="http://www.w3.org/1999/xlink" x="0px" y="0px"
	 width="16px" height="16px" viewBox="289.64 412.945 16 16" enable-background="new 289.64 412.945 16 16" xml:space="preserve">
<g>
	<g>
		<path fill="#999999" d="M301.923,421.26h-0.57c-0.084,0-0.152,0.026-0.205,0.08c-0.055,0.054-0.08,0.121-0.08,0.205v2.855
			c0,0.393-0.141,0.729-0.42,1.008s-0.617,0.419-1.01,0.419h-7.423c-0.393,0-0.729-0.14-1.009-0.419
			c-0.279-0.279-0.419-0.615-0.419-1.008v-7.425c0-0.392,0.14-0.728,0.419-1.008c0.28-0.28,0.616-0.419,1.009-0.419h6.283
			c0.082,0,0.15-0.027,0.205-0.081c0.053-0.053,0.08-0.122,0.08-0.205v-0.571c0-0.083-0.027-0.151-0.08-0.205
			c-0.055-0.054-0.123-0.081-0.205-0.081h-6.283c-0.708,0-1.313,0.252-1.816,0.754c-0.502,0.503-0.754,1.108-0.754,1.816v7.424
			c0,0.708,0.251,1.313,0.754,1.815c0.503,0.503,1.108,0.755,1.816,0.755h7.423c0.709,0,1.314-0.252,1.816-0.755
			c0.504-0.502,0.754-1.107,0.754-1.815v-2.855c0-0.084-0.027-0.151-0.08-0.205S302.007,421.26,301.923,421.26z"/>
		<path fill="#999999" d="M305.466,413.434c-0.113-0.113-0.248-0.17-0.402-0.17h-4.568c-0.154,0-0.289,0.057-0.402,0.17
			c-0.113,0.113-0.168,0.247-0.168,0.401s0.055,0.289,0.168,0.402l1.57,1.57l-5.817,5.818c-0.06,0.06-0.089,0.128-0.089,0.205
			c0,0.078,0.03,0.146,0.089,0.206l1.017,1.017c0.06,0.06,0.128,0.089,0.206,0.089c0.078,0,0.146-0.029,0.206-0.089l5.817-5.818
			l1.572,1.571c0.111,0.113,0.246,0.169,0.4,0.169s0.289-0.057,0.402-0.169c0.113-0.113,0.17-0.247,0.17-0.402v-4.569
			C305.636,413.68,305.579,413.546,305.466,413.434z"/>
	</g>
</g>
</svg>
