<?xml version="1.0" encoding="utf-8"?>
<!-- Generator: Adobe Illustrator 16.0.4, SVG Export Plug-In . SVG Version: 6.00 Build 0)  -->
<!DOCTYPE svg PUBLIC "-//W3C//DTD SVG 1.1//EN" "http://www.w3.org/Graphics/SVG/1.1/DTD/svg11.dtd">
<svg version="1.1" id="Capa_1" xmlns="http://www.w3.org/2000/svg" xmlns:xlink="http://www.w3.org/1999/xlink" x="0px" y="0px"
	 width="16px" height="16px" viewBox="289.64 412.945 16 16" enable-background="new 289.64 412.945 16 16" xml:space="preserve">
<path fill="#F2F2F2" d="M301.896,413.008h-11.53c-0.365,0-0.663,0.297-0.663,0.662v11.722l3.494,3.49h8.699
	c0.365,0,0.662-0.297,0.662-0.662v-14.55C302.558,413.305,302.261,413.008,301.896,413.008z"/>
<rect x="291.64" y="420.542" fill="#CDD5DF" width="8.978" height="0.806"/>
<rect x="291.64" y="415.405" fill="#FFD05C" width="4.741" height="0.806"/>
<rect x="296.381" y="425.68" fill="#65C5B8" width="4.237" height="0.807"/>
<g>
	<rect x="291.64" y="423.111" fill="#CDD5DF" width="8.978" height="0.807"/>
	<rect x="291.64" y="417.974" fill="#CDD5DF" width="8.978" height="0.806"/>
</g>
<rect x="302.003" y="423.043" transform="matrix(0.7082 -0.706 0.706 0.7082 -210.7579 337.1416)" fill="#F05540" width="0.913" height="0.961"/>
<path fill="#41596B" d="M302.323,417.896c-1.514-1.516-3.979-1.516-5.492,0c-1.517,1.515-1.517,3.977,0,5.493
	c1.513,1.516,3.978,1.516,5.492,0C303.841,421.873,303.841,419.411,302.323,417.896z"/>
<path fill="#FFD05C" d="M305.284,424.926l-1.225-1.225c-0.395-0.393-1.029-0.393-1.422,0c-0.395,0.395-0.395,1.029,0,1.422
	l1.225,1.227c0.393,0.393,1.027,0.393,1.422,0C305.675,425.955,305.675,425.316,305.284,424.926z"/>
<path fill="#FFFFFF" d="M301.521,422.586c-1.07,1.072-2.814,1.072-3.884,0c-1.071-1.072-1.071-2.815,0-3.884
	c1.072-1.072,2.816-1.072,3.884,0C302.593,419.771,302.593,421.514,301.521,422.586z"/>
<path fill="#CDD5DF" d="M293.197,426.051c0-0.365-0.297-0.662-0.663-0.662h-2.831l3.494,3.494V426.051L293.197,426.051z"/>
</svg>
