<svg xmlns="http://www.w3.org/2000/svg" viewBox="0 0 127.9 74.6"><path d="M122.8,64.9c0,5.4-26.2,9.7-58.5,9.7S5.8,70.3,5.8,64.9,32,55.1,64.3,55.1,122.8,59.5,122.8,64.9Z" fill="#bcbec0"/><path d="M121.6,8a6.4,6.4,0,0,0-6.1,4.8H99.6A8.2,8.2,0,0,0,91.4,21a8.2,8.2,0,0,0,8.2,8.1h10.3a5.3,5.3,0,0,1,5.2,5.2V69.7l3-1V34.3a8.2,8.2,0,0,0-8.2-8.2H99.6a5.2,5.2,0,1,1,0-10.3h15.9A6.3,6.3,0,1,0,121.6,8Zm0,10.4a1.3,1.3,0,0,1-1.3-1.4,1.3,1.3,0,0,1,1.3-1.3,1.3,1.3,0,0,1,1.3,1.3A1.3,1.3,0,0,1,121.6,18.4Zm0-5.5a1.3,1.3,0,1,1,0-2.6,1.3,1.3,0,1,1,0,2.6Z" fill="#661f24"/><path d="M29.1,12.8h-16v-3A1.8,1.8,0,0,0,11.3,8H5V9.5H1a.9.9,0,1,0,0,1.8H5v6H1a.9.9,0,0,0-1,.9.9.9,0,0,0,1,1H5v1.4h6.3a1.8,1.8,0,0,0,1.8-1.7v-3h16a5.2,5.2,0,0,1,0,10.3H18.7a8.2,8.2,0,0,0-8.1,8.2V68.7l3,1V34.3a5.2,5.2,0,0,1,5.1-5.2H29.1A8.1,8.1,0,0,0,37.2,21,8.2,8.2,0,0,0,29.1,12.8Z" fill="#661f24"/><path d="M84.9,9.2,85.5,0,77.8,5.1A35.7,35.7,0,0,0,64.3,2.4,34.8,34.8,0,0,0,50.9,5.1L43.1,0l.6,9.2A34.7,34.7,0,0,0,29.8,36.9V72.8a313.2,313.2,0,0,0,34.5,1.8,313.2,313.2,0,0,0,34.5-1.8V36.9A34.4,34.4,0,0,0,84.9,9.2Z" fill="#ef464c"/><path d="M98.8,72.8h0l4.3-15.2L98.8,57Z" fill="#a7a9ac"/><path d="M29.8,72.8h0L25.5,57.6l4.3-.6Z" fill="#a7a9ac"/><path d="M82.8,31.4a6.5,6.5,0,1,0-6.5,6.5A6.5,6.5,0,0,0,82.8,31.4Z" fill="#fff"/><path d="M58.8,31.4a6.5,6.5,0,1,0-6.5,6.5A6.5,6.5,0,0,0,58.8,31.4Z" fill="#fff"/><path d="M54.7,28.6a2.4,2.4,0,1,1-4.8,0,2.4,2.4,0,0,1,4.8,0Z" fill="#231f20"/><path d="M78.7,28.6a2.4,2.4,0,0,1-4.8,0,2.4,2.4,0,1,1,4.8,0Z" fill="#231f20"/><path d="M26.4,13.6A5.6,5.6,0,0,0,20.8,8a5.5,5.5,0,0,0-5.5,5.6,5.6,5.6,0,0,0,1.5,3.8v9a6.3,6.3,0,0,1,1.9-.3h6.1V17.4A5.3,5.3,0,0,0,26.4,13.6Z" fill="#ef464c"/><path d="M68.2,45.7a3.9,3.9,0,0,1-3.9,3.9,3.9,3.9,0,0,1,0-7.7A3.9,3.9,0,0,1,68.2,45.7Z" fill="#631f23"/><path d="M64.3,41.9a3.9,3.9,0,1,1,0,7.7,3.9,3.9,0,0,1,0-7.7m0-2a5.9,5.9,0,0,0,0,11.7,5.9,5.9,0,1,0,0-11.7Z" fill="#bc353b"/><path d="M64.3,48.4a8.8,8.8,0,0,0-2.4.3,3.9,3.9,0,0,0,2.4.9,4.5,4.5,0,0,0,2.5-.9A9.5,9.5,0,0,0,64.3,48.4Z" fill="#ee98b8"/><path d="M24.8,38.6V29.1H18.7a6.5,6.5,0,0,0-1.9.4v9.1A26.4,26.4,0,0,0,29.8,61V48.7A12.1,12.1,0,0,1,24.8,38.6Z" fill="#ef464c"/><path d="M102.3,13.6A5.5,5.5,0,0,1,107.8,8a5.6,5.6,0,0,1,5.6,5.6,5.3,5.3,0,0,1-1.6,3.8v9a5.8,5.8,0,0,0-1.9-.3h-6.1V17.4A5.2,5.2,0,0,1,102.3,13.6Z" fill="#ef464c"/><path d="M103.8,38.6V29.1h6.1a5.8,5.8,0,0,1,1.9.4v9.1A26.4,26.4,0,0,1,98.8,61V48.7A11.8,11.8,0,0,0,103.8,38.6Z" fill="#ef464c"/><path d="M29.8,48.7l-1.5-1.3V60l1.5,1Z" fill="#bc353b"/><path d="M98.8,48.7a6.4,6.4,0,0,0,1.5-1.3V60l-1.5,1Z" fill="#bc353b"/><path d="M52.3,24.9a6.5,6.5,0,1,1-6.5,6.5,6.5,6.5,0,0,1,6.5-6.5m0-1a7.5,7.5,0,1,0,7.5,7.5,7.5,7.5,0,0,0-7.5-7.5Z" fill="#bc353b"/><path d="M76.3,24.9a6.5,6.5,0,1,1-6.5,6.5,6.5,6.5,0,0,1,6.5-6.5m0-1a7.5,7.5,0,1,0,7.5,7.5,7.5,7.5,0,0,0-7.5-7.5Z" fill="#bc353b"/></svg>