<svg xmlns="http://www.w3.org/2000/svg" viewBox="0 0 125.2 81.3"><path d="M121.9,71.6c0,5.4-26.2,9.7-58.5,9.7S4.9,77,4.9,71.6s26.2-9.8,58.5-9.8S121.9,66.2,121.9,71.6Z" fill="#bcbec0"/><path d="M84,15.9l.6-9.2-7.7,5.1A33.9,33.9,0,0,0,63.4,9.1,33.1,33.1,0,0,0,50,11.8L42.2,6.7l.6,9.2A34.7,34.7,0,0,0,28.9,43.6V79.4a288.5,288.5,0,0,0,34.5,1.9,288.5,288.5,0,0,0,34.5-1.9V43.6A34.4,34.4,0,0,0,84,15.9Z" fill="#ef464c"/><path d="M97.9,79.4h0l4.3-15.1-4.3-.6Z" fill="#a7a9ac"/><path d="M28.9,79.4h0L24.6,64.3l4.3-.6Z" fill="#a7a9ac"/><path d="M123.4,12.1a6.5,6.5,0,0,0,1.5-6.5l-3,3a2.7,2.7,0,0,1-4,0,2.7,2.7,0,0,1,0-4l3-3a6.3,6.3,0,0,0-7.7,8.8L100.3,23.3a2.1,2.1,0,0,0,2.9,2.9l12.9-12.9A6.3,6.3,0,0,0,123.4,12.1Z" fill="#661f24"/><path d="M5.4,3.4,6.5,2.3,2,0,0,2,2.3,6.5,3.4,5.4l9,9v2.2l9.3,9.3a3,3,0,0,0,4.2-4.2l-9.3-9.3H14.4Z" fill="#661f24"/><path d="M81.9,38.1a6.5,6.5,0,1,0-6.5,6.4A6.5,6.5,0,0,0,81.9,38.1Z" fill="#fff"/><path d="M75.4,31.6a6.5,6.5,0,1,1-6.5,6.5,6.5,6.5,0,0,1,6.5-6.5m0-1a7.5,7.5,0,1,0,7.5,7.5,7.5,7.5,0,0,0-7.5-7.5Z" fill="#bc353b"/><path d="M51.4,31.6a6.5,6.5,0,1,1-6.5,6.5,6.5,6.5,0,0,1,6.5-6.5m0-1a7.5,7.5,0,1,0,7.5,7.5,7.5,7.5,0,0,0-7.5-7.5Z" fill="#bc353b"/><path d="M63.4,48.7A41.8,41.8,0,0,1,80.1,52a3,3,0,0,1,1.4,4,3,3,0,0,1-4,1.5,33.8,33.8,0,0,0-14.1-2.8,33.8,33.8,0,0,0-14.1,2.8A3,3,0,0,1,46.8,52,40.9,40.9,0,0,1,63.4,48.7Z" fill="#661f24"/><path d="M63.4,48.7A41.8,41.8,0,0,1,80.1,52a3,3,0,0,1,1.4,4,3.3,3.3,0,0,1-4,1.5,33.8,33.8,0,0,0-14.1-2.8,33.8,33.8,0,0,0-14.1,2.8,2.7,2.7,0,0,1-1.3.2A2.9,2.9,0,0,1,45.3,56a3,3,0,0,1,1.5-4,40.9,40.9,0,0,1,16.6-3.3m0-2a43.7,43.7,0,0,0-17.5,3.5A5,5,0,0,0,48,59.7a4.6,4.6,0,0,0,2.1-.4,31.9,31.9,0,0,1,13.3-2.6,31.9,31.9,0,0,1,13.3,2.6,5.2,5.2,0,0,0,2.1.4,4.9,4.9,0,0,0,4.5-2.9,5,5,0,0,0,.2-3.8,5.5,5.5,0,0,0-2.6-2.8,43.7,43.7,0,0,0-17.5-3.5Z" fill="#bc353b"/><path d="M52.1,53,50,57.2A19,19,0,0,1,53.6,56Z" fill="#fff"/><path d="M73.3,56a20.6,20.6,0,0,1,3.5,1.2L74.7,53Z" fill="#fff"/><path d="M63.4,54.7A34.4,34.4,0,0,1,68,55c-.3-.7-2.2-1.5-4.6-1.5s-4.2.8-4.5,1.5A32.9,32.9,0,0,1,63.4,54.7Z" fill="#ee98b8"/><path d="M57.9,38.1a6.5,6.5,0,1,0-6.5,6.4A6.5,6.5,0,0,0,57.9,38.1Z" fill="#fff"/><path d="M53.8,38.1a2.4,2.4,0,1,1-2.4-2.5A2.4,2.4,0,0,1,53.8,38.1Z" fill="#231f20"/><path d="M77.8,38.1a2.4,2.4,0,1,1-2.4-2.5A2.4,2.4,0,0,1,77.8,38.1Z" fill="#231f20"/><path d="M23.9,45.3V24.1a5.3,5.3,0,0,0,1.6-3.8,5.6,5.6,0,0,0-5.6-5.6,5.5,5.5,0,0,0-5.5,5.6,5.6,5.6,0,0,0,1.5,3.8V45.3a26.2,26.2,0,0,0,13,22.3V55.4A12.1,12.1,0,0,1,23.9,45.3Z" fill="#ef464c"/><path d="M102.9,45.3V24.1a5.6,5.6,0,0,1-1.5-3.8,5.5,5.5,0,0,1,5.5-5.6,5.6,5.6,0,0,1,5.6,5.6,5.3,5.3,0,0,1-1.6,3.8V45.3a26.2,26.2,0,0,1-13,22.3V55.4A11.8,11.8,0,0,0,102.9,45.3Z" fill="#ef464c"/><path d="M28.9,55.4l-1.5-1.3V66.7a11.9,11.9,0,0,0,1.5.9Z" fill="#bc353b"/><path d="M97.9,55.4a6.4,6.4,0,0,0,1.5-1.3V66.7a11.9,11.9,0,0,1-1.5.9Z" fill="#bc353b"/></svg>