<svg xmlns="http://www.w3.org/2000/svg" viewBox="0 0 117 74.6"><path d="M117,64.9c0,5.4-26.2,9.7-58.5,9.7S0,70.3,0,64.9s26.2-9.8,58.5-9.8S117,59.5,117,64.9Z" fill="#bcbec0"/><path d="M79.1,9.2,79.7,0,71.9,5.1a34.6,34.6,0,0,0-26.8,0L37.3,0l.6,9.2A34.7,34.7,0,0,0,24,36.9V72.8a313.2,313.2,0,0,0,34.5,1.8A313.2,313.2,0,0,0,93,72.8V36.9A34.7,34.7,0,0,0,79.1,9.2Z" fill="#ef464c"/><path d="M93,72.8h0l4.3-15.2L93,57Z" fill="#a7a9ac"/><path d="M24,72.8h0L19.7,57.6,24,57Z" fill="#a7a9ac"/><path d="M65.4,27.4a5.2,5.2,0,0,0-1,1.8,6.5,6.5,0,0,0,12.2,4.4,4.5,4.5,0,0,0,.4-2Z" fill="#fff"/><path d="M72.2,34.8a2.4,2.4,0,1,1-2.4-2.4A2.4,2.4,0,0,1,72.2,34.8Z" fill="#231f20"/><path d="M51.7,27.4a4,4,0,0,1,1,1.8,6.4,6.4,0,0,1-3.9,8.3,6.5,6.5,0,0,1-8.7-5.9Z" fill="#fff"/><path d="M44.8,34.8a2.4,2.4,0,1,0,2.4-2.4A2.4,2.4,0,0,0,44.8,34.8Z" fill="#231f20"/><path d="M93,44.3V56.5a11.8,11.8,0,0,1,5,10.1,14.7,14.7,0,0,1-1.1,5.6c3.2-.4,6.2-1,8.7-1.5a19,19,0,0,0,.4-4.1A26.2,26.2,0,0,0,93,44.3Z" fill="#ef464c"/><path d="M24,44.3V56.5a12.1,12.1,0,0,0-5,10.1,14.7,14.7,0,0,0,1.1,5.6c-3.2-.4-6.2-1-8.7-1.5a19,19,0,0,1-.4-4.1A26.2,26.2,0,0,1,24,44.3Z" fill="#ef464c"/><path d="M73.9,44.6a3,3,0,0,1,3,3,3.1,3.1,0,0,1-3,3H43.1a3.1,3.1,0,0,1-3-3,3,3,0,0,1,3-3H73.9m0-2H43.1a5,5,0,0,0-5,5,5.1,5.1,0,0,0,5,5H73.9a5.1,5.1,0,0,0,5-5,5,5,0,0,0-5-5Z" fill="#bc353b"/><path d="M73.9,50.6H43.1a3.1,3.1,0,0,1-3-3,3,3,0,0,1,3-3H73.9a3,3,0,0,1,3,3A3.1,3.1,0,0,1,73.9,50.6Z" fill="#661f24"/><path d="M58.5,50.6h4.6c-.4-.7-2.3-1.2-4.6-1.2s-4.2.5-4.6,1.2Z" fill="#ee98b8"/><polygon points="71.5 44.6 68.1 44.6 69.8 48 71.5 44.6" fill="#fff"/><polygon points="48.9 44.6 45.5 44.6 47.2 48 48.9 44.6" fill="#fff"/><path d="M93,56.5l1.5,1.3V45.2a11.9,11.9,0,0,0-1.5-.9Z" fill="#bc353b"/><path d="M24,56.5l-1.5,1.3V45.2a11.9,11.9,0,0,1,1.5-.9Z" fill="#bc353b"/><path d="M65.4,27.4,77,31.6a4.5,4.5,0,0,1-.4,2,6.3,6.3,0,0,1-6.1,4.3,5.7,5.7,0,0,1-2.2-.4,6.5,6.5,0,0,1-3.9-8.3,5.2,5.2,0,0,1,1-1.8M65,26.2l-.4.6a5.6,5.6,0,0,0-1.1,2,7.8,7.8,0,0,0,.2,5.8,7.4,7.4,0,0,0,4.2,3.8,8,8,0,0,0,2.6.5A7.7,7.7,0,0,0,77.6,34a9.3,9.3,0,0,0,.4-2.3v-.8l-.7-.2L65.7,26.5l-.7-.3Z" fill="#bc353b"/><path d="M51.7,27.4a4,4,0,0,1,1,1.8,6.4,6.4,0,0,1-3.9,8.3,5.4,5.4,0,0,1-2.2.4,6.6,6.6,0,0,1-6.5-6.3l11.6-4.2m.4-1.2-.7.3L39.8,30.7l-.7.2v.8a9.5,9.5,0,0,0,.5,2.3,7.4,7.4,0,0,0,9.6,4.4,6.9,6.9,0,0,0,4.2-3.8,7.3,7.3,0,0,0,.3-5.8,8.2,8.2,0,0,0-1.2-2l-.4-.6Z" fill="#bc353b"/></svg>