<?xml version="1.0" encoding="utf-8"?>
<!-- Generator: Adobe Illustrator 25.2.2, SVG Export Plug-In . SVG Version: 6.00 Build 0)  -->
<svg version="1.2" baseProfile="tiny" id="OBJECTS" xmlns="http://www.w3.org/2000/svg" xmlns:xlink="http://www.w3.org/1999/xlink"
	 x="0px" y="0px" viewBox="0 0 213.4 164.5" overflow="visible" xml:space="preserve">
<g>
	<g>
		<path fill="#5DAD83" d="M213.2,87.3c-1.4-6.7-8.7-9.3-13.6-12.9c-9.7-6.9-19.8-12.7-30.4-17.8c-18.9-9.1-36.9-14.2-56.6-4.9
			c-10.1,4.7-20.2,9.5-30.3,14.2c-15.9,7.5-31.6,16.4-46.5,25.9c-7.3,4.7-14.6,9.6-21.4,14.9c-4.7,3.7-10.8,7.9-13.4,13.6
			c-4,8.6,5.7,13.5,11.5,16.6c8.8,4.8,17.6,10,26.5,14.9c9.5,5.3,19.6,9.8,30.3,11.8c20.3,3.9,37.9-5.3,55.4-14.7
			c2.5,0,7.3-3.9,9.6-5.2c3.7-2,7.4-4,11.1-6c7.4-4,14.8-8,22.2-12c11-5.9,23.5-11.8,33-20.2C205.1,101.5,214.7,94.6,213.2,87.3z"/>
		<path fill="#478765" d="M213.2,87.4c-0.1-0.7-0.4-1.4-0.6-2c-6.6,10.4-19.4,16.9-22.9,20.2c-4.2,3.9-86.7,47.5-99.4,50.4
			c-12.6,2.9-20.6,2.9-52.6-15.7C17,128.2,7.3,120.6,3,116.7c-0.8,1.1-1.5,2.2-2.1,3.4c-4,8.6,5.7,13.5,11.4,16.6
			c8.8,4.8,17.6,10,26.5,15c9.5,5.4,19.6,9.8,30.3,11.8c20.2,3.9,37.9-5.2,55.4-14.6c2.5,0,7.3-3.9,9.6-5.2c3.7-2,7.4-4,11.1-6
			c7.4-4,14.8-8,22.2-11.9c11-5.9,23.5-11.7,33-20.2C205.1,101.6,214.7,94.7,213.2,87.4z"/>
	</g>
	<g>
		<path fill="#5DAD83" d="M171.4,96.6C180.7,95,201,76.9,204.3,72c-18.3-23-61.1-35.2-61.1-35.2c-21.1,0.4-39.4,24.9-39.4,24.9
			c-0.2,1.3,0.2,2.8,1.1,4.4C116.5,72.5,163.3,98.1,171.4,96.6z"/>
		<path fill="#478765" d="M171.4,96.6c-8.1,1.4-54.9-24.1-66.6-30.5c8.6,15.3,64.1,40.1,64.1,40.1C196.3,94.4,204.3,72,204.3,72
			C201,76.9,180.7,95,171.4,96.6z"/>
	</g>
	<g>
		<path fill="#FFFFFF" d="M165.3,74.3c-0.1,0.3-0.2,0.5-0.6,0.3C164.9,74.5,165.1,74.3,165.3,74.3z"/>
		<g>
			<path fill="#FFD0B3" d="M128.7,75.4l-7.7,3.8c0,0,8.5,7.9,8.9,7.5c0.4-0.3,3.4-7.5,3.4-7.5L128.7,75.4z"/>
			<path fill="#FFD0B3" d="M145.9,30.1c2.2-0.2,4.3,0.2,6.3,0.8c2.7,0.7,5.5,1.2,8.1,2.1c0.9,0.3,1.8,0.6,2.7,0.8
				c1.6,0.3,2.9,1.2,4.1,2.1c2.2,1.7,4.2,3.6,6.1,5.7c2.1,2.3,3.9,4.8,4.7,7.8c0.4,1.5,1,3,1.4,4.5c0.7,2.6,0.6,5.2,0.1,7.8
				c-0.3,1.4-0.6,2.8-1.2,4.1c-0.6,1.5-1.4,3-2.4,4.3c-2,2.5-3.8,5.1-5.9,7.6c-2.3,2.7-5,5-8,6.9c-2.8,1.8-5.8,2.9-9.1,3.2
				c-0.9,0.1-1.8,0.2-2.7,0.2c-3.3,0.1-6.5-0.7-9.6-1.9c-3.8-1.5-7.1-3.7-10.3-6.2c-3.7-2.8-6.7-6.3-9-10.3c-1.4-2.5-2.3-5.2-2.9-8
				c-0.5-2.4-0.7-4.9-0.4-7.4c0.5-4.4,1.7-8.6,4.8-12c2.6-2.9,5.1-5.7,8.4-7.7c3.1-1.9,6.4-3.5,10.1-4
				C142.8,30.2,144.4,29.9,145.9,30.1z"/>
			<path fill="#F4B49B" d="M162.5,77.1c-0.2,0-0.4-0.1-0.6-0.1c-1.4-0.2-2.6-1.5-1.7-3.3c0.4-0.7,0.8-1.3,1.3-1.9
				c1.4-1.5,2.4-3.2,3.3-4.9c1.4-2.7,2.9-5.3,3.9-8.1c0.1-0.2,0.2-0.5,0.3-0.7c0.2-0.5,0.2-0.9-0.3-1.2c-1-0.6-1.8-1.4-2.5-2.2
				c-1.9-2-2.8-4.4-2.3-7.2c0.2-0.9,0.1-1-0.9-1.2c-2.8-0.6-5.4-1.7-7.8-3.4c-1-0.7-1.9-1.4-2.6-2.5c-0.8-1.3-1.1-2.6-1-4.1
				c0.1-0.9,0-0.9-0.9-1c-2.9-0.2-5.9-0.4-8.8-0.7c-1.3-0.1-2.5-0.4-3.7-0.9c-0.6-0.2-1-0.6-1.4-1.1c-0.6-0.8-0.4-1.7,0.6-2
				c0.4-0.1,0.7-0.1,1.1-0.1c2.6,0,5.2-0.1,7.8,0.1c2.8,0.2,5.6,0.2,8.4,0.2c0.8,0,1.5,0.2,2.1,0.7c0.8,0.7,0.9,1.7,0.2,2.5
				c-0.1,0.1-0.2,0.2-0.2,0.2c-0.4,0.4-1.1,0.6-1,1.4c0.1,0.9,0.2,1.8,0.9,2.5c0.9,1,2.2,1.6,3.4,2.2c1.5,0.8,3.2,1.2,4.9,1.6
				c1.6,0.4,3.2,0.8,4.6,1.7c0.7,0.4,1.2,1,1.5,1.7c0.4,1,0,1.7-1,2c-0.2,0.1-0.4,0.1-0.6,0.2c-1.2,0.2-1.1,0.1-1.1,1.3
				c0.1,1.3,0.8,2.3,1.8,3.2c1.1,1,2.3,1.8,3.6,2.5c0.8,0.5,1.6,1,2.3,1.6c0.5,0.5,0.9,1.1,1.2,1.8c0.3,0.7,0.2,1.1-0.5,1.4
				c-0.7,0.3-1.5,0.5-2.3,0.3c-0.4-0.1-0.8-0.2-1.1-0.3c-0.2,0.1-0.2,0.3-0.3,0.5c-1.3,4.6-3.6,8.7-6.2,12.7c-0.4,0.6-1,0.9-1.1,1.6
				c0,0,0,0,0,0c-0.2,0-0.4,0.2-0.6,0.3c-0.1,0.3-0.4,0.5-0.5,0.8C163.8,76.1,163.3,76.7,162.5,77.1z"/>
			<g>
				<g>
					<path fill="#F48A74" d="M152.7,74.2c1.6-0.1,2.8,0.5,3.8,1.5c0.4,0.4,0.8,0.7,1.1,1.1c2.7,3.1,0.6,6.2-1.9,7.2
						c-2.9,1.1-6.8-0.8-8-3.7c-1-2.3,0.2-4.6,2.3-5.5C150.9,74.4,151.8,74.1,152.7,74.2z"/>
					<path fill="#F48A74" d="M124.3,47c1.5,0,2.7,0.6,3.4,2c0.8,1.7,1.3,3.4,0.7,5.3c-0.7,2.3-2.7,3.2-4.8,2.1
						c-1.4-0.8-2.6-2-3.3-3.6c-0.5-1.1-0.5-2.2,0.1-3.3C121.4,48,122.5,46.9,124.3,47z"/>
				</g>
				<path fill="#D16651" d="M138.3,76.3c0,0.7-0.2,1.3-0.9,1.6c-0.7,0.3-1.3,0-1.8-0.4c-0.2-0.2-0.5-0.5-0.7-0.7
					c-2.1-2.4-4.3-4.7-6.7-6.7c-0.3-0.3-0.6-0.5-0.8-0.9c-0.5-0.9-0.7-1.8,0-2.7c0.3-0.4,0.4-0.9,0.7-1.2c0.4-0.5,0.7-0.6,1.3-0.3
					c0.4,0.2,0.8,0.5,1.1,0.9c1.2,1.2,2.5,2.5,3.7,3.8c1.4,1.4,2.6,3,3.5,4.7C138,74.9,138.2,75.6,138.3,76.3z"/>
				<g>
					<path fill="#F4B49B" d="M135.7,63.2c-0.8,0.1-1.7-0.1-2.4-0.6c-1-0.6-1.5-1.4-1.3-2.5c0.1-0.6,0-0.9-0.4-1.4
						c-0.3-0.5-0.6-1-0.4-1.6c0.4-1.4,1.8-2,3.1-1.3c0.2,0.1,0.4,0.2,0.5,0.4c1.4,1.4,3,1.4,4.7,0.7c1.5-0.6,2.8-1.6,3.8-2.8
						c0.5-0.6,0.8-1.2,1.5-1.6c0.7-0.4,1.3-0.1,1.4,0.7c0,0.4,0,0.8-0.1,1.2c-1.4,4.1-4.1,6.9-8.1,8.5
						C137.3,63.2,136.6,63.3,135.7,63.2z"/>
					<path fill="#954334" d="M132.6,56.2c-0.3,0.7,0,1.2,0.1,1.8c0.2,0.7,0.5,1.3,0.8,1.9c0.2,0.3,0.3,0.6,0.5,1
						c0.1,0.4,0.3,0.8,0,1.1c-0.4,0.4-0.8,0.4-1.3,0.2c-0.6-0.2-1-0.5-1.3-1c-1.4-1.9-1.7-3.9-1.1-6.1c0.5-1.7,1.9-2.2,3.3-1.1
						c1.1,0.8,2.2,1.5,3.6,1.7c1.9,0.3,3.6-0.1,5-1.5c0.5-0.4,0.9-0.9,1.3-1.3c0.5-0.5,1-0.9,1.6-1.4c0.4-0.3,0.8-0.8,1.3-0.3
						c0.4,0.4,0,0.9-0.3,1.3c-0.9,1.2-1.9,2.4-3,3.5c-2.5,2.3-6.1,2.4-8.8,1.1C133.8,56.8,133.2,56.5,132.6,56.2z"/>
				</g>
				<g>
					<g>
						<path fill="#5C3920" d="M164.7,64.3c0,2.3-1.6,3.2-3.4,2.3c-0.8-0.4-1.4-1-2.1-1.6c-2.1-2.3-4.1-4.7-5.9-7.2
							c-0.3-0.4-0.5-0.8-0.6-1.3c-0.2-0.9,0.1-1.6,1.1-1.8c0.9-0.2,1.8-0.2,2.7,0.3c2.1,1.2,4.2,2.5,6,4.2
							C164,60.7,164.3,62.6,164.7,64.3z"/>
						<path fill="#F4B49B" d="M153.8,60.7c0.8,0.1,1.5,0.4,1.9,1.1c0.6,0.8,1.1,1.6,1.6,2.5c0.5,0.8,0.4,1.8-0.2,2.5
							c-0.6,0.6-1.5,0.7-2.4,0.3c-1.3-0.6-2.3-1.6-2.9-2.9C151.2,62.4,151.9,60.9,153.8,60.7z"/>
						<path fill="#5C3920" d="M153.9,70c1.1-0.1,2.3-0.2,3.5-0.3c0.6-0.1,0.8,0.1,0.6,0.7c-0.3,0.8-0.8,1.3-1.5,1.7
							c-4.9,2.4-8.8-1.3-8.6-5.2c0.1-1.6,0.4-3.2,1-4.7c0.2-0.5,0.4-1,1-1c0.4,0,0.7,0.5,0.7,1.3c0,0.9-0.2,1.7-0.2,2.6
							c0,0.4-0.1,0.7-0.1,1.1C150.1,68.8,151.3,70.1,153.9,70z"/>
					</g>
					<g>
						<path fill="#F4B49B" d="M138,47c-0.6,0-1.1-0.2-1.5-0.7c-0.8-0.8-1.3-1.8-1.6-2.8c-0.3-1.4,0.3-2.5,1.6-2.8
							c0.8-0.2,1.4,0.2,2,0.7c0.7,0.7,1.2,1.6,1.6,2.4C140.9,45.5,139.8,47,138,47z"/>
						<path fill="#5C3920" d="M139.6,34.6c1.1,0,2.1,0.5,2.8,1.2c1.6,1.5,2.7,3.4,3.1,5.7c0.2,1.1,0.3,2.3,0.1,3.5
							c-0.2,1-0.8,1.4-1.8,1.2c-0.4-0.1-0.7-0.3-0.9-0.6c-2-2-3.7-4.2-5.1-6.5c-0.2-0.4-0.4-0.8-0.6-1.3
							C136.7,35.9,137.6,34.6,139.6,34.6z"/>
						<path fill="#5C3920" d="M134.2,53.1c-1.1,0-2.1-0.3-3.1-0.9c-1.4-0.9-2-2.2-1.5-3.8c0.5-1.7,1.3-3.3,2.1-4.9
							c0.2-0.3,0.4-0.6,0.7-0.8c0.9-0.6,1.8-0.1,1.9,0.9c0,0.4-0.1,0.8-0.2,1.2c-0.3,1.2-0.9,2.4-1.3,3.6c-0.3,0.9-0.3,1,0.6,1.4
							c0.5,0.2,1,0.3,1.5,0.4c0.5,0.1,1,0.2,1.5,0.4c1,0.4,1.1,0.8,0.3,1.6C136.1,52.9,135.2,53.1,134.2,53.1z"/>
					</g>
				</g>
			</g>
		</g>
		<g>
			<path fill="#F48A74" d="M162.5,77.1c1-0.5,1.6-1.4,2.2-2.4c0.2,0.1,0.5,0,0.6-0.4c2.9-1.2,6.2-2.2,9.5-2.8
				c6.2,2.1,1.6,11.9-2.6,13.3C168.3,87.5,155.6,81.7,162.5,77.1z"/>
			<path fill="#954334" d="M167.4,76.3c1.9,0.3,3.9,0.7,5.7,1.6c0.2,0.1,0.4,0.3,0.6,0.4c0.8,0.8,0.7,1.6-0.3,2.1
				c-0.4,0.2-0.9,0.3-1.4,0.2c-1.8-0.2-3.4-0.8-4.9-1.8c-0.2-0.2-0.5-0.4-0.6-0.6c-0.3-0.4-0.6-0.9-0.3-1.4
				C166.4,76.3,166.9,76.3,167.4,76.3z"/>
		</g>
		<g>
			<path fill="#5C3920" d="M154.6,33.3c-1.6-0.4-3.3-0.4-4.9-0.5c-3.6-0.3-7.1-0.6-10.7-0.5c-1.4,0.1-2.2-0.6-2.4-2
				c-0.5-2.2,0.2-4.1,2-5.5c1.6-1.3,3.4-1.9,5.5-1.8c0.5,0,0.8-0.1,0.9-0.7c0-0.4,0.2-0.7,0.3-1.1c1.4-4.1,4.3-5.8,8.3-5.6
				c2.9,0.2,5.3,1.5,7.4,3.4c1.7,1.5,3.3,3.1,4.9,4.6c0.3,0.3,0.6,0.4,1,0.5c1,0.2,2,0.2,3,0c1.3-0.3,2.6-0.6,3.9-0.9
				c1.8-0.4,3.6-0.3,5.4,0.3c1.2,0.4,2.1,1.1,2.8,2.2c1.2,2,1.6,4.1,0.9,6.4c-0.5,1.8-1.1,3.6-1.3,5.5c-0.1,0.6-0.1,1.2-0.1,1.8
				c0.1,1.1,0.4,1.5,1.5,1.8c0.8,0.2,1.5,0.3,2.3,0.5c0.8,0.2,1.7,0.4,2.5,0.6c2.1,0.7,3.1,2.2,3.3,4.3c0.2,1.7-0.1,3.4-0.8,4.9
				c-0.4,0.8-0.8,1.6-1.3,2.3c-1.1,1.6-1.6,3.4-1.6,5.3c0,1,0,1.9-0.2,2.9c-0.3,1.8-1.2,3.2-2.5,4.4c-0.6,0.5-1.2,1-1.8,1.3
				c-1.8,0.9-3,2.4-4.1,4c-0.3,0.4-0.5,0.8-0.8,1.2c-0.3,0.4-0.7,0.7-1.2,0.7c-4-0.1-7.5,1.4-10.9,3.1c-0.4,0.2-0.7,0.4-1.1,0.5
				c-0.4,0.2-0.7,0-0.9-0.4c-0.4-0.8-0.4-1.5,0.2-2.3c0.6-0.7,1.2-1.4,1.8-2c2.9-3,5.1-6.5,6.2-10.7c0.3-1.3,0.8-2.5,1.3-3.7
				c0.4-0.9,0.3-0.9-0.5-1.4c-0.5-0.3-1-0.6-1.5-0.9c-2.2-1.4-3.3-3.5-3.6-6.1c-0.1-1.1-0.1-2.2-0.1-3.3c-0.1-1.6-0.8-2.6-2.4-3
				c-0.9-0.3-1.9-0.4-2.8-0.7c-0.6-0.1-1.2-0.3-1.7-0.5c-3.7-1.3-5.8-4.3-5.8-8.3C154.6,34,154.6,33.7,154.6,33.3z"/>
			<g>
				<path fill="#463021" d="M154.3,19.9c1.8,0.1,3.6,0.8,5.1,2c1.1,0.9,2,1.9,2.9,2.9c0.6,0.7,0.7,1.2,0.4,1.4
					c-0.6,0.4-0.8-0.2-1.2-0.5c-0.7-0.7-1.4-1.4-2.2-2.1c-1.5-1.3-3.1-2-5.1-2c-2,0-3.6,0.8-4.7,2.6c-0.3,0.5-0.6,1-0.9,1.5
					c-0.1,0.2-0.3,0.5-0.5,0.6c-0.4,0.4-0.9,0.2-1-0.4c0-0.1,0-0.3,0-0.4c0.5-2,1.4-3.6,3.3-4.6C151.8,20.2,152.9,19.9,154.3,19.9z"
					/>
				<path fill="#463021" d="M183,60.3c-0.2,3.2-1.7,5.6-4.6,7c-0.3,0.2-0.7,0.3-1.1,0.2c-0.2,0-0.5-0.1-0.6-0.4
					c-0.1-0.3,0-0.5,0.2-0.7c0.3-0.3,0.7-0.6,1-0.8c1.3-1,2.4-2.2,2.9-3.7c0.5-1.3,0.6-2.7,0.2-4.1c0-0.1-0.1-0.3-0.1-0.4
					c0-0.5,0.3-0.8,0.8-0.5c0.4,0.2,0.6,0.5,0.7,0.8C182.8,58.5,183,59.4,183,60.3z"/>
				<path fill="#463021" d="M178.1,30c-0.8-0.6-1.5-1.2-2.4-1.5c-1.5-0.4-2.9-0.2-4.4,0.3c-1.2,0.5-2.2,1.1-3.2,1.8
					c-0.4,0.3-0.8,0.6-1.2,0.8c-0.3,0.1-0.5,0.1-0.7,0c-0.3-0.2-0.2-0.5-0.2-0.8c0.1-0.5,0.5-0.9,0.9-1.3c1.6-1.4,3.5-2.2,5.6-2.4
					c1.4-0.2,2.7,0,3.9,0.5c0.8,0.3,1.5,0.9,1.7,1.8C178.3,29.4,178.3,29.6,178.1,30z"/>
				<path fill="#463021" d="M155.6,25.1c1.7,0.2,3.2,1.1,4.4,2.6c0.2,0.2,0.3,0.5,0.1,0.7c-0.3,0.2-0.5,0-0.7-0.1
					c-0.7-0.5-1.4-0.8-2.2-1.1c-1.7-0.6-3,0-4.3,1c-0.4,0.3-0.8,0.8-1.2,1.1c-0.7,0.6-1.1,0.6-1.5,0.3c-0.4-0.4-0.4-1,0.1-1.7
					C151.6,26.2,153.3,25.2,155.6,25.1z"/>
				<path fill="#463021" d="M171.1,44.8c0,0.4,0,0.9,0.1,1.4c0.1,2,1,3.5,2.7,4.5c0.7,0.4,1.4,0.8,2.1,1.3c0.1,0.1,0.4,0.1,0.4,0.3
					c0,0.3-0.2,0.4-0.4,0.5c-0.6,0.3-1.2,0.1-1.8-0.1c-2.8-0.9-4.3-3-4.3-6.1c0-0.9,0.1-1.7,0.3-2.6c0.1-0.4,0.3-0.7,0.5-1
					c0.1-0.2,0.3-0.3,0.5-0.2c0.2,0.1,0.2,0.3,0.2,0.5C171.1,43.7,171.1,44.2,171.1,44.8z"/>
				<path fill="#463021" d="M160.6,32.2c0.3,0.4,0.2,0.8,0.2,1.1c0,1.8,0.9,3,2.3,4c1.1,0.8,2.3,1.3,3.5,1.6c0.2,0.1,0.5,0,0.5,0.3
					c0,0.3-0.1,0.5-0.4,0.6c-0.3,0.2-0.7,0.2-1.1,0.2c-2.3-0.4-4.1-1.5-5.3-3.5c-0.7-1.2-0.8-2.5-0.3-3.8c0.1-0.2,0.2-0.3,0.3-0.5
					C160.3,32.3,160.4,32.3,160.6,32.2z"/>
				<path fill="#463021" d="M175.6,42.2c-0.1,2.2,0.9,3.8,2.5,5.1c0.4,0.3,0.9,0.7,1.3,1c0.4,0.4,0.3,0.7-0.2,0.9
					c-0.3,0.1-0.7,0-1-0.1c-3-0.8-4.8-4.7-3.6-7.5c0.1-0.2,0.2-0.3,0.2-0.5c0.1-0.2,0.3-0.3,0.6-0.3c0.2,0.1,0.2,0.3,0.2,0.5
					C175.6,41.6,175.6,41.9,175.6,42.2z"/>
				<path fill="#463021" d="M186.9,49.1c0,1.5-0.3,2.8-1.1,3.9c-0.2,0.2-0.4,0.5-0.6,0.7c-0.2,0.2-0.5,0.3-0.7,0.1
					c-0.3-0.2-0.3-0.4-0.2-0.7c0.1-0.3,0.2-0.6,0.4-0.9c0.6-1.3,0.9-2.6,0.8-4c-0.1-1.1-0.3-2.1-1.2-2.8c-0.2-0.2-0.5-0.4-0.3-0.7
					c0.2-0.3,0.5-0.2,0.8-0.1c0.6,0.2,1,0.7,1.3,1.2C186.7,46.8,186.9,48,186.9,49.1z"/>
				<path fill="#463021" d="M178.7,59.3c0,2.8-1.6,4.6-3.8,6c-0.2,0.1-0.3,0.1-0.5,0.2c-0.5,0.1-0.8-0.3-0.5-0.8
					c0.1-0.2,0.2-0.4,0.4-0.5c0.3-0.3,0.5-0.5,0.8-0.7c1.7-1.3,2.4-3.1,2.3-5.2c0-0.3,0-0.5,0-0.8c0-0.2,0.1-0.5,0.3-0.6
					c0.3-0.1,0.5,0.1,0.6,0.4C178.7,57.9,178.8,58.6,178.7,59.3z"/>
				<path fill="#463021" d="M173.6,31.4c1.1,0.1,2.2,0.3,3,1.2c0.1,0.2,0.3,0.3,0.2,0.6c-0.2,0.3-0.4,0.2-0.7,0.1
					c-1.8-0.7-3.5-0.4-5.1,0.6c-0.5,0.3-1,0.6-1.4,0.8c-0.4,0.2-0.7,0.2-1-0.2c-0.2-0.3-0.2-0.6,0-0.9c0.3-0.6,0.8-0.9,1.4-1.2
					C171.1,31.7,172.3,31.5,173.6,31.4z"/>
				<path fill="#463021" d="M183.8,49.5c-0.1,1.2-0.4,2.3-1.3,3.2c-0.2,0.2-0.4,0.4-0.7,0.3c-0.3-0.1-0.2-0.5-0.2-0.7
					c0.1-0.4,0.2-0.9,0.4-1.3c0.4-1.2,0.5-2.3,0-3.5c-0.1-0.2-0.3-0.5,0-0.7c0.3-0.3,0.6,0,0.9,0.2
					C183.6,47.6,183.7,48.5,183.8,49.5z"/>
				<path fill="#463021" d="M166.9,37c-1.3,0-3.2-1.5-3.5-2.7c-0.1-0.2-0.1-0.4-0.1-0.7c0-0.3,0.3-0.5,0.5-0.2
					c0.9,1.2,2.2,1.8,3.4,2.5c0.2,0.1,0.7,0.2,0.6,0.6C167.7,36.9,167.2,36.9,166.9,37z"/>
			</g>
		</g>
	</g>
	<g>
		<path fill="#5DAD83" d="M109.7,8.7c-0.3-0.5-0.7-0.5-1-0.7c-2.6-1.3-5.2-2.5-8-3.4c-1.1-0.4-2.3-0.8-3.3-1.4
			c-0.4-0.2-0.8-0.5-1.1-0.9c-0.3-0.5-0.4-0.9-0.2-1.4C96.4,0.3,96.9,0,97.5,0c0.3,0,0.5,0,0.8,0.1c4.3,1.2,8.6,2.5,12.5,4.7
			c1,0.6,2,1.1,2.8,1.9c1.5,1.6,1.4,3.3-0.4,4.5c-2,1.3-4.2,2.4-6.4,3.3c-2.8,1.2-5.5,2.5-8.1,3.9c-0.2,0.1-0.4,0.3-0.6,0.4
			c0,0.3,0.2,0.3,0.3,0.3c3.3,0.7,6.6,1.4,9.9,1.8c0.5,0.1,1.1,0.1,1.6,0.1c0.4,0,0.8,0,1.2,0.2c0.8,0.3,1.2,0.9,1.3,1.8
			c0,0.8-0.5,1.6-1.3,1.9c-0.4,0.2-0.9,0.2-1.4,0.2c-1.2,0-2.5-0.1-3.7-0.4c-3.6-0.8-7.3-1.6-10.9-2.4c-0.5-0.1-1-0.3-1.4-0.5
			c-1.8-0.9-2.1-2.7-0.7-4.2c0.5-0.5,1.1-0.9,1.7-1.2c3.7-2.2,7.5-4,11.4-5.8C107.1,10,108.4,9.3,109.7,8.7z"/>
		<path fill="#5DAD83" d="M105.6,33.4c-0.8-0.4-1.5-0.9-2.2-1.3c-0.5-0.3-1-0.7-1.4-1.2c-0.3-0.4-0.4-0.9-0.1-1.3
			c0.3-0.5,0.8-0.5,1.3-0.4c0.2,0.1,0.4,0.1,0.6,0.2c1.6,0.7,3.3,1.5,4.9,2.3c1.7,0.8,1.8,2.2,0.4,3.4c-1,0.8-2.1,1.4-3.1,2.1
			c-0.5,0.3-1,0.7-1.5,1c0.2,0.4,0.5,0.3,0.7,0.3c1.1,0,2.3-0.1,3.4-0.2c0.7,0,1.3,0,1.9,0.3c1,0.3,1.6,1.2,1.5,2
			c0,0.9-0.7,1.6-1.7,1.9c-0.3,0.1-0.7,0.1-1.1,0.1c-1.9-0.1-3.7-0.3-5.5-0.9c-0.7-0.2-1.4-0.6-2-1.1c-0.6-0.5-0.8-1.2-0.7-2
			c0.1-0.9,0.6-1.6,1.2-2.3c0.7-0.8,1.5-1.5,2.4-2.1C104.9,34.1,105.3,33.9,105.6,33.4z"/>
	</g>
	<g>
		<g>
			<path fill="#FDF7D9" d="M152.6,108c-4.5-13.4-9.4-15.8-16.7-21.5c-12.6-10.6-23.2-14.3-34.9-17c-16.9-4.1-34,3.3-49.9,9.1
				c-13.6,7.3-42.2,22.2-40.9,37c0.3,7.2,6.7,10.8,12.4,13.8c11.5,7.1,21.4,9.9,31.4,15.6c7.3,4.8,15.7,7,24.2,8.6
				c9.2,0.5,25.2-8.4,28.2-10.5C137.7,119,158.2,126.4,152.6,108z"/>
			<path fill="#5DAD83" d="M11.3,109.5c-0.1-0.7,0.3-1.2,0.6-1.7c1-1.8,2.4-3.4,3.7-5c2.6-3.2,5.8-5.6,9.1-8.1
				c6.8-5.1,14.1-9.3,21.5-13.4c3.3-1.9,6.7-3.6,10.3-4.7c4.5-1.3,8.8-3.2,13.3-4.6c2.4-0.7,4.8-1.4,7.3-1.7
				c0.4-0.1,0.8-0.3,1.2-0.2c0.1,0.2,0.4,0.2,0.6,0.3c1.8,0.7,3.7,1.4,5.5,2.1c9.2,3.3,18.1,7.3,26.6,12.2c10.3,6,20,12.8,28.2,21.6
				c0.7,0.7,1.3,1.5,1.8,2.3c0.4,0.6,0.5,1.2,0.6,1.9c0.1,1.6-0.8,2.6-1.9,3.5c-2.5,2-5.2,3.8-8.1,5.3c-3.1,1.6-6.2,3.1-9.3,4.7
				c-6.1,3.2-12.2,6.3-18.5,9c-6.1,2.7-12.4,4.8-18.7,7c-3.9,1.3-7.8,2.7-11.8,3.7c-0.5,0-1,0-1.5,0c-3.3-1.1-6.6-2.3-9.7-3.8
				c-2.4-1.1-4.7-2.3-7.1-3.4c-5.7-2.6-11.4-5-16.9-7.9c-5.6-2.9-11.1-5.9-16.6-9c-2-1.1-3.7-2.4-5.1-4.3
				C14.8,113.1,13.1,111.3,11.3,109.5z"/>
		</g>
		<g>
			<path fill="#478765" d="M55.2,86.3c2.1,0,4-0.1,5.8,0.1c0.8,0.1,1,0.5,0.8,1.3c-0.3,1.2-0.8,2.4-1.3,3.6c-0.9,2.3-1.7,4.7-3,6.8
				c-0.4,0.6-0.8,1.2-1.2,1.8c-0.6,0.8-0.8,1-1.7,0.7c-3.6-0.9-6.4-2.7-8.2-6c-0.4-0.8-0.8-1.6-1.1-2.4c-0.4-1.1-0.8-2.2-1.2-3.3
				c-0.3-0.9-0.1-1.3,0.8-1.7c1.2-0.4,2.4-0.5,3.7-0.6C50.9,86.6,53.2,86.4,55.2,86.3z M47.6,92.7c0.1,0.2,0.1,0.4,0.2,0.5
				c0.2,0.3,0.4,0.6,0.6,0.9c0.6,0.9,0.6,0.9,1.5,0.3c2.3-1.6,4.7-3.2,7-4.8c0.1-0.1,0.3-0.2,0.4-0.5C54,90.3,50.8,91.5,47.6,92.7z
				 M45.6,88.7c0.3,0.8,0.6,1.4,0.9,2c0.2,0.4,0.4,0.4,0.8,0.2c1.5-0.7,3-1.2,4.6-1.8c1-0.4,2.1-0.8,3.1-1.1c0-0.1,0-0.1-0.1-0.2
				C51.8,87.9,48.7,87.9,45.6,88.7z M58.2,91.8c-0.7,0.6-4.9,5.5-5.2,6.1c0.5,0.2,1.1,0.4,1.6,0.7c0.4,0.2,0.6,0,0.8-0.3
				c0.5-1.1,1-2.1,1.4-3.2C57.2,94,57.7,93,58.2,91.8z M52.9,94.6c-0.1,0-0.1-0.1-0.2-0.1c-0.9,0.5-1.8,1.1-2.7,1.6
				c0.8,0.8,0.8,0.8,1.4,0.1C52,95.6,52.4,95.1,52.9,94.6z"/>
			<path fill="#478765" d="M32.7,112.5c-0.9,0-1.7-0.1-2.5-0.4c-1-0.4-1.2-0.7-1.1-1.7c0.3-2.8,0.5-5.7,1-8.5c0.3-1.7,0.6-3.5,1-5.2
				c0.1-0.4,0.2-0.8,0.4-1.1c0.2-0.5,0.5-0.5,1-0.3c2.3,1.3,4.4,2.9,6.6,4.3c1.3,0.9,2.5,1.8,3.7,2.7c0.1,0.1,0.3,0.2,0.4,0.4
				c0.4,0.3,0.9,0.3,1,0.9c0.1,0.7,0.2,1.3-0.1,1.9c-0.2,0.5-0.5,0.9-0.7,1.3c-0.3,0.4-0.6,0.8-0.7,1.3c0,0.2-0.1,0.4-0.3,0.4
				c-1.6,0.8-3,2.1-4.7,2.7C35.9,112.1,34.3,112.5,32.7,112.5z M41.6,106.2c0.4-0.3,0.5-0.6,0.7-0.9c0.5-1,0.4-1.2-0.5-1.9
				c-1.9-1.4-3.9-2.7-5.8-4.1c-0.2-0.1-0.3-0.4-0.7-0.3C37.2,101.6,39.5,103.8,41.6,106.2z M35.5,102.6c0.3,1.7,0.9,3.2,1.5,4.7
				c1.1,2.5,0.9,2.4,3.1,0.7c0,0,0-0.1,0.1-0.2C38.8,106,37.1,104.3,35.5,102.6z M33.9,110.6c0.7,0.1,1.3-0.2,2-0.3
				c0.4-0.1,0.4-0.4,0.2-0.7c-1.1-1.8-1.7-3.9-2.4-5.8c-0.1-0.3-0.1-0.6-0.4-0.8C33.3,105.5,34,108,33.9,110.6z M31.5,104.1
				c-0.1,0.7-0.2,1.3-0.3,1.8c-0.2,1.3-0.2,2.5-0.5,3.8c-0.3,1.3,0.1,1.1,1.1,1.2c0,0,0.1,0,0.1,0c0.5,0,0.6-0.1,0.5-0.6
				C32.1,108.2,31.9,106.3,31.5,104.1z"/>
			<path fill="#478765" d="M66.8,122.1c-3.6-0.2-6.2-1.8-7.7-5.2c-0.4-1-0.7-2.1-1.1-3.1c-0.2-0.7-0.1-1.1,0.6-1.4
				c0.3-0.2,0.7-0.3,1-0.4c3.5-1.3,7-2.6,10.5-3.9c0.9-0.3,1.7-0.6,2.6-0.7c1-0.2,1.4,0.2,1.4,1.3c0,0.7-0.1,1.3-0.3,1.9
				c-0.6,2.9-1.4,5.8-2.2,8.7c-0.4,1.5-1.3,2.4-2.8,2.6C68.2,122,67.5,122.1,66.8,122.1z M64.8,112.1c0.5-0.1,0.8-0.5,1.5-0.9
				c-0.8,0.3-1.4,0.4-1.9,0.7c-1.3,0.4-2.5,1-3.7,1.5c-1.2,0.5-0.9,0.4-0.6,1.4c0,0.2,0.1,0.3,0.4,0.4
				C61.8,114.1,63.3,113.2,64.8,112.1z M71.3,112.7c-1.6,2.6-3.4,5-4.8,7.9c1,0.1,1.8-0.1,2.7-0.1c0.3,0,0.4-0.2,0.4-0.5
				c0.1-1.2,0.5-2.3,0.8-3.5C70.8,115.2,71.2,114,71.3,112.7z M67.5,112.3c-0.3,0.2-0.7,0.4-1,0.6c-1.5,1-3,2-4.5,3
				c-1.4,1-1.4,1,0,2.4C63.7,116.2,65.7,114.4,67.5,112.3z M67.8,115c0-0.1-0.1-0.1-0.2-0.2c-1.5,1.5-3,3-4.5,4.6
				c0.4,0.2,0.6,0.4,0.9,0.5c0.4,0.2,0.7,0.2,1-0.3C65.9,118,66.9,116.5,67.8,115z"/>
			<path fill="#478765" d="M90.5,114.9c-4.4,0-7.9-3.9-7.6-8.5c0-0.5,0.2-0.8,0.6-1.1c0.5-0.3,0.9-0.6,1.4-0.8
				c2.9-1.4,5.8-2.7,8.7-4c0.8-0.3,1.5-0.7,2.4-0.8c0.8-0.2,1.1,0,1.2,0.8c0.1,0.6-0.1,1.2-0.2,1.7c-0.3,1.6-0.6,3.2-0.9,4.7
				c-0.4,2.4-1.4,4.6-2.2,6.9c-0.2,0.5-0.5,0.8-1.1,0.9C92,114.7,91.3,114.9,90.5,114.9z M93.6,108c-0.8,1.5-1.6,3-2.4,4.5
				c-0.1,0.2-0.3,0.4-0.2,0.7c1.2,0.1,1.2,0.1,1.5-0.9c0.4-1.3,0.9-2.7,1.2-4c0.3-0.3,0.2-0.7,0.3-1.1
				C93.8,107.4,93.7,107.7,93.6,108z M89.6,104.2c0.4-0.1,0.7-0.4,0.9-0.7c-0.5,0.1-0.8,0.2-1.2,0.5c-1.4,0.5-2.7,1.1-4,1.7
				c-1.2,0.6-1.2,0.6-0.9,1.9c0,0.1,0,0.3,0.3,0.4C86.4,106.8,88,105.5,89.6,104.2z M91.2,105c-0.3,0.2-0.7,0.4-1,0.7
				c-1.4,1.1-2.7,2.2-4.1,3.3c-1,0.8-1,0.8-0.2,1.8c0.1,0.1,0.2,0.2,0.3,0.5C87.8,109,89.8,107.3,91.2,105z M90.7,109.2
				c-1.1,0.9-2.1,1.9-2.9,3.1c1,0.6,1,0.6,1.3,0.1C89.7,111.4,90.2,110.3,90.7,109.2z"/>
			<path fill="#478765" d="M108.3,110.6c1.1,0,1.9,0.2,2.7,0.6c0.2,0.1,0.4,0.2,0.6,0.3c1,0.3,1.2,0.5,0.9,1.6
				c-0.6,2.6-1.6,5-2.4,7.5c-0.6,1.7-1.4,3.4-2.3,5c-0.1,0.2-0.2,0.4-0.3,0.6c-0.5,0.7-1.1,0.8-1.9,0.2c-0.3-0.2-0.5-0.5-0.7-0.7
				c-1.9-2.4-3.8-4.9-5.8-7.2c-0.3-0.3-0.5-0.7-0.8-1.1c-0.6-1.1-0.5-1.9,0.6-2.6c1.1-0.8,2.3-1.6,3.5-2.2c1.5-0.9,3.2-1.5,4.9-1.7
				C107.8,110.7,108.1,110.6,108.3,110.6z M106.6,120.5c-0.1-2.8-0.3-5.3-0.4-7.9c-0.3,0.1-0.5,0.1-0.7,0.2
				c-0.9,0.3-0.9,0.3-0.7,1.2c0.5,1.5,0.9,3.1,1.2,4.7C106.2,119.1,106.2,119.8,106.6,120.5z M101.2,114.8c-0.9,0.4-1.4,1-2,1.6
				c1.1,1,2.1,2,3.3,3.1C102,117.9,101.6,116.4,101.2,114.8z M103.9,118c0-1.3-0.4-2.6-0.6-3.9c0-0.2-0.1-0.5-0.4-0.4
				c-0.3,0.1-0.5,0.3-0.4,0.6C103,115.6,103.5,116.8,103.9,118z M108.1,115.7c0.4-1.1,0.3-2,0.5-2.9c0.1-0.3-0.1-0.5-0.4-0.5
				c-0.3,0-0.5,0.1-0.5,0.4c0,0.2,0,0.4,0.1,0.7C107.9,114.2,108,114.8,108.1,115.7z M109.8,115.1
				C109.9,115.1,109.9,115.1,109.8,115.1c0.3-0.6,0.6-1.2,0.8-1.9c0.1-0.4-0.1-0.5-0.4-0.6c-0.3-0.1-0.4,0.2-0.4,0.4
				C109.8,113.7,109.8,114.4,109.8,115.1z"/>
			<path fill="#478765" d="M78,125.2c0.3-2.7,1.7-5.1,4.4-6.7c1.1-0.7,2.1-0.7,3.3-0.1c1.9,0.9,3.9,1.8,5.7,3c1.5,0.9,3,1.7,4.5,2.5
				c0.4,0.2,0.7,0.4,1,0.6c0.4,0.3,0.8,0.6,0.7,1.1c-0.1,0.5-0.5,0.8-0.9,1c-0.2,0.1-0.4,0.2-0.6,0.2c-2.5,0.4-5,1.1-7.5,1.7
				c-2.7,0.6-5.4,1-8.1,1.4c-1,0.2-1.3,0-1.7-1C78.5,127.8,78.1,126.7,78,125.2z M90,124.4c0-0.2-0.2-0.2-0.3-0.2
				c-2.3-0.7-4.7-1.2-6.9-2c-1.5-0.5-1.5-0.6-2.2,1c-0.1,0.2-0.2,0.3,0,0.5C83.7,124.2,86.8,124.3,90,124.4z M89.8,122.5
				c-0.5-0.3-1-0.6-1.5-0.9c-1.1-0.6-2.3-1.2-3.4-1.8c-1.2-0.7-1.2-0.7-2.1,0.3c-0.1,0.1-0.3,0.2-0.3,0.5
				C84.8,121.4,87.3,121.8,89.8,122.5z M87.7,125.8c-2.5-0.2-4.7-0.4-6.9-0.8c-0.4-0.1-0.7-0.1-0.7,0.5c0,0.5,0.1,0.7,0.6,0.6
				C82.9,126.1,85.2,126.2,87.7,125.8z M85.1,127.1c-1.5,0-3,0-4.5,0c-0.4,0-0.5,0.1-0.5,0.5c0,0.4,0.2,0.5,0.6,0.4
				C82.2,127.7,83.6,127.6,85.1,127.1z"/>
			<path fill="#478765" d="M69.8,90.6c1.7,0.2,3.3,0.5,4.9,1c2,0.5,4,1.1,6,1.6c0.3,0.1,0.6,0.1,0.8,0.3c1,0.4,1.2,1.2,0.6,2
				c-0.3,0.4-0.7,0.8-1,1.1c-1.9,2-4,3.6-6,5.4c-0.8,0.7-1.9,1.1-2.7,1.8c-0.3,0.3-0.7,0.2-1,0c-3.2-1.4-5.7-3.9-5.3-7.8
				c0.1-0.8,0.1-1.5,0.4-2.3c0.4-1.1,1-2.1,2-2.8C68.8,90.7,69.3,90.5,69.8,90.6z M76.6,95.2c-2.3,0-4.5,0-6.7,0
				c-1.7,0-1.7,0-1.6,1.7c0,0.1,0,0.1,0,0.2c0.1,0.8,0.1,0.8,0.9,0.6c2.4-0.7,4.7-1.4,7.1-2.1C76.4,95.6,76.5,95.6,76.6,95.2z
				 M74.1,93.6c-0.1-0.1-0.1-0.1-0.2-0.2c-1.5-0.5-3-0.6-4.5-1c-0.2-0.1-0.4,0-0.5,0.2c-0.1,0.3-0.4,0.6-0.3,1
				C70.5,93.6,72.3,93.6,74.1,93.6z M69.3,99.4c0.7,0.9,0.7,0.9,1.5,0.5c0.4-0.2,0.8-0.4,1.2-0.7c0.5-0.3,1.1-0.6,1.5-1
				C72.1,98.6,70.7,98.9,69.3,99.4z M71.4,101.2c0.8,0.7,0.8,0.7,1.3,0.3c0.7-0.5,1.4-1.1,1.8-1.9C73.5,100.2,72.5,100.7,71.4,101.2
				z"/>
			<path fill="#478765" d="M91.8,80.8c0.4,0.2,0.8,0,1.3,0c4.4-0.3,8.2,2.1,9.8,6.2c0.4,1,0.3,1.4-0.6,2c-0.1,0.1-0.2,0.2-0.4,0.2
				c-3.2,1.6-6.4,3.4-9.8,4.7c-0.4,0.2-0.8,0.4-1.1,0.6c-0.7,0.5-1.2,0.3-1.3-0.6c-0.1-0.8-0.1-1.5-0.1-2.3c0.2-2.5,0.4-5.1,0.8-7.6
				c0.1-0.6,0.2-1.1,0-1.7C90.3,81.6,91.1,80.8,91.8,80.8z M94.3,82.7c-0.5-0.2-0.9-0.1-1.2-0.1c-0.5,0-0.7,0.2-0.7,0.7
				c-0.1,0.9-0.2,1.9-0.2,2.8c0,0.3,0,0.7,0,1c0.1,0,0.1,0,0.2,0C92.9,85.7,93.5,84.3,94.3,82.7z M100.2,86.5
				c-1.2,0.9-2.2,1.9-3.2,3.1c1.2-0.5,2.4-1.2,3.6-1.8c0.3-0.2,0.4-0.4,0.2-0.7C100.5,86.8,100.5,86.6,100.2,86.5z M97.4,83.7
				c-0.3-0.4-0.6-0.4-0.9-0.6c-0.3-0.1-0.4,0-0.5,0.2c-0.4,1.1-0.9,2.3-1.3,3.4C95.7,85.8,96.6,84.8,97.4,83.7z M98.1,86.3
				c0,0,0.1,0.1,0.1,0.1c0.4-0.3,0.7-0.6,1.1-0.9c0.2-0.2,0.1-0.4,0-0.5c-0.2-0.2-0.3,0-0.4,0.1C98.6,85.5,98.3,85.9,98.1,86.3z"/>
			<path fill="#478765" d="M128.5,113.7c-2.5-0.3-5.2-0.5-7.9-0.7c-1.3-0.1-2.5-0.2-3.8-0.4c-0.5,0-1.1,0-1.3-0.6
				c-0.2-0.6-0.1-1.1,0.4-1.6c1.4-1.5,2.8-3.1,4.3-4.6c1.1-1.1,2.2-2.3,3.5-3.1c0.4-0.3,0.7-0.7,1.1-1.1c0.3-0.3,0.7-0.4,1.2-0.3
				c2.6,0.5,3.8,2.5,4.8,4.6c0.9,2,1.2,4.2,0.1,6.3c-0.2,0.4,0,0.9-0.5,1.2C129.7,113.7,129.2,113.7,128.5,113.7z M121.9,111.6
				c1.3,0.1,2.5,0.2,3.8,0.3c0.9,0.1,1.8,0.1,2.7,0.2c0.3,0,0.6,0.1,0.7-0.3c0.2-0.6,0.5-1.2,0.2-1.9
				C126.9,110.6,124.4,110.9,121.9,111.6z M121.5,110.1c2.6-0.3,5-1.1,7.5-1.6c0.4-0.1,0.5-0.2,0.4-0.6c-0.1-0.3,0-0.6-0.3-0.8
				C126.6,108.2,124,109.1,121.5,110.1z M121.4,107.2c1.9-1.1,3.8-2.2,5.8-3.3c-1-0.8-1-0.8-2-0.3
				C123.6,104.5,122.5,105.9,121.4,107.2z M122.2,108.3c2.2-0.7,4.3-1.6,6.6-2.5c-0.4-0.4-0.3-1.2-1-0.8
				C125.9,106,124,107.1,122.2,108.3z"/>
			<path fill="#478765" d="M82.4,79.1c0,1.8-0.2,3.6-0.5,5.4c0,0.2-0.1,0.4-0.1,0.6c-0.3,0.9-0.8,1.1-1.6,0.8
				c-1.6-0.8-3.2-1.1-4.9-1.6c-1.9-0.6-3.8-1.1-5.7-1.6c-1.3-0.4-1.6-1-1-2.2c0.2-0.5,0.6-1,1-1.5c2-2.3,4.5-3.9,7.6-4.5
				c0.6-0.1,1.2-0.2,1.8-0.5c0.4-0.2,0.8-0.2,1.3-0.2c1.1,0.1,1.7,0.6,2,1.7C82.5,76.8,82.4,77.9,82.4,79.1z M73,78.9
				c1.2,0.6,2.2,1.2,3.3,1.8c-0.2-0.6-0.4-1.1-0.7-1.5C74.5,77.6,75,77.3,73,78.9z M70.8,81.4c1.1,0.3,2.1,0.6,3.5,0.7
				c-0.8-0.5-1.3-1-1.9-1.4c-0.8-0.6-0.8-0.6-1.4,0.2C70.9,81,70.8,81.1,70.8,81.4z M79.3,76.3c0.3,1.2,0.7,2.4,1,3.7
				c0.2-1.1,0.2-2.3,0.2-3.4c0-0.3-0.1-0.5-0.4-0.5C79.8,76.2,79.5,76.1,79.3,76.3z M76.3,77c0.6,0.9,1.2,1.7,1.8,2.6
				c0-0.9-0.2-1.8-0.4-2.6c-0.1-0.3-0.3-0.4-0.6-0.3C76.9,76.7,76.6,76.7,76.3,77z"/>
			<path fill="#478765" d="M106.2,90.5c1.8,0.1,3.4,0.6,5.1,0.7c2.4,0.2,4.7,0.8,7.1,0.8c0.7,0,1,0.6,0.6,1.1
				c-1.8,2.4-3.3,5.1-5.4,7.3c-0.4,0.4-0.7,0.8-1,1.3c-0.7,0.9-1.3,1.1-2.4,0.8c-0.3-0.1-0.6-0.2-0.9-0.4c-1-0.9-2.1-1.6-2.9-2.7
				c-1.4-1.7-1.9-3.7-1.5-6c0.1-0.5,0.2-1.1,0.2-1.6C105,90.8,105.3,90.4,106.2,90.5z M111.7,94.8c0-0.1,0-0.1-0.1-0.2
				c-1.6,0.2-3.2,0.5-4.7,0.7c-0.1,0-0.3,0.1-0.3,0.2c-0.1,0.3,0.3,1.6,0.5,1.7c0.4,0.2,0.6-0.2,0.8-0.3c0.6-0.3,1.2-0.6,1.7-0.9
				C110.3,95.5,111,95.2,111.7,94.8z M106.5,93.9c1.8-0.3,3.5-0.6,5.1-0.9c-1.4-0.3-2.8-0.5-4.1-0.6c-0.9-0.1-0.9,0-1,0.8
				C106.5,93.4,106.5,93.6,106.5,93.9z M114,96.7C113.9,96.7,113.9,96.6,114,96.7c-1,0.7-1.9,1.5-2.8,2.3c-0.4,0.3-0.7,0.6-1.1,0.9
				c-0.1,0.1-0.2,0.3-0.1,0.5c0.3,0.4,1,0.6,1.3,0.1C112.2,99.3,113.1,98,114,96.7z M110.1,97.9c0-0.1-0.1-0.1-0.1-0.2
				c-0.5,0.3-0.9,0.5-1.4,0.8c-0.2,0.1-0.4,0.2-0.2,0.5c0.2,0.2,0.4,0.1,0.5-0.1C109.4,98.6,109.7,98.2,110.1,97.9z"/>
			<path fill="#478765" d="M45.6,124.1c-1.8,0-3.2-0.7-4.4-1.8c-1.1-1.1-2-2.3-2.8-3.6c-0.6-0.9-0.3-1.6,0.7-1.9
				c2.8-0.7,5.4-2.2,8.1-3.3c0.7-0.3,1.4-0.6,2.2-0.7c1.7-0.4,2.3,0.2,2,1.9c-0.2,1.1-0.5,2.3-0.9,3.4c-0.5,1.5-1.1,2.9-1.6,4.4
				c-0.2,0.7-0.7,1-1.3,1.2C46.9,124,46.2,124,45.6,124.1z M45.3,118.3c-1.2,0.7-2.2,1.6-3.4,2.5c0.4,0.3,0.6,0.7,1.1,0.7
				C43.6,120.4,44.7,119.5,45.3,118.3L45.3,118.3L45.3,118.3z M40.1,118.3c0.1,0.5,0.5,0.8,0.8,1.2c0.2,0.3,0.4,0.3,0.6,0.1
				c1.3-1,2.7-2,3.9-3.2C43.7,117.1,42,117.9,40.1,118.3z M44.4,122.3c0.5,0.1,0.9,0.4,1.1,0c0.6-1,1.1-2,1.6-3
				c-0.1,0-0.1-0.1-0.2-0.1C46.1,120.2,45.3,121.2,44.4,122.3z M47.3,122.3c0-0.1-0.1-0.2-0.2-0.2c-0.1,0-0.1,0.1-0.2,0.2
				c0,0.1,0,0.2,0.1,0.2C47.2,122.6,47.3,122.4,47.3,122.3z"/>
			<path fill="#478765" d="M60.4,129.9c0.1-1.2,0.2-2.3,0.3-3.5c0.1-1,0.5-1.3,1.5-1.1c2.7,0.6,5.3,1.4,7.9,2.4
				c1.7,0.7,2.5,1.2,0.5,3.1c-1.5,1.5-3.2,2.7-4.9,4.1c-0.9,0.7-1.8,0.7-2.7,0.1c-1.6-0.9-2.3-2.4-2.5-4.2
				C60.4,130.5,60.5,130.2,60.4,129.9C60.5,129.9,60.5,129.9,60.4,129.9z M67.8,128.7c-1.8-0.6-3.5-1.3-5.3-1.6
				c0,0.3-0.1,0.5-0.1,0.8c-0.1,0.8-0.1,0.8,0.8,0.9C64.6,128.7,66.2,128.7,67.8,128.7z M66.7,132.2c-0.9,0.5-1.8,1-2.7,1.5
				C65.4,134,65.9,132.8,66.7,132.2z M65.3,131.4c-0.9,0.1-1.6,0.5-2.4,0.8c-0.2,0.1-0.3,0.2-0.2,0.4c0.1,0.2,0.3,0.2,0.5,0.1
				C63.9,132.2,64.6,131.8,65.3,131.4z M64.3,130.1c0,0,0-0.1,0-0.1c-0.6,0-1.1,0-1.7,0c-0.3,0-0.4,0.2-0.4,0.5
				c0.1,0.4,0.3,0.2,0.5,0.1C63.2,130.4,63.7,130.2,64.3,130.1z"/>
		</g>
	</g>
	<g>
		<g>
			<path fill="#FFD0B3" d="M104.2,75.1c-1.8,0.5-3.5,0.1-5.1-0.5c-1.7-0.7-3.5-1-5.3-1.3c-0.7-0.1-1.4-0.3-2.1-0.6
				c-1.6-0.7-2.2-2.2-1.4-3.8c0.9-1.7,2.2-3,4-3.9c2.2-1.1,4.5-1.6,6.9-1.2c2.9,0.6,5.5,1.9,7,4.7c0.4,0.8,0.6,1.6,0.4,2.5
				C108,73.3,106.6,74.8,104.2,75.1z"/>
			<g>
				<path fill="#F48A74" d="M99.3,66.2c0,0.3-0.2,0.4-0.4,0.5c-0.5,0.2-1,0.5-1.5,0.7c-1.5,0.9-2.7,2-3.6,3.6
					c-0.2,0.4-0.5,0.8-0.7,1.2c-0.2,0.3-0.5,0.7-1,0.4c-0.5-0.3-0.4-0.7-0.3-1.1c0-0.1,0.1-0.2,0.1-0.3c1.3-2.2,2.7-4.2,5.2-5.2
					c0.5-0.2,1-0.4,1.5-0.4C98.9,65.8,99.2,65.9,99.3,66.2z"/>
				<path fill="#F48A74" d="M103.4,68.6c0.1,0,0.2,0,0.3,0c0.4,0,0.8,0,0.9,0.4c0.2,0.4-0.2,0.7-0.5,0.9c-0.7,0.5-1.4,1-2,1.6
					c-0.6,0.7-1.2,1.4-1.6,2.2c-0.2,0.4-0.4,0.7-0.7,1c-0.2,0.2-0.5,0.3-0.8,0.1c-0.3-0.2-0.4-0.4-0.4-0.7c0-0.4,0.1-0.8,0.3-1.2
					c0.8-1.7,2.1-3.1,3.7-4C103,68.8,103.2,68.7,103.4,68.6z"/>
				<path fill="#F48A74" d="M100.3,67.1c0.4-0.1,0.8-0.1,0.9,0.4c0.1,0.4-0.1,0.6-0.4,0.8c-0.3,0.2-0.6,0.4-0.9,0.6
					c-1.4,0.9-2.5,2-3.2,3.5c-0.1,0.3-0.3,0.5-0.4,0.8c-0.1,0.2-0.3,0.3-0.6,0.2c-0.3-0.1-0.4-0.3-0.4-0.6c0-0.3,0.1-0.7,0.2-1
					c0.9-2.1,2.5-3.6,4.5-4.6C100.1,67.2,100.2,67.1,100.3,67.1z"/>
			</g>
		</g>
		<g>
			<path fill="#FFD0B3" d="M144.2,102.2c-1.9-0.1-3.3-1.1-4.6-2.2c-1.4-1.2-2.9-2.2-4.5-3.1c-0.6-0.4-1.2-0.8-1.8-1.3
				c-1.3-1.2-1.3-2.8,0-4c1.4-1.3,3.1-2.1,5.1-2.3c2.4-0.3,4.8,0,6.8,1.3c2.6,1.6,4.5,3.7,5,6.8c0.1,0.9,0,1.7-0.5,2.5
				C148.4,101.9,146.6,102.8,144.2,102.2z"/>
			<g>
				<path fill="#F48A74" d="M141.6,92.7c0.4,0.1,0.8,0.2,1.1,0.4c0.2,0.1,0.4,0.3,0.3,0.6c-0.1,0.3-0.3,0.3-0.5,0.3
					c-0.5,0-0.9,0-1.4,0c-1.7,0.1-3.2,0.6-4.4,1.8c-0.1,0.1-0.3,0.2-0.4,0.3c-0.3,0.2-0.7,0.2-1-0.1c-0.3-0.2-0.3-0.6-0.1-0.9
					c0.3-0.6,0.7-1.1,1.2-1.5c1.1-0.8,2.4-1,3.7-1.1C140.6,92.6,141.1,92.7,141.6,92.7z"/>
				<path fill="#F48A74" d="M143.6,95.1c0.3,0.1,0.7,0.1,0.9,0.3c0.3,0.2,0.5,0.5,0.4,0.9c-0.2,0.4-0.5,0.4-0.9,0.4
					c-0.5-0.1-1.1-0.1-1.6-0.1c-1.1,0.1-2.2,0.4-3.2,1c-0.1,0.1-0.3,0.2-0.5,0.3c-0.4,0.2-0.7,0.2-1-0.1c-0.2-0.3-0.2-0.7,0-1
					c0.4-0.6,1-0.9,1.7-1.2C140.5,95.2,142.4,95,143.6,95.1z"/>
				<path fill="#F48A74" d="M144.6,97.3c0.2,0,0.3,0,0.3,0c0.5,0.1,1,0.2,1.1,0.7c0,0.6-0.5,0.6-0.9,0.7c-1.4,0.3-2.7,0.6-4,1.2
					c-0.3,0.1-0.7,0.3-1-0.1c-0.2-0.4-0.1-0.7,0.1-1c0.2-0.3,0.5-0.6,0.9-0.8C142.3,97.5,143.5,97.3,144.6,97.3z"/>
			</g>
		</g>
	</g>
</g>
</svg>
