<?xml version="1.0" encoding="utf-8"?>
<!-- Generator: Adobe Illustrator 25.2.2, SVG Export Plug-In . SVG Version: 6.00 Build 0)  -->
<svg version="1.2" baseProfile="tiny" id="OBJECTS" xmlns="http://www.w3.org/2000/svg" xmlns:xlink="http://www.w3.org/1999/xlink"
	 x="0px" y="0px" viewBox="0 0 213.4 182.4" overflow="visible" xml:space="preserve">
<g>
	<g>
		<path fill="#4E798D" d="M113.9,9.3c-1.2-0.9-2.4-1.5-3.5-2.2c-1.2-0.8-2.5-1.5-3.7-2.3c-0.6-0.4-1.1-0.9-1.5-1.4
			c-0.3-0.4-0.6-0.9-0.7-1.4c-0.2-0.8,0.1-1.4,0.7-1.8c0.6-0.4,1.2-0.3,1.8,0.2c0.8,0.7,1.6,1.3,2.6,1.9c2.1,1.2,4.2,2.5,6.3,3.8
			c0.7,0.4,1.3,0.8,1.9,1.3c1.4,1.2,1.4,2.7-0.1,3.9c-0.6,0.4-1.2,0.7-1.8,0.9c-2,0.8-4,1.5-6,2c-0.2,0-0.4,0.1-0.5,0.4
			c1.4,0.4,2.7,0.8,4.1,1.2c0.7,0.2,1.5,0.3,2.2,0.5c0.7,0.2,1.5,0.4,2.1,0.8c0.6,0.4,1,1,0.8,1.8c-0.2,0.8-0.7,1.2-1.4,1.4
			c-0.5,0.1-1,0.1-1.5,0c-3.4-0.9-6.7-1.7-10-3c-0.6-0.2-1.2-0.5-1.7-0.8c-1.3-1-1.4-2.4-0.3-3.6c0.6-0.6,1.3-0.9,2-1
			c2.5-0.5,5-1.3,7.3-2.2C113.2,9.5,113.5,9.4,113.9,9.3z"/>
		<path fill="#4E798D" d="M106.4,35c0.7,0.5,1.4,0.9,2.1,1.2c0.5,0.2,0.9,0.4,1.3,0.8c0.4,0.3,0.7,0.7,0.5,1.3
			c-0.2,0.5-0.8,0.8-1.5,0.7c-0.4-0.1-0.8-0.2-1.1-0.4c-1.3-0.7-2.4-1.6-3.6-2.5c-0.3-0.2-0.5-0.5-0.7-0.8c-0.5-0.9-0.3-1.7,0.6-2.2
			c0.3-0.2,0.7-0.2,1-0.3c1.1-0.3,2.1-0.5,3.1-1c0.7-0.3,0.8-0.4,0.3-1.2c-0.2-0.4-0.5-0.8-0.7-1.2c-0.4-0.6-0.6-1.3-0.6-2.1
			c0-0.8,0.4-1.3,1-1.4c0.7-0.2,1.1,0.2,1.5,0.7c0.7,1.1,1.4,2.1,2.1,3.2c0.2,0.2,0.3,0.5,0.3,0.8c0.4,1.3,0,2.5-1.2,3.2
			c-1.1,0.6-2.3,0.8-3.6,1C107.1,34.7,106.7,34.6,106.4,35z"/>
	</g>
	<g>
		<path fill="#6FA4BD" d="M213.2,104.9c-1.4-6.7-8.7-9.3-13.6-12.9c-9.7-6.9-19.8-12.7-30.4-17.8c-18.9-9.1-36.9-14.2-56.6-4.9
			c-10.1,4.7-20.2,9.5-30.3,14.2c-15.9,7.5-31.6,16.4-46.5,25.9c-7.3,4.7-14.6,9.6-21.4,14.9c-4.7,3.7-10.8,7.9-13.4,13.6
			c-4,8.6,5.7,13.5,11.5,16.6c8.8,4.8,17.6,10,26.5,14.9c9.5,5.3,19.6,9.8,30.3,11.8c20.3,3.9,37.9-5.3,55.4-14.7
			c2.5,0,7.3-3.9,9.6-5.2c3.7-2,7.4-4,11.1-6c7.4-4,14.8-8,22.2-12c11-5.9,23.5-11.8,33-20.2C205.1,119.1,214.7,112.2,213.2,104.9z"
			/>
		<path fill="#4E798D" d="M213.2,105c-0.1-0.7-0.4-1.4-0.6-2c-6.6,10.4-19.4,16.9-22.9,20.2c-4.2,3.9-86.7,47.5-99.4,50.4
			c-12.6,2.9-20.6,2.9-52.6-15.7C17,145.8,7.3,138.2,3,134.3c-0.8,1.1-1.5,2.2-2.1,3.4c-4,8.6,5.7,13.5,11.4,16.6
			c8.8,4.8,17.6,10,26.5,15c9.5,5.4,19.6,9.8,30.3,11.8c20.2,3.9,37.9-5.2,55.4-14.6c2.5,0,7.3-3.9,9.6-5.2c3.7-2,7.4-4,11.1-6
			c7.4-4,14.8-8,22.2-11.9c11-5.9,23.5-11.7,33-20.2C205.1,119.2,214.7,112.3,213.2,105z"/>
	</g>
	<g>
		<path fill="#6FA4BD" d="M169.7,117.2c9.3-1.6,29.6-19.8,32.9-24.6c-18.3-23-61.1-35.2-61.1-35.2c-21.1,0.4-39.4,24.9-39.4,24.9
			c-0.2,1.3,0.2,2.8,1.1,4.4C114.8,93.1,161.6,118.7,169.7,117.2z"/>
		<path fill="#4E798D" d="M169.7,117.2c-8.1,1.4-54.9-24.1-66.6-30.5c8.6,15.3,64.1,40.1,64.1,40.1c27.3-11.8,35.3-34.1,35.3-34.1
			C199.3,97.5,179,115.6,169.7,117.2z"/>
	</g>
	<g>
		<g>
			<g>
				<g>
					<path fill="#FFD0B3" d="M97.2,76c-0.2-0.6-0.5-1.2-0.7-1.8c-0.3-0.7-0.4-1.4-0.3-2.1c0.1-0.7,0.5-1.2,1.2-1.4
						c0.7-0.2,1.2,0,1.7,0.5c0.9,0.8,1.4,1.8,1.6,3c0.3,1.7,0.6,3.4,0.8,5.1c0.2,1.5-0.1,3.1-1.6,4c-0.1,0.1-0.2,0.1-0.3,0.2
						c-1.2,1.6-2.9,1.3-4.4,1c-1.8-0.3-3.7-0.9-5.5-1.4c-0.2-0.1-0.4-0.1-0.6-0.2c-0.8-0.3-1-0.7-0.7-1.5c0.1-0.4,0.2-0.6-0.2-0.9
						c-0.8-0.8-0.6-1.7,0.5-2.1c0.2-0.1,0.3-0.1,0.5-0.2c-1.1-1.3-0.9-2.1,0.8-2.4c-0.1-0.3-0.2-0.5-0.2-0.8c-0.1-1,0.3-1.5,1.4-1.5
						c1.3,0,2.5,0.6,3.5,1.3c0.7,0.5,1.4,1.1,2.3,1.5C97.1,76.2,97.1,76.1,97.2,76z"/>
					<g>
						<path fill="#F48A74" d="M89.6,77.1c1.5,0.4,3,1,4.3,1.8c0.2,0.1,0.4,0.4,0.2,0.7c-0.1,0.3-0.4,0.3-0.7,0.2
							c-0.3-0.1-0.6-0.2-0.9-0.3c-0.9-0.4-1.7-0.7-2.6-1c-0.2-0.1-0.5-0.2-0.7-0.3c-0.3-0.1-0.6-0.3-0.6-0.7
							C88.6,77.3,89.1,77.1,89.6,77.1z"/>
						<path fill="#F48A74" d="M96.3,77.4c0-0.4,0.2-1,0.5-1.4c0.2-0.3,0.5-0.4,0.9-0.2c0.3,0.2,0.4,0.5,0.3,0.8
							c-0.5,1.1-0.2,2.1,0.5,3c0.1,0.2,0.2,0.4,0,0.6c-0.2,0.2-0.5,0.1-0.7,0C96.9,79.8,96.3,78.7,96.3,77.4z"/>
						<path fill="#F48A74" d="M89.3,79.8c0.2,0.1,0.5,0.1,0.7,0.2c0.9,0.3,1.7,0.6,2.5,1c0.3,0.1,0.7,0.3,1,0.5
							c0.2,0.2,0.5,0.4,0.3,0.7c-0.2,0.3-0.5,0.2-0.7,0.1c-1.3-0.4-2.6-0.9-3.9-1.3c-0.1,0-0.1,0-0.2-0.1c-0.3-0.2-0.7-0.3-0.6-0.7
							C88.5,79.7,88.9,79.8,89.3,79.8z"/>
						<path fill="#F48A74" d="M90.6,75.1c0.9,0.2,1.7,0.7,2.5,1.1c0.5,0.2,0.9,0.5,1.3,0.8c0.2,0.1,0.4,0.3,0.3,0.6
							c-0.2,0.3-0.4,0.2-0.7,0.1c-1.3-0.6-2.5-1.2-3.7-1.8c-0.2-0.1-0.5-0.2-0.4-0.5C90,75,90.3,75,90.6,75.1z"/>
					</g>
				</g>
				<g>
					<path fill="#FFD0B3" d="M180.2,131.4c1.1,0.4,2.3,0.9,3.4,1.3c0.6,0.3,1.3,0.6,1.9,0.9c0.6,0.3,0.8,0.9,0.6,1.5
						c-0.2,0.6-0.7,0.7-1.2,0.7c-0.5,0-0.9-0.2-1.5-0.2c0.1,0.5,0.5,0.7,0.7,1c0.3,0.4,0.6,0.7,0.7,1.2c0.2,1.1-0.5,1.8-1.6,1.5
						c-0.8-0.2-1.5-0.6-2.2-1c-0.2-0.1-0.3-0.2-0.5-0.1c0,0.5,0.3,0.6,0.6,0.9c0.4,0.4,0.8,0.9,1.1,1.5c0.3,0.6,0.3,1.3-0.1,1.6
						c-0.4,0.4-0.9,0.5-1.6,0.2c-0.3-0.1-0.6-0.4-0.9-0.6c-0.2-0.1-0.4-0.3-0.6-0.1c-0.2,0.1,0,0.3,0,0.5c0.1,0.4,0.4,0.9,0,1.3
						c-0.5,0.5-1.1,0.7-1.9,0.3c-0.6-0.3-1.1-0.8-1.6-1.3c-1.6-1.6-3.2-3.3-5.2-4.5c-1.6-0.9-3.1-2.1-4.7-3
						c-1.4-0.9-2.3-2.2-3.4-3.4c-0.8-0.9-1.2-2.2-0.4-3.4c0.8-1.1,1.9-1.7,3.3-2c1.5-0.3,2.8,0.2,4.1,0.6c2.5,0.8,5,1.3,7.6,1.6
						c1.4,0.2,2.8,0.2,4.2,0.4c0.8,0.1,1.2,0.3,1.2,0.8c0.1,0.6-0.3,1.2-1,1.3c-0.4,0.1-0.7,0.3-1.2,0.2
						C180.2,131.3,180.2,131.3,180.2,131.4z"/>
					<g>
						<path fill="#F48A74" d="M170.8,127.7c0,0.2-0.1,0.4-0.3,0.6c-1.6,1.4-2.5,3.2-3.4,5c-0.3,0.7-0.7,1-1.1,0.8
							c-0.4-0.2-0.4-0.6-0.1-1.4c0.8-2.1,2.1-3.8,3.9-5.2c0.2-0.1,0.4-0.2,0.6-0.3C170.5,127.3,170.8,127.5,170.8,127.7z"/>
						<g>
							<path fill="#F48A74" d="M175.6,133.1c-1.4-0.1-2.7-0.6-3.8-1.6c-0.2-0.2-0.4-0.4-0.5-0.7c-0.1-0.2,0-0.4,0.1-0.6
								c0.2-0.2,0.4-0.2,0.6-0.1c0.4,0.2,0.7,0.4,1.1,0.7c0.9,0.6,1.8,1,2.9,1c0.7,0,1.4-0.2,2-0.6c0.2-0.1,0.4-0.2,0.6-0.3
								c0.3-0.1,0.6-0.2,0.9,0.1c0.3,0.4,0,0.6-0.3,0.8C178.2,132.6,177.1,133.1,175.6,133.1z"/>
							<path fill="#F48A74" d="M179.3,133.2c0.2,0,0.6,0.1,0.9,0.2c1.3,0.6,2.5,1.1,3.8,1.7c0.2,0.1,0.3,0.2,0.5,0.3
								c0.2,0.1,0.4,0.3,0.2,0.5c-0.1,0.2-0.3,0.2-0.5,0.1c-0.3-0.1-0.6-0.2-0.9-0.4c-1.2-0.6-2.5-1.2-3.8-1.6
								c-0.1,0-0.3-0.1-0.4-0.2c-0.2-0.1-0.5-0.2-0.4-0.5C178.7,133.2,178.9,133.2,179.3,133.2z"/>
							<path fill="#F48A74" d="M179.9,141.8c-0.4,0.1-0.7-0.1-1-0.3c-0.9-0.7-1.8-1.3-2.7-2c-0.2-0.1-0.3-0.3-0.4-0.5
								c-0.1-0.2-0.1-0.3,0-0.5c0.1-0.1,0.3-0.3,0.5-0.1c1.4,0.9,3,1.6,3.7,3.3C179.9,141.7,179.9,141.7,179.9,141.8z"/>
							<path fill="#F48A74" d="M182.4,138.7c0,0.2-0.1,0.3-0.3,0.2c-0.1,0-0.2-0.1-0.3-0.1c-1.3-0.8-2.6-1.5-3.8-2.3
								c-0.1-0.1-0.2-0.2-0.3-0.3c-0.1-0.1-0.1-0.2-0.1-0.3c0.1-0.1,0.2-0.2,0.3-0.1c0.2,0,0.4,0.1,0.6,0.1c1.3,0.5,2.4,1.3,3.6,2.1
								C182.2,138.3,182.4,138.4,182.4,138.7z"/>
						</g>
					</g>
				</g>
				<g>
					<path fill="#FFD078" d="M108,134.4c-1.9-0.2-3.9-0.9-5.7-1.7c-5.1-2.2-9.5-6.1-12.4-10.9c-2.4-4-5.1-10.9-1-14.7
						c2.8-2.6,5.8-4.8,9-6.8c1.6-1,3.3-1.9,4.9-2.7c1.5-0.7,3.6-1.2,4.8-2.2c-3.4-3.4-8.2-5.3-11.2-9c-2.1-2.6-0.2-4.8,2.5-6.1
						c1.4-0.6,2.5-0.8,4.2-0.8c1.5,1.3,3.9,2.2,5.9,3.4c2.2,1.3,3.6,3.2,5.8,4.7c4.9,3.5,10.2,5.5,11.3,7.2c1,1.8-2.1,4,2.7,6.2
						c0.1,0.2,0.5,0.3,0.9,0.2c1.5,0.9,2.9-1,4.5,0.1c4.5,4.1,8.4,8.3,14,10.8c0.9,0.4,1.7,1.1,2.6,1.6c0.9,0.5,1.7,1,2.6,1.5
						c4.2,2.4,8.5,4.5,12.7,6.8c1.3,0.7,2.6,1.4,3.8,2.3c0.3,0.2,0.5,0.5,0.8,0.6c0.3,0.1,0.6,0.1,0.7,0.5c0,0.1-0.7,1-0.8,1.1
						c-0.3,0.3-0.7,0.7-1,1c-0.7,0.9-1.3,1.8-1.9,2.8c-0.8,1.3-1.6,2.6-2.3,3.9c-0.4,0.6-0.8,1.3-0.9,2c-3.2-0.2-6.4-1-9.4-2.1
						c-4.3-1.5-8.1-3.8-11.8-6.4c-1.7-1.2-3.4-2.5-5.1-3.8c-0.8-0.6-1.7-1.2-2.5-1.9c-0.2-0.2-2.3-1.8-2.5-1.7
						c-8.4,5.8-14.8,13.1-18.7,14c-1,0.3-2.4,0.3-3.7,0.2C110,134.3,108.8,134.5,108,134.4z"/>
					<g>
						<path fill="#CE9945" d="M130.2,107.1c-2.1,0-4.1-0.5-6.1-1.3c-1.1-0.4-2-1.1-2.8-1.9c-2.7-2.9-2.4-7.1,0.8-9.5
							c0.4-0.3,0.9-0.8,1.3-0.3c0.5,0.5,0,0.9-0.3,1.3c-0.6,0.8-1,1.7-1.3,2.6c-0.5,1.6-0.2,2.9,0.8,4.2c1.3,1.6,3,2.4,4.9,2.9
							c2.3,0.6,4.6,0.6,6.7-0.7c0.2-0.1,0.5-0.2,0.7-0.3c0.4-0.1,0.8,0,1.1,0.3c0.3,0.4,0.1,0.8-0.2,1.1c-0.4,0.4-1,0.7-1.6,0.9
							C132.9,106.8,131.6,107.1,130.2,107.1z"/>
						<path fill="#CE9945" d="M161.5,123.2c-1.5-0.1-3.1,0.2-4.8,0.7c-1.4,0.4-2.9,0.9-4.3,1.3c-0.4,0.1-0.8,0.2-1.2,0.2
							c-0.3,0-0.7,0-0.9-0.3c-0.2-0.4,0-0.7,0.3-1c0.2-0.2,0.4-0.3,0.6-0.4c2.4-1.2,5-2,7.7-2.3c1.6-0.2,3.1,0.2,4.6,0.9
							c0.2,0.1,0.3,0.2,0.5,0.3c0.3,0.2,0.2,0.5-0.1,0.6C163.2,123.3,162.5,123.2,161.5,123.2z"/>
						<path fill="#CE9945" d="M121.4,120c-2.3-0.1-4.6-0.4-6.7-1.3c-0.6-0.2-1.1-0.5-1.5-1c-0.2-0.3-0.4-0.6-0.2-0.9
							c0.2-0.4,0.6-0.3,0.9-0.1c3.1,1.3,6.3,1.5,9.6,1.4c0.7,0,1.4,0,2.1,0.1c0.2,0,0.5-0.1,0.6,0.2c0.1,0.2-0.1,0.4-0.3,0.6
							c-0.4,0.5-1,0.7-1.6,0.8C123.2,120,122.3,120,121.4,120z"/>
						<path fill="#CE9945" d="M134.2,118.5c0.4-0.5,0.9-0.7,1.5-0.6c2.9,0.2,5.8,0,8.6-0.8c0.5-0.1,1-0.2,1.5-0.1
							c0.6,0.1,0.7,0.5,0.4,1c-0.3,0.4-0.7,0.6-1.2,0.8c-2.9,1-5.9,1.3-9,0.8C135.1,119.4,135,119.2,134.2,118.5z"/>
						<path fill="#478765" d="M111.6,90.9c-1.5-0.1-3.1-0.1-4.5-0.6c-0.5-0.2-0.6-0.4-0.2-0.8c0.3-0.3,0.6-0.4,1-0.5
							c1.9-0.3,3.7-0.1,5.5,0.5c0.3,0.1,0.7,0.3,0.9,0.6c0.1,0.2,0.2,0.5,0.1,0.7c-0.1,0.2-0.4,0.2-0.6,0.2
							C113,91.1,112.3,91,111.6,90.9z"/>
					</g>
				</g>
			</g>
			<g>
				<g>
					<path fill="#98532F" d="M186.7,79.7c-0.2,0.7-0.5,1.4-0.7,2.1c-0.2,0.1-0.3,0.3-0.2,0.6c-0.9,2.6-2.3,4.9-4.1,7
						c-3.4,4.1-7.4,7.5-12,10.2c-1.4,0.8-2.9,1.5-4.5,2.1c-0.2,0-0.4,0-0.5,0.2c-0.1,0-0.1,0-0.2,0.1c-0.2,0-0.3,0-0.5,0.1
						c-0.1,0-0.1,0-0.2,0.1c-0.2,0-0.5,0-0.7,0.2c-0.1,0-0.1,0-0.2,0c-0.3,0-0.5,0-0.7,0.2c-0.1,0-0.1,0-0.2,0
						c-1.3,0.1-2.7,0.3-4,0.6c-0.1,0-0.3,0-0.4,0c-0.1,0-0.2-0.1-0.3-0.1c-1.9,0.3-3.9,0-5.8,0.1c-0.1,0-0.1,0-0.2,0
						c-0.3-0.2-0.6-0.2-0.9-0.2c-0.1,0-0.1,0-0.2,0c-0.2-0.2-0.4-0.2-0.7-0.2c-0.1,0-0.1,0-0.2-0.1c-0.1-0.2-0.3-0.2-0.5-0.2
						c-0.1,0-0.1,0-0.2-0.1c-0.1-0.1-0.2-0.1-0.3-0.1c-3-1.3-5.7-3-7.9-5.4c-1.9-2-3.5-4.2-5-6.5c-1-1.7-1.6-3.5-2-5.4
						c0.1-0.2,0.1-0.4-0.1-0.5c-0.1-0.3-0.1-0.6-0.2-0.9c0.2-0.2,0.1-0.3,0-0.4c-0.2-1.5-0.1-3.1,0-4.6c0.2-0.1,0.2-0.3,0-0.4
						c1.1-7,4.8-12.4,9.9-17c5.9-5.3,12.9-8.5,20.7-9.7c0.6-0.1,1.3-0.1,2-0.2c0.7,0.1,1.5,0.1,2.2,0c0.7,0.1,1.3,0.1,2,0.2
						c2.4,0.3,4.4,1.3,6.2,2.7c5.1,4,8.3,9.1,10.3,15.2c0.1,0.4,0.2,0.7,0.1,1.1c0,0.2,0.1,0.3,0.2,0.4c0,0.2,0.1,0.4,0.1,0.6
						c-0.1,0.2-0.1,0.4,0.1,0.5c0.1,0.5,0.1,1,0.2,1.5c-0.2,0.4-0.2,0.7,0,1.1c0,0.6-0.1,1.2-0.2,1.8c-0.2,0.1-0.2,0.3-0.1,0.4
						c0,0.2-0.1,0.4-0.1,0.6c-0.2,0.1-0.3,0.3-0.1,0.5c-0.1,0.4-0.2,0.8-0.3,1.3C186.6,79.3,186.5,79.5,186.7,79.7z"/>
					<g>
						<path fill="#F48A74" d="M171.8,89.2C171.8,89.2,171.8,89.2,171.8,89.2c3.1,1.5,4.5,5.9,4,9c-0.4,2.1-1.7,3.6-3.7,4.5
							c-2.9,1.4-5.9,1.3-8.6-0.6c-1.2-0.8-2.4-1.6-3.2-2.8c-0.1-0.1-0.3-0.2-0.4-0.4c-1-0.8-1.2-1.8-0.4-2.8
							c0.6-0.9,1.4-1.6,2.2-2.2c2-1.6,4.1-3.2,6.2-4.7c0.8-0.6,1.7-0.8,2.7-0.5c0.2,0.1,0.5,0.2,0.7,0l0,0
							C171.3,89.1,171.6,89.1,171.8,89.2z"/>
						<path fill="#954334" d="M166.6,94.6c1.3,0.1,2.7,0.3,4.1,0.7c0.4,0.1,0.8,0.3,1.1,0.5c0.6,0.4,1,1,0.8,1.8
							c-0.1,0.8-0.7,1.2-1.5,1.4c-0.4,0.1-0.8,0.1-1.2,0c-1.5-0.2-3-0.6-4.4-1.3c-0.3-0.2-0.6-0.4-0.9-0.6c-0.9-0.8-0.7-1.9,0.5-2.3
							C165.5,94.6,166,94.6,166.6,94.6z"/>
					</g>
					<g>
						<g>
							<path fill="#FFD0B3" d="M129.6,93.4c-0.7-0.6-1.2-1.1-1.7-1.7c-2.6-2.7-5.1-5.4-7.1-8.6c-1.8-2.9-3.2-6-3.7-9.5
								c-0.4-2.9,0-5.8,1.3-8.5c1.9-3.9,4.4-7.3,7.7-10.2c2-1.8,4.2-3.2,6.5-4.6c1.9-1.1,3.8-2.2,5.9-2.9c2.9-1.1,6-1.6,9.1-1.4
								c2.3,0.2,4.6,0.5,6.9,1.2c4.1,1.2,8,3,11.6,5.2c1.3,0.8,2.7,1.3,3.8,2.3c2.4,1.9,4.7,4,6.1,6.8c1.1,2.3,1.9,4.6,2.3,7.2
								c0.3,1.9,0.3,3.9,0.2,5.8c-0.4,5.3-1.9,10.2-5.3,14.3c-2.8,3.3-5.9,6.1-9.8,8.1c-2.1,1-4.1,2.1-6.5,2.6
								c-2,0.4-3.9,0.7-5.9,0.8c-1.8,0.2-3.6-0.1-5.3-0.1c-2-0.1-3.9-0.5-5.7-1.2c-0.7-0.3-1.1-0.2-1.6,0.4c-0.9,1-2.2,1.6-3.4,2.1
								c-1.3,0.6-2.8,1-4.2,1.2c-1.9,0.2-4.2-0.7-5.1-2.8c-0.7-1.5-0.2-2.9,0.8-4C127.1,94.8,128,93.9,129.6,93.4z"/>
							<path fill="#F4B49B" d="M170.1,91.3c-0.8-0.6-1.5-1.2-1.9-2.2c-0.1-0.3-0.5-0.4-0.8-0.5c-2.3-0.5-3.7-1.9-4.3-4.1
								c-0.3-1.1-0.9-1.8-1.7-2.4c-0.6-0.4-1-0.9-1.5-1.5c-0.4-0.6-0.9-1.2-1.5-1.8c-1.3-1.4-1.8-3-1.5-4.9c0.3-2.2,1.4-4.1,2.3-6.1
								c0.8-1.7,1.8-3.3,2.5-5c0.9-2.1,1.6-4.1,1.7-6.4c0-0.6,0.2-1.2,0.2-1.9c0-0.5-0.2-0.8-0.7-1c-2.7-1-5.4-1.7-8.3-1.7
								c-1.9,0-3.7-0.1-5.6,0c-2,0.1-4,0.4-6,0.5c-2.4,0.2-4.7,0.3-7.1-0.1c-0.5-0.1-1-0.3-1.3-0.7c-0.5-0.7-0.3-1.4,0.5-1.8
								c0.2-0.1,0.3-0.1,0.5-0.1c3.2-0.1,6.3-0.9,9.4-1.3c1.7-0.2,3.4-0.4,5.1-0.5c1.4-0.1,2.8-0.2,4.3-0.2
								c4.7,0.1,9.1,1.1,13.3,3.2c0.6,0.3,1.1,0.6,1.5,1.1c1,1.2,0.7,2.4-0.7,2.9c-0.8,0.3-0.7,0.3-0.7,1.2c0,2.7-0.6,5.4-1.7,7.9
								c-1.1,2.5-2.4,4.9-3.6,7.4c-0.4,0.9-0.8,1.7-1,2.7c-0.2,0.9,0,1.6,0.8,2.2c0.5,0.4,1,0.8,1.6,1.2c0.2,0.2,0.5,0.4,0.6,0.6
								c0.4,1.2,1.4,1.9,2.1,2.8c0.4,0.5,0.6,1.2,0.8,1.8c0.2,0.9,0.6,1.4,1.6,1.5c1.6,0.2,2.8,1,3.4,2.6c0.1,0.4,0.4,0.7,0.6,1.1
								c0.9,1.6,0.4,2.8-1.3,3.5c-0.3,0.1-0.6,0.1-0.8,0.4c0,0,0,0,0,0C170.6,91.4,170.4,91.2,170.1,91.3L170.1,91.3z"/>
						</g>
						<g>
							<g>
								<path fill="#D16651" d="M130.2,84.1c0-0.5,0-1.1,0.1-1.6c0-0.4,0.1-0.8,0.1-1.2c0.4-1.6,0.9-1.9,2.4-1.3
									c0.7,0.2,1.3,0.5,1.9,0.7c2.3,0.8,3.9,2.3,5.3,4.3c1.3,1.9,1.3,5.4,0,7.3c-1,1.6-2.7,2.1-4.5,1.4c-0.9-0.3-1.9-0.6-2.6-1.3
									c-1.2-1.1-2-2.5-2.4-4.1C130.3,86.9,130.1,85.5,130.2,84.1z"/>
								<g>
									<path fill="#F48A74" d="M154.3,96.7c-3.2,0.2-5.5-1-7.3-3.5c-0.6-0.8-0.8-1.7-0.7-2.7c0.3-1.8,1.7-3,3.7-3
										c2,0,3.7,0.8,5.2,2c1.4,1,2.3,2.3,2.6,4c0.4,1.8-0.6,3.1-2.5,3.1C155,96.7,154.6,96.7,154.3,96.7z"/>
									<path fill="#F48A74" d="M125.1,77c-2.1-0.2-4.1-0.8-5.6-2.4c-0.4-0.5-0.8-1-1-1.6c-0.5-1.5,0.1-3,1.5-3.8
										c1.2-0.6,2.4-0.6,3.6-0.3c1.5,0.4,2.8,1.1,4,2c0.5,0.4,0.9,0.9,1.2,1.4c0.8,1.6,0.3,3.2-1.4,4
										C126.8,76.8,126,76.9,125.1,77z"/>
								</g>
								<g>
									<path fill="#F4B49B" d="M136.4,75.2c-0.6,0-1.2,0-1.9-0.3c-0.6-0.3-1-0.7-0.9-1.5c0.1-0.6-0.1-1.1-0.4-1.6
										c-0.5-0.6-0.5-1.4-0.3-2.1c0.2-1,1.4-1.3,2-0.6c0.6,0.8,1.5,1.1,2.4,1.5c0.8,0.4,1.6,0.2,2.3-0.3c0.2-0.1,0.4-0.3,0.7-0.4
										c0.8-0.2,1.4,0.2,1.4,1.1c0,1.1-0.5,1.9-1.2,2.6C139.2,74.7,138,75.3,136.4,75.2z"/>
									<path fill="#954334" d="M133.7,69.2c-0.5,1.3-0.4,2.4,0.4,3.5c0.4,0.5,0.8,1,1.3,1.5c0.1,0.1,0.3,0.2,0.2,0.4
										c-0.1,0.2-0.3,0.2-0.5,0.3c-0.7,0.1-1.4-0.1-2-0.5c-0.8-0.6-1.4-1.4-1.5-2.5c-0.2-1.4,0.1-2.6,0.9-3.7
										c0.5-0.7,1-0.8,1.7-0.4c0.4,0.2,0.8,0.6,1.3,0.8c1.1,0.7,2.4,1.1,3.7,0.8c0.2,0,0.5-0.1,0.8-0.1c0.4,0,0.7,0.1,0.9,0.5
										c0.2,0.5-0.1,0.8-0.4,1c-0.9,0.6-1.8,0.7-2.8,0.5c-1-0.2-1.9-0.7-2.8-1.3C134.6,69.8,134.2,69.6,133.7,69.2z"/>
								</g>
							</g>
							<g>
								<g>
									<path fill="#F4B49B" d="M157.8,81c0,0.7-0.2,1.3-0.4,1.8c-0.2,0.5-0.6,0.7-1.1,0.8c-0.6,0.1-1.1-0.1-1.6-0.4
										c-1.5-0.8-2.1-3.1-1.3-4.6c0.4-0.6,0.8-0.8,1.4-0.7c1.2,0.2,2.7,1.5,2.9,2.7C157.8,80.7,157.8,80.9,157.8,81z"/>
									<g>
										<path fill="#5C3920" d="M156.3,84.1c0.4,0,0.9-0.1,1.4-0.2c0.2,0,0.4-0.1,0.5,0.1c0.1,0.2,0,0.3-0.1,0.5
											c-0.4,0.8-1.1,1.3-2,1.4c-2.9,0.5-5.1-0.8-6.1-2.6c-0.2-0.4-0.4-0.5-0.9-0.4c-0.5,0.1-1,0.1-1.5-0.3
											c-0.4-0.3-0.4-0.6,0-0.9c0.4-0.3,0.8-0.5,1.2-0.7c0.2-0.1,0.4-0.2,0.5-0.4c0.2-0.3,0-0.6-0.4-0.6c-0.3,0-0.6,0-0.9,0
											c-0.4-0.1-0.8-0.2-1-0.5c-0.2-0.3-0.2-0.6,0.2-0.7c0.5-0.2,1-0.3,1.5-0.3c0.9,0,1.5-0.3,1.8-1.2c0.2-0.7,0.7-1.4,1.2-2
											c0.2-0.2,0.4-0.5,0.7-0.7c0.2-0.2,0.5-0.3,0.8-0.1c0.3,0.2,0.3,0.5,0.3,0.8c0,0.6-0.3,1.1-0.5,1.6c-0.3,0.9-0.7,1.8-1,2.7
											c-0.1,0.6-0.2,1.2-0.1,1.7c0.2,1.5,1.4,2.6,2.9,2.8C155.4,84.1,155.8,84.1,156.3,84.1z"/>
										<path fill="#5C3920" d="M166.5,71.5c0,0.6-0.2,1.2-0.6,1.7c-0.3,0.3-0.6,0.4-0.9,0.1c-0.5-0.5-0.9-1-1.2-1.6
											c-0.8-1.8-1.9-3.5-2.9-5.1c-0.2-0.4-0.4-0.8-0.6-1.2c-0.1-0.3-0.2-0.7,0.1-1c0.3-0.3,0.7-0.3,1.1-0.2
											c0.2,0.1,0.5,0.2,0.7,0.3c2.3,1.6,3.7,3.9,4.3,6.6C166.5,71.2,166.5,71.4,166.5,71.5z"/>
									</g>
								</g>
								<g>
									<path fill="#F4B49B" d="M133.8,57.5c1.5,0,2.4,0.6,2.8,1.8c0.3,1-0.1,2-1.1,2.4c-1.7,0.6-3.3,0.3-4.7-0.7
										c-1-0.8-0.9-2.1,0.3-2.8C132,57.8,132.9,57.5,133.8,57.5z"/>
									<g>
										<path fill="#5C3920" d="M128.5,64c-0.5,0-0.7,0.3-1,0.4c-0.4,0.2-0.9,0.2-1.3,0.1c-0.5-0.1-0.6-0.5-0.2-0.9
											c0.3-0.3,0.6-0.5,1-0.7c0.5-0.3,0.8-0.6,0.6-1.3c-0.2-0.6,0-1.2,0.3-1.8c0.1-0.3,0.3-0.6,0.7-0.6c0.4,0.1,0.3,0.4,0.4,0.7
											c0.1,0.4,0.1,0.7,0.2,1.1c0.2,1,0.8,1.7,1.9,1.8c1.6,0.2,3.3,0.2,4.9-0.2c0.3-0.1,0.6-0.3,0.8,0c0.2,0.3,0,0.6-0.2,0.9
											c-0.9,1.5-3.3,2.4-5.3,2c-0.1,0-0.3-0.1-0.4-0.1c-0.5-0.3-0.9-0.2-1.4,0.2c-0.4,0.4-0.8,0.6-1.4,0.5
											c-0.6-0.1-0.7-0.4-0.4-0.9C128,64.9,128.4,64.6,128.5,64z"/>
										<path fill="#5C3920" d="M141.2,50.3c1.7,0,3.1,0.6,4.4,1.4c0.1,0.1,0.2,0.1,0.3,0.2c0.3,0.3,0.7,0.6,0.5,1
											c-0.2,0.4-0.6,0.2-1,0.1c-1.4-0.3-2.9-0.5-4.3-0.6c-0.5,0-1-0.1-1.5-0.2c-0.7-0.2-0.8-0.7-0.3-1.2
											c0.4-0.4,0.9-0.6,1.5-0.7C140.9,50.3,141.1,50.3,141.2,50.3z"/>
									</g>
								</g>
							</g>
						</g>
					</g>
					<g>
						<path fill="#98532F" d="M186.8,70.2c-0.3,0.1-0.6,0.1-0.9,0c-0.2-0.2-0.4-0.2-0.6-0.2c-1.2-0.8-1.3-1.6-0.3-2.6
							c0.1-0.1,0.2-0.2,0.2-0.2c1.6-1,3.4-1.9,5.1-2.7c0.8-0.4,1.5,0.2,1.6,1c0.1,0.7-0.2,1.3-0.6,1.8c-1,1.3-2.3,2.2-3.9,2.8
							C187.2,70,187,70,186.8,70.2z"/>
						<path fill="#98532F" d="M186.6,59.8c0.1,1.6-0.6,3-1.7,4.1c-0.5,0.5-1.1,0.8-1.8,0.9c-1,0-1.4-0.6-1.2-1.5
							c0.1-0.5,0.4-1,0.7-1.5c0.7-1,0.9-2.1,1-3.3c0-0.3,0.1-0.7,0.1-1c0.1-0.5,0.4-0.9,0.9-1c0.6-0.1,1,0.1,1.3,0.6
							c0.5,0.6,0.6,1.4,0.7,2.2C186.6,59.4,186.6,59.6,186.6,59.8z"/>
						<path fill="#98532F" d="M185.8,71.3c0.9,0,1.7,0.2,2.4,0.6c1.2,0.6,1.7,1.7,1.3,2.8c-0.5,1-1.6,1.4-2.9,0.9
							c-0.7-0.3-1.3-0.6-1.9-1.1c-0.8-0.7-1.1-1.4-0.9-2.1C184.1,71.6,184.9,71.2,185.8,71.3z"/>
					</g>
					<g>
						<path fill="#98532F" d="M150.5,49c-4.4,0-8,0.6-11.5,1.1c-1,0.1-1.9,0.4-2.9,0.4c-0.5,0-1-0.1-1.4-0.3
							c-0.7-0.4-0.9-1.1-0.6-1.9c0.4-1,1-1.8,1.8-2.5c3-2.7,6.5-4.4,10.4-5c6.7-1,12.9,0.5,18.7,3.9c2.1,1.3,4,2.9,5.7,4.8
							c0.4,0.4,0.8,0.7,1.4,0.8c2.7,0.6,4.9,2.1,6.6,4.3c2.8,3.6,4.4,7.6,4.6,12.2c0.2,3.3,0.3,6.6-0.5,9.8
							c-0.9,3.8-2.4,7.2-4.8,10.2c-0.7,0.8-1.4,1.5-2.3,2.2c-0.7,0.5-1.4,0.8-2.3,0.8c-0.5,0-1-0.1-1.3-0.5
							c-0.8-0.9-1.8-1.6-2.2-2.8c-0.3-0.8-0.8-1.4-1.5-1.8c-2-1.1-3.4-2.7-4.3-4.8c-0.3-0.6-0.7-1.1-1.3-1.5
							c-2.1-1.2-2.6-3.2-2.6-5.3c0-0.7,0.3-1.3,0.7-1.8c1.6-2.8,2.8-5.9,4-8.9c0.9-2.1,1.3-4.3,1.3-6.6c0-0.8,0-1.6,0.1-2.4
							c0.1-0.9-0.3-1.3-1-1.7c-1.2-0.7-2.6-1.1-4-1.5C157.4,49.5,153.6,49,150.5,49z"/>
						<g>
							<path fill="#5C3920" d="M175.6,63c-0.2,5.4-2,10.5-5.4,15.1c-0.5,0.7-1.1,1.4-1.8,1.9c-0.2,0.2-0.5,0.4-0.8,0.2
								c-0.2-0.2-0.1-0.5,0-0.7c0.2-0.8,0.6-1.5,1-2.2c0.5-0.9,1-1.8,1.5-2.7c2.3-4.1,3.4-8.6,3.9-13.3c0.1-0.6,0-1.2,0.1-1.9
								c0-0.3,0-0.5,0.3-0.6c0.3-0.1,0.6,0.1,0.7,0.3c0.3,0.4,0.4,0.9,0.5,1.4C175.6,61.3,175.7,62,175.6,63z"/>
							<path fill="#5C3920" d="M172.3,84c-0.2-0.4,0-0.8,0.1-1.1c0.3-0.8,0.7-1.5,1.2-2.2c3.1-4.1,4.3-8.9,5-13.8
								c0.1-0.7,0.2-1.4,0.3-2.2c0.1-0.3,0.2-0.7,0.6-0.6c0.3,0,0.4,0.4,0.5,0.6c0.4,1.4,0.4,2.8,0.2,4.1c-0.2,2.2-0.6,4.4-1.3,6.5
								c-0.9,2.9-2.7,5.3-4.7,7.4C173.8,83.4,173.1,83.9,172.3,84z"/>
							<path fill="#5C3920" d="M163.1,76.6c0-0.6,0.3-1,0.4-1.3c0.5-1.2,1.2-2.4,1.9-3.6c3-4.7,4.1-9.9,4.2-15.3
								c0-0.8-0.1-1.5-0.1-2.3c0-0.3,0-0.5,0.3-0.6c0.3-0.1,0.5,0.2,0.6,0.4c0.2,0.5,0.4,1,0.4,1.5c0.3,5.2-0.3,10.1-2.8,14.8
								c-1,1.9-2.1,3.8-3.6,5.4C164.2,75.9,163.8,76.3,163.1,76.6z"/>
							<path fill="#5C3920" d="M139.5,46.3c0.5-0.6,1.1-0.9,1.8-1.1c2.5-0.9,5.1-1.3,7.8-1.6c2.9-0.3,5.8-0.1,8.7,0.7
								c1.3,0.4,2.5,0.8,3.6,1.6c0.2,0.2,0.8,0.3,0.6,0.6c-0.2,0.4-0.6,0.1-1,0c-0.6-0.2-1.2-0.4-1.7-0.7c-4.2-1.5-8.5-1.6-12.8-0.8
								C144.1,45.5,141.8,45.8,139.5,46.3z"/>
							<path fill="#5C3920" d="M182.7,74.9c-0.3,4.5-2.3,8.2-5.9,10.9c-0.5,0.4-1.1,0.7-1.8,0.7c-0.4,0-0.5-0.2-0.3-0.6
								c0.3-0.6,0.7-1,1.2-1.4c1.7-1.9,3.3-3.8,4.5-6c0.7-1.4,1.1-2.9,1.5-4.4c0.1-0.3,0-0.8,0.5-0.8c0.4,0,0.3,0.5,0.4,0.8
								C182.7,74.3,182.7,74.6,182.7,74.9z"/>
						</g>
					</g>
				</g>
				<g>
					<path fill="#D5FFF4" d="M120.1,74.6c-5,0-9.1-1.4-12.8-4.1c-0.9-0.6-1.6-1.4-2.2-2.3c-1-1.4-1.9-2.9-2.5-4.5
						c-1.1-2.9-1-5.9,0-8.8c0.8-2.5,2.1-4.6,4-6.4c1.9-1.8,4.1-3.2,6.8-3.5c2.4-0.3,4.9-0.3,7.1,1.2c1.8,1.3,3.2,2.8,3.7,5.1
						c0.3,1.4,0.1,2.9-0.1,4.2c-0.4,2.4-0.3,4.7,0.5,7.1c0.6,1.7,1.2,3.5,2.3,4.9c0.6,0.8,1.1,1.7,2.2,1.9c0.3,0.1,0.6,0.1,1,0.1
						c0.4,0,0.8,0,1.2,0c0.6,0,1,0.5,1.2,1c0.2,0.4-0.3,0.7-0.6,0.9c-0.8,0.8-1.9,1-2.9,1.4c-1.7,0.6-3.5,1.2-5.3,1.5
						C122.3,74.5,121,74.8,120.1,74.6z"/>
					<g>
						<path fill="#FFFFFF" d="M104.6,58.5c0-2.3,1-4.1,2.3-5.9c1.8-2.7,4.6-3.9,7.7-4.6c0,0,0.1,0,0.1,0c0.4,0,0.9-0.2,1.1,0.4
							c0.2,0.5-0.3,0.7-0.7,0.8c-1,0.5-2.1,1-3.1,1.6c-3.1,1.9-4.8,4.7-5.2,8.3c0,0.3-0.1,0.6-0.2,1c-0.1,0.4-0.4,0.6-0.8,0.6
							c-0.4,0-0.8-0.1-1-0.5C104.7,59.7,104.6,59.5,104.6,58.5z"/>
						<path fill="#FFFFFF" d="M109,64.4c0,0.6-0.6,1.2-1.1,1.2c-0.5,0-0.9-0.6-0.9-1.2c0-0.6,0.6-1.1,1.1-1.1
							C108.7,63.3,109.1,63.8,109,64.4z"/>
					</g>
				</g>
			</g>
		</g>
		<g>
			<g>
				<path fill="#FFD0B3" d="M21.5,129.8c1.4-0.3,2.7-0.6,4-0.9c0.4-0.1,0.8-0.1,1.2-0.1c0.5,0.1,1.1,0.3,1.2,0.8
					c0.1,0.5,0.4,0.8,0.8,1.1c1.4,1.1,1.5,2.9-0.1,4.1c-1.3,0.9-2.8,1.4-4.3,1.9c-1.4,0.4-2.9,0.6-4.4,0.8c-0.3,0-0.5-0.1-0.7-0.1
					c-0.5,0-0.9-0.3-1.4-0.3c-1.2,0-1.7-0.5-2-1.6c-0.1-0.3-0.1-0.6-0.1-1c0-3.1-0.1-6.1,0-9.2c0.1-1.6,0.2-3.3,0.6-4.9
					c0.2-0.8,0.6-1.5,0.8-2.4c0.1-0.5,0.7-0.8,1.3-0.8c0.6,0,1,0.3,1.3,0.9c0.4,1,0.6,2,0.7,3.1c0.3,2.2,0.7,4.3,0.7,6.5
					C21.2,128.4,21.4,129,21.5,129.8z"/>
				<g>
					<path fill="#F48A74" d="M26.4,135.2c0,0.7-0.2,1.1-0.7,1.3c-0.5,0.2-1,0-1.3-0.5c-0.1-0.2-0.2-0.4-0.3-0.6
						c-0.3-1.5-0.9-2.9-1.4-4.4c-0.1-0.4-0.3-0.8-0.1-1.3c0.1-0.3,0.3-0.5,0.6-0.6c0.3,0,0.5,0.2,0.6,0.4c0.5,0.8,0.9,1.7,1.3,2.5
						c0.4,0.8,0.7,1.6,1,2.4C26.3,134.8,26.3,135.1,26.4,135.2z"/>
					<path fill="#F48A74" d="M19.3,119.5c-0.1,1.1-0.2,2.2-0.4,3.2c0,0,0,0.1,0,0.1c-0.2,0.4-0.2,1-0.8,0.8c-0.5-0.1-0.5-0.6-0.4-1
						c0.1-1.5,0.3-3,0.4-4.4c0-0.1,0-0.3,0.1-0.4c0-0.2,0.1-0.3,0.3-0.4c0.2-0.1,0.4,0.1,0.5,0.3C19.2,118.2,19.3,118.8,19.3,119.5z
						"/>
				</g>
			</g>
			<g>
				<path fill="#FFD0B3" d="M99.7,170.8c-1.4,10.3,2.2,4.4,8.1,7.6c2.1,1.1-0.1,3-1.2,3.5c-2,0.9-4.2,0.3-6.4,0.2
					c-1.8-0.1-3.6-0.3-5.4-0.5c-1.1-0.1-2.5-0.2-3.4-0.9c-1.2-0.9-1.2-2.8-1.2-4.1c0.1-2.6,0.7-7.1,2.7-9.1
					C96.1,164.1,100.2,166.3,99.7,170.8z"/>
				<g>
					<path fill="#F48A74" d="M91.9,171.7c-0.4,0-0.8,0-0.9-0.5c-0.1-0.4,0.2-0.7,0.5-0.9c0.6-0.3,1.1-0.6,1.7-0.9
						c1.7-0.8,3.2-1.9,4.7-3c0.4-0.3,0.8-0.7,1.2-0.2c0.3,0.4-0.1,0.8-0.4,1.1c-1.6,1.7-3.4,3.2-5.6,4.1
						C92.7,171.6,92.3,171.7,91.9,171.7z"/>
					<path fill="#F48A74" d="M104.7,177.9c0.9,0,1.7,0.2,2.4,0.5c0.2,0.1,0.5,0.2,0.7,0.4c0.2,0.1,0.3,0.3,0.2,0.6
						c-0.1,0.2-0.3,0.3-0.5,0.3c-1.2-0.2-2.4-0.3-3.6-0.4c-0.2,0-0.4-0.1-0.6-0.3c-0.4-0.3-0.3-0.7,0.1-0.9
						C103.8,177.8,104.2,177.9,104.7,177.9z"/>
					<path fill="#F48A74" d="M102.6,179.6c1.1,0.1,2.3,0.4,3.5,0.9c0.2,0.1,0.4,0.2,0.5,0.4c0.2,0.3,0.1,0.5-0.2,0.6
						c-0.1,0-0.2,0-0.2,0c-1.3-0.5-2.8-0.6-4.1-0.9c-0.3-0.1-0.6-0.2-0.5-0.6c0-0.3,0.3-0.4,0.6-0.5
						C102.2,179.6,102.3,179.6,102.6,179.6z"/>
				</g>
			</g>
		</g>
		<g>
			<path fill="#FDF7D9" d="M147.1,147.3c-0.8-1.6-1.6-3.2-2.5-4.7c-0.3-0.5-0.6-0.9-1-1.3c-1-0.9-2.1-1.7-3.1-2.6
				c-1.9-1.9-4.1-3.5-6.3-5.1c-2.4-1.8-4.9-3.5-6.7-5.9c-1.5-1.9-2.7-4-3.4-6.3c-0.9-2.7-1.2-5.5-1.1-8.4c0-1.5,0.2-3.1,0.3-4.6
				c0.2-1.9,0.3-3.8,0-5.6c-0.6-3.8-2.4-7.1-5-9.9c-1-1.1-2-2.2-2.9-3.4c-0.7-0.9-1.5-1.6-2.5-2.1c-3.9-1.8-8-2.7-12.3-2
				c0,0.1,0.1,0.3,0.1,0.4c-0.1,0.1-0.2,0.1-0.4,0c-0.2-0.1-0.3-0.2-0.3-0.4c-0.2,0-0.4,0-0.5,0c-1.2,0.2-2.5,0.3-3.7,0.5
				c-1.1,0.1-2.1,0.4-3.2,0.5c-6.1,1-12.1,2.3-17.9,4.3c-2.5,0.8-5,1.8-7.6,2.6c-2.9,0.9-5.9,1.8-8.7,2.9c-6.8,2.6-11.5,7.2-14.1,14
				c-0.1,0.3-0.2,0.7-0.5,0.8c-0.9,0.6-1.6,1.3-2.6,1.6c-0.2,0.2-0.4,0.2-0.7,0.2c-0.1,0-0.1,0-0.2,0c-0.2,0.2-0.4,0.2-0.7,0.2
				c-0.1,0-0.3,0-0.4,0c-0.6,0.4-1.3,0.2-1.9,0.1c-0.7-0.1-1.4-0.2-2.2-0.1c0-0.1,0-0.2,0-0.2c-1.8-0.6-3.5-0.1-5.1,0.8
				c-0.8,0.5-1.5,1.1-2.2,1.6c-1.5,1.2-2.6,2.6-3.2,4.5c-0.4,1.1-0.6,2.2-0.7,3.3c-0.1,1.4-0.2,2.8,0.2,4.2c0.7,2.7,1.6,5.4,2.5,8
				c0.2,0.6,0.4,1.2,0.5,1.8c0.3,1.4,0.6,2.8,0.9,4.3c0.4,1.7,1.2,3.2,2.4,4.5c0.4,0.4,1,0.7,1.4,1.2c1.6,1.7,3.4,3.3,5.5,4.4
				c1.7,0.9,3.4,1.9,5.3,2.6c2.2,0.8,4.4,1.5,6.6,2.2c2,0.7,4,1.6,5.9,2.5c1.4,0.7,2.7,1.7,4.2,2.4c2.6,1.3,4.8,3,7,4.8
				c2.1,1.8,4.2,3.5,6.6,4.9c2.8,1.6,5.7,2.6,8.9,2.5c0.8,0,1.6-0.1,2.4-0.2c2.6-0.3,5-1.1,7.3-2.4c1-0.6,2-1.3,3-1.9
				c1.3-0.8,2.5-1.6,3.7-2.5c2-1.6,3.9-3.3,5.8-4.9c2.8-2.4,6.1-3.6,9.8-3.7c2.3-0.1,4.5,0.1,6.7,0.4c1.5,0.2,3.1,0.4,4.6,0.6
				c1.4,0.2,2.7,0.4,4.1,0.5c2.7,0.1,5.5,0.1,8.2-0.4c2.5-0.5,5-0.9,7.2-2.3c1.2-0.8,2.3-1.7,2.8-3.3c0.2-0.6,0.2-1.3,0.3-1.9
				C148.2,150,147.8,148.6,147.1,147.3z"/>
			<path fill="#6FA4BD" d="M41.2,112.7c8.3-4.6-0.6-12.4,29.6-20.6c10.1-3.5,21-6.2,24.1-5.2c19.7,5.1,15.9,33.2,17,35
				c1.5,9.1,8.9,15,16.2,19.7c3.7,2.2,12.1,10.2,8.5,13.2c-4,1.8-8.1,1.6-12.3,1.2c-28.3-7.6-24.4,8.2-43.9,8.4
				c-5.1,1.5-13.9-8.4-17.8-9.7c-10-5.1-15.9-6.6-22-14c-7.9-9.6-7.8-19.6-5.6-27.4C37.1,113.1,39.2,113.7,41.2,112.7z"/>
			<g>
				<path fill="#4E798D" d="M72.2,138.6c0.3,0.2,0.6,0.1,0.8,0.2c0.4,0.1,0.7,0.3,0.8,0.7c0.1,0.4,0,0.9-0.4,1
					c-0.7,0.3-0.7,0.7-0.4,1.4c0.2,0.7,0,1.2-0.5,1.5c-0.5,0.3-1,0.2-1.5-0.4c-0.3-0.3-0.5-0.6-0.8-0.9c-0.4,0.1-0.5,0.4-0.7,0.6
					c-0.3,0.2-0.5,0.5-0.9,0.7c-0.4,0.2-0.8,0.1-1.1-0.1c-0.4-0.3-0.5-0.7-0.3-1.2c0.2-0.5,0.6-0.9,0.9-1.5
					c-0.3-0.1-0.6-0.3-0.8-0.4c-0.4-0.2-0.6-0.5-0.5-1c0.1-0.5,0.4-0.8,0.9-0.9c0.5-0.1,1-0.1,1.4,0.1c0.6,0.2,1,0.1,1.2-0.5
					c0.1-0.4,0.4-0.7,0.7-0.9c0.3-0.2,0.6-0.3,0.9-0.2c0.3,0.2,0.4,0.5,0.5,0.8C72.3,138,72.1,138.3,72.2,138.6z"/>
				<path fill="#4E798D" d="M92.6,97.4c-0.5,0.2-0.8,0.6-1.1,0.8c-0.4,0.3-0.8,0.6-1.2,0.8c-0.4,0.3-0.9,0.3-1.3,0
					c-0.4-0.3-0.5-0.8-0.3-1.3c0.2-0.6,0.5-1.2,0.8-1.8c0.4-0.7,0.4-0.7-0.2-1.1c-0.4-0.3-0.9-0.6-1.3-1c-0.4-0.4-0.7-0.9-0.4-1.5
					c0.3-0.6,0.8-0.7,1.4-0.7c0.8,0,1.6,0.1,2.4,0.3c1,0.2,0.8,0.4,1.5-0.5c0.5-0.6,0.9-1.2,1.4-1.8c0.8-0.8,1.6-0.6,1.9,0.5
					c0.2,0.6,0.2,1.2,0,1.8c-0.1,0.5,0.1,0.7,0.5,0.9c0.8,0.3,1.5,0.6,2.2,0.9c0.3,0.1,0.7,0.3,0.9,0.6c0.3,0.3,0.5,0.7,0.3,1.1
					c-0.1,0.4-0.4,0.7-0.9,0.7c-0.7,0.1-1.4,0.2-2.1,0.3c-0.9,0.1-0.9,0.1-0.9,1c0,0.5,0,0.9-0.1,1.4c-0.3,0.9-1,1.2-1.9,0.7
					c-0.4-0.3-0.7-0.6-1-1C93.1,98.2,92.9,97.8,92.6,97.4z"/>
				<path fill="#4E798D" d="M73.7,108.3c-0.1,0.6-0.2,1.1-0.4,1.6c-0.4,0.9-1.2,1.4-1.9,1.3c-0.8-0.1-1.3-0.7-1.5-1.8
					c-0.1-0.8-0.1-0.8-0.9-0.7c-0.3,0-0.5,0.1-0.8,0c-1.3-0.2-1.9-1.4-1.1-2.5c0.3-0.4,0.7-0.7,1.1-0.9c0.3-0.2,0.3-0.4,0.1-0.7
					c-0.2-0.3-0.4-0.6-0.6-0.9c-0.2-0.4-0.4-0.8-0.4-1.2c-0.1-0.6,0.1-1.2,0.6-1.6c0.5-0.4,1.1-0.3,1.6,0c0.7,0.4,1.3,0.9,1.9,1.4
					c0.7,0.5,0.7,0.6,1.4,0c0.7-0.5,1.4-1,2.3-1.2c0.6-0.1,1.2-0.2,1.7,0.4c0.4,0.6,0.3,1.2,0.1,1.8c-0.3,0.7-0.9,1.3-1.5,2
					c0.3,0.3,0.6,0.6,0.9,1c0.8,0.9,0.4,2-0.8,2.2C74.8,108.5,74.3,108.2,73.7,108.3z"/>
				<path fill="#4E798D" d="M92.5,134.4c0.4,0.4,0.8,0.7,1.2,1c0.4,0.4,0.6,0.9,0.3,1.5c-0.3,0.6-0.8,0.7-1.4,0.7
					c-0.9,0-1.8-0.3-2.6-0.7c-0.4,0.3-0.3,0.8-0.5,1.1c-0.1,0.3-0.2,0.6-0.3,0.9c-0.2,0.5-0.6,0.7-1.2,0.7c-0.5,0-0.9-0.4-1-1
					c-0.1-0.4-0.1-0.9,0-1.3c0-0.3,0.1-0.5-0.1-0.8c-0.4-0.1-0.7,0.2-1,0.2c-0.4,0.1-0.8,0.2-1.2,0.3c-0.5,0.1-0.9-0.1-1.1-0.5
					c-0.2-0.5-0.1-0.9,0.3-1.2c0.5-0.5,1.1-0.9,1.7-1.4c0.5-0.3,0.7-0.6,0.3-1.2c-0.3-0.4-0.4-0.9-0.4-1.5c-0.1-1,0.5-1.5,1.4-1.2
					c0.6,0.1,1.2,0.3,1.6,0.7c0.5,0.4,1,0.4,1.5,0.2c0.6-0.3,1.3-0.5,2-0.7c0.3-0.1,0.6-0.2,0.8-0.2c1.1-0.2,1.7,0.5,1.4,1.6
					c-0.2,0.6-0.5,1.1-0.9,1.6C93.1,133.8,92.8,134.1,92.5,134.4z"/>
				<path fill="#4E798D" d="M96.1,113c-0.2-0.6-0.4-1-0.6-1.5c-0.2-0.6-0.2-1.2-0.1-1.8c0.4-1.1,1.4-1.4,2.2-0.6
					c0.5,0.5,0.9,1,1.3,1.6c0.3,0.5,0.7,0.6,1.3,0.3c0.8-0.4,1.7-0.6,2.7-0.6c0.5,0,1,0.1,1.3,0.6c0.2,0.6,0,1-0.4,1.4
					c-0.4,0.4-0.8,0.7-1.3,1c-0.3,0.2-0.4,0.4-0.1,0.7c0.2,0.2,0.4,0.5,0.5,0.8c0.3,1-0.3,1.9-1.4,1.9c-0.2,0-0.4-0.1-0.6-0.1
					c-0.5-0.3-0.8-0.1-1,0.4c-0.2,0.5-0.5,1-0.9,1.4c-0.4,0.4-0.9,0.6-1.5,0.4c-0.6-0.2-0.9-0.8-0.9-1.4c0-0.5,0.1-1,0.2-1.5
					c-0.3-0.3-0.5-0.1-0.7,0c-0.3,0.1-0.6,0.2-0.8,0.2c-0.9,0.1-1.6-0.2-1.8-0.9c-0.2-0.7,0.2-1.3,1-1.7
					C94.9,113.4,95.5,113.2,96.1,113z"/>
				<path fill="#4E798D" d="M92.6,152.7c-0.1,0.4,0,0.7,0.1,1c0.3,0.7,0.1,1.3-0.2,1.9c-0.5,1-1.6,1.2-2.3,0.3c-0.4-0.5-0.7-1-1-1.6
					c-0.2-0.4-0.4-0.5-0.8-0.2c-0.5,0.3-1,0.6-1.6,0.8c-0.5,0.2-1,0.2-1.4-0.3c-0.4-0.4-0.3-0.9,0-1.4c0.4-0.8,1.1-1.5,1.6-2.3
					c-0.1-0.3-0.5-0.4-0.7-0.5c-0.2-0.2-0.5-0.3-0.7-0.5c-0.5-0.4-0.6-1-0.3-1.4c0.3-0.5,0.7-0.6,1.2-0.5c0.8,0.2,1.6,0.4,2.3,0.7
					c0.6,0.3,1,0.1,1.4-0.4c0.5-0.6,1.1-1.1,1.7-1.6c0.3-0.3,0.6-0.4,1-0.2c0.4,0.2,0.4,0.6,0.4,0.9c-0.1,0.5-0.2,1-0.3,1.5
					c-0.1,0.3,0,0.6,0.4,0.7c0.4,0.1,0.8,0.3,1.2,0.4c0.6,0.3,0.9,0.7,0.8,1.3c0,0.6-0.4,1-1.1,1.2c-0.3,0.1-0.6,0.1-0.9,0.1
					C93.1,152.6,92.8,152.6,92.6,152.7z"/>
				<path fill="#4E798D" d="M60.7,128.3c-0.5,0-0.8,0-1.2-0.1c-0.4,0-0.8-0.2-1-0.6c-0.2-0.5,0-0.9,0.3-1.2c0.4-0.5,1-0.9,1.6-1.1
					c0.7-0.3,0.9-0.8,0.8-1.5c0-0.4,0-0.9,0.1-1.3c0.2-1,1-1.3,1.8-0.8c0.6,0.3,1,0.8,1.4,1.3c0.5,0.7,0.5,0.7,1.3,0.4
					c0.7-0.2,1.3-0.5,2-0.6c0.5-0.1,0.9-0.1,1.2,0.4c0.3,0.5,0,0.9-0.3,1.2c-0.5,0.5-1.1,0.9-1.6,1.4c-0.6,0.5-0.6,0.6-0.2,1.3
					c0.2,0.3,0.4,0.6,0.5,1c0.4,1-0.3,1.8-1.3,1.7c-0.4-0.1-0.9-0.2-1.3-0.4c-0.5-0.2-0.7-0.1-1,0.3c-0.3,0.5-0.6,0.9-1,1.3
					c-0.6,0.6-1.2,0.8-1.7,0.6c-0.7-0.3-0.8-1-0.8-1.7C60.5,129.4,60.6,128.9,60.7,128.3z"/>
				<path fill="#4E798D" d="M113.6,134.2c0.2,0.4,0.6,0.4,0.9,0.6c0.4,0.3,0.5,0.7,0.4,1.2c-0.1,0.5-0.5,0.8-1,0.9
					c-0.6,0.1-1.1-0.1-1.6-0.3c-0.5-0.2-0.7-0.2-0.8,0.4c-0.1,0.5-0.2,0.9-0.5,1.3c-0.3,0.4-0.8,0.7-1.3,0.5c-0.5-0.2-0.8-0.5-0.8-1
					c0-0.5,0-0.9,0-1.5c-0.6-0.1-1,0.2-1.5,0.3c-0.6,0.1-1.2,0.2-1.7,0.1c-0.5-0.1-1-0.4-1-1c-0.1-0.6,0.3-1,0.8-1.2
					c0.4-0.2,0.8-0.3,1.2-0.4c0.4-0.1,0.8-0.3,1.3-0.4c0.1-0.4-0.1-0.7-0.2-1c-0.2-0.6-0.3-1.3-0.1-1.9c0.1-0.5,0.4-1,0.9-1.1
					c0.5-0.1,0.9,0.2,1.3,0.5c0.4,0.4,0.7,0.9,0.9,1.5c0.2,0.4,0.4,0.5,0.8,0.3c0.7-0.3,1.5-0.5,2.3-0.6c0.2,0,0.4-0.1,0.5-0.1
					c0.7,0,1.2,0.2,1.4,0.7c0.2,0.6,0,1.1-0.4,1.5C114.6,133.5,114.1,133.8,113.6,134.2z"/>
				<path fill="#4E798D" d="M49.2,116.7c0.2,0.1,0.3,0.2,0.4,0.3c0.5,0.2,0.7,0.6,0.7,1.1c-0.1,0.6-0.4,1-1,1
					c-0.7,0.1-0.8,0.4-0.7,1c0.1,0.7,0,1.4-0.2,2c-0.2,0.6-0.6,1-1.3,1c-0.6,0-1.1-0.3-1.4-1c-0.4-0.8-0.4-1.8-0.6-2.7
					c-0.6,0-1.1,0.4-1.5,0.6c-1.1,0.5-1.8,0.4-2.2-0.2c-0.3-0.6,0-1.2,1-1.9c0.3-0.2,0.7-0.5,1-0.7c0.4-0.3,0.6-0.6,0.3-1.1
					c-0.3-0.5-0.5-1.1-0.6-1.6c-0.1-0.6,0.1-1.1,0.6-1.4c0.5-0.3,1.1-0.2,1.5,0.2c0.4,0.3,0.9,0.7,1.3,1c0.4,0.3,0.7,0.4,1.2,0.2
					c0.6-0.3,1.3-0.5,2-0.7c0.4-0.1,0.8-0.2,1.1,0.2c0.3,0.4,0.2,0.8,0,1.2C50.3,115.8,49.8,116.2,49.2,116.7z"/>
				<path fill="#4E798D" d="M51.5,129.9c0.4,0.3,0.9,0.4,1.3,0.6c0.3,0.1,0.6,0.3,0.6,0.7c0,0.4-0.2,0.6-0.5,0.8
					c-0.1,0.1-0.3,0.1-0.4,0.2c-0.8,0.3-1.5,0.6-1.5,1.7c0,0.4-0.3,0.8-0.9,0.8c-0.5,0-0.7-0.3-0.9-0.7c-0.2-0.3-0.3-0.7-0.4-1
					c-0.5,0-0.8,0.4-1.2,0.6c-0.4,0.1-0.8,0.3-1.1-0.1c-0.3-0.4-0.1-0.8,0.2-1.2c0.1-0.2,0.3-0.3,0.5-0.5c0.7-0.7,0.7-0.8,0.1-1.6
					c-0.4-0.6-0.4-1.2-0.1-1.6c0.4-0.4,0.8-0.4,1.5-0.1c0.1,0.1,0.3,0.1,0.4,0.2c0.4,0.4,0.7,0.3,1.1,0c0.3-0.2,0.7-0.5,1-0.6
					c0.5-0.2,0.9,0.1,0.7,0.7c0,0.2-0.1,0.4-0.2,0.6C51.6,129.6,51.5,129.7,51.5,129.9z"/>
				<path fill="#4E798D" d="M81.9,119.1c-0.4,0-0.8,0.4-1.2,0.4c-0.3,0-0.7,0-0.9-0.3c-0.2-0.3-0.1-0.6,0-0.9c0,0,0-0.1,0.1-0.1
					c0.9-0.6,0.8-1.3,0.2-2.2c-0.3-0.4,0.1-1.3,0.4-1.5c0.5-0.3,0.8-0.1,1.2,0.2c0,0,0.1,0,0.1,0.1c0.7,0.8,1.4,0.8,2.1,0
					c0.1-0.1,0.2-0.2,0.4-0.2c0.6-0.2,1,0.1,0.9,0.8c0,0.2-0.1,0.3-0.2,0.5c-0.3,0.8-0.3,0.8,0.4,1.1c0.3,0.2,0.5,0.4,0.5,0.8
					c0,0.4-0.2,0.6-0.6,0.7c-0.2,0.1-0.4,0.1-0.5,0.1c-0.5,0-0.7,0.2-0.7,0.7c0,0.2-0.1,0.4-0.2,0.6c-0.2,0.4-0.5,0.7-1,0.7
					c-0.5,0-0.7-0.3-0.8-0.8C82,119.6,82.1,119.3,81.9,119.1z"/>
			</g>
		</g>
	</g>
</g>
</svg>
