<?xml version="1.0" encoding="utf-8"?>
<!-- Generator: Adobe Illustrator 25.2.2, SVG Export Plug-In . SVG Version: 6.00 Build 0)  -->
<svg version="1.2" baseProfile="tiny" id="OBJECTS" xmlns="http://www.w3.org/2000/svg" xmlns:xlink="http://www.w3.org/1999/xlink"
	 x="0px" y="0px" viewBox="0 0 213.4 165.5" overflow="visible" xml:space="preserve">
<g>
	<g>
		<path fill="#FFB064" d="M99.2,15.2c1.3,1.1,2.6,1.6,3.9,2.2c2.2,1,4.5,1.7,6.9,2.2c0.7,0.2,1.4,0.3,2,0.6c1.3,0.8,1.4,2.5,0,3.3
			c-1,0.6-2.1,0.8-3.3,0.5c-3.7-0.7-7-2.3-10-4.5c-0.6-0.4-1-0.9-1.5-1.4c-1.6-1.8-1-4.2,1.3-4.9c2.5-0.8,5-1.4,7.6-1.7
			c0.7-0.1,1.4-0.2,2.1-0.3c0.5-0.1,0.9-0.2,1.3-0.5c0.6-0.4,0.6-0.6,0.2-1.1c-0.8-1-1.8-1.7-2.7-2.5c-1.4-1.2-2.9-2.3-4-3.9
			c-0.3-0.4-0.5-0.8-0.6-1.3c-0.1-0.7,0-1.3,0.6-1.7c0.5-0.4,1.1-0.2,1.6,0.1c1.9,1.2,3.7,2.5,5.5,3.8c1.2,0.9,2.4,1.8,3.3,3.1
			c0.6,0.8,1.1,1.7,1.1,2.8c0,1-0.5,1.9-1.3,2.4c-1.3,0.9-2.7,1.4-4.3,1.4c-1.7,0-3.4,0.1-5.1,0.2C102.1,14.1,100.7,14.5,99.2,15.2z
			"/>
		<path fill="#FFB064" d="M114.4,36.8c-0.3-0.4-0.7-0.6-1.1-0.8c-0.4-0.3-0.9-0.7-1.1-1.2c-0.2-0.4-0.3-0.9,0-1.3
			c0.3-0.4,0.7-0.5,1.2-0.4c0.4,0.1,0.8,0.1,1.2,0.3c1.1,0.4,2.3,0.8,3.4,1.2c0.2,0.1,0.3,0.1,0.5,0.2c1.4,0.8,1.5,2.4,0.2,3.4
			c-1.2,1-2.6,1.8-4,2.5c-0.4,0.2-0.7,0.4-1.1,0.5c0.1,0.4,0.5,0.5,0.8,0.6c0.7,0.2,1.5,0.5,2.1,0.9c0.5,0.4,1.1,0.8,1.1,1.6
			c0,0.9-0.7,1.5-1.6,1.4c-0.6-0.1-1-0.4-1.5-0.7c-0.6-0.5-1.3-1-1.9-1.5c-0.9-0.6-1.3-1.5-1.6-2.5c-0.2-0.8,0-1.5,0.6-2.1
			c0.4-0.4,0.8-0.8,1.3-1C113.4,37.4,113.9,37.1,114.4,36.8z"/>
	</g>
	<g>
		<path fill="#FFD078" d="M213.2,88.2c-1.4-6.7-8.7-9.3-13.6-12.9c-9.7-6.9-19.8-12.7-30.4-17.8c-18.9-9.1-36.9-14.2-56.6-4.9
			c-10.1,4.7-20.2,9.5-30.3,14.2c-15.9,7.5-31.6,16.4-46.5,25.9c-7.3,4.7-14.6,9.6-21.4,14.9c-4.7,3.7-10.8,7.9-13.4,13.6
			c-4,8.6,5.7,13.5,11.5,16.6c8.8,4.8,17.6,10,26.5,14.9c9.5,5.3,19.6,9.8,30.3,11.8c20.3,3.9,37.9-5.3,55.4-14.7
			c2.5,0,7.3-3.9,9.6-5.2c3.7-2,7.4-4,11.1-6c7.4-4,14.8-8,22.2-12c11-5.9,23.5-11.8,33-20.2C205.1,102.4,214.7,95.6,213.2,88.2z"/>
		<path fill="#CE9945" d="M213.2,88.4c-0.1-0.7-0.4-1.4-0.6-2c-6.6,10.4-19.4,16.9-22.9,20.2c-4.2,3.9-86.7,47.5-99.4,50.4
			c-12.6,2.9-20.6,2.9-52.6-15.7C17,129.1,7.3,121.5,3,117.7c-0.8,1.1-1.5,2.2-2.1,3.4c-4,8.6,5.7,13.5,11.4,16.6
			c8.8,4.8,17.6,10,26.5,15c9.5,5.4,19.6,9.8,30.3,11.8c20.2,3.9,37.9-5.2,55.4-14.6c2.5,0,7.3-3.9,9.6-5.2c3.7-2,7.4-4,11.1-6
			c7.4-4,14.8-8,22.2-11.9c11-5.9,23.5-11.7,33-20.2C205.1,102.6,214.7,95.7,213.2,88.4z"/>
	</g>
	<g>
		<path fill="#FFB064" d="M174.6,97.9c9.3-1.6,29.6-19.8,32.9-24.6c-18.3-23-61.1-35.2-61.1-35.2C125.3,38.5,107,62.9,107,62.9
			c-0.2,1.3,0.2,2.8,1.1,4.4C119.7,73.8,166.5,99.3,174.6,97.9z"/>
		<path fill="#CE9945" d="M174.6,97.9c-8.1,1.4-54.9-24.1-66.6-30.5c8.6,15.3,64.1,40.1,64.1,40.1c27.3-11.8,35.3-34.1,35.3-34.1
			C204.2,78.2,183.9,96.3,174.6,97.9z"/>
	</g>
	<g>
		<g>
			<path fill="#5C3920" d="M89.1,93.4c-0.8-7.2,2.5-15.7,6.6-18.8c3.2-1.8,6-3.7,9.4-5.3c2.2-1.1,3.4-3,5.6-4.1
				c4.8-2.6,10.5-0.8,15.2-3.3c11.7-5.5,16.5-13.8,27.7-14.4c5.3-0.7,10.7-1.4,15.9,0c4,1.9,8.7,4.4,12.2,7.4
				c5.7,6.6,7.3,15.3,3.4,22.9c-4,14.1-11.5,16.8-21.2,21.5c-13.3,9.7-15.2,16.1-30.9,18C104.7,120,89.7,102.6,89.1,93.4z"/>
			<g>
				<path fill="#463021" d="M152,100.9c-0.3,0-0.5,0-0.7-0.1c-0.6-0.3-0.7-0.8-0.4-1.3c0.3-0.4,0.8-0.7,1.2-0.9
					c3.2-1.5,6.2-3.4,8.9-5.7c1.1-0.9,2.1-1.9,3.2-2.8c0.3-0.3,0.7-0.6,1.1-0.7c0.6-0.2,0.9,0.1,0.9,0.7c-0.1,0.4-0.3,0.7-0.5,1.1
					c-0.7,1-1.5,1.9-2.5,2.8c-2.3,2.2-4.9,4-7.7,5.6c-0.8,0.5-1.7,0.9-2.6,1.2C152.6,100.8,152.3,100.9,152,100.9z"/>
				<path fill="#463021" d="M129.5,66.6c0,0.4-0.4,0.7-0.9,0.9c-0.9,0.5-1.9,0.7-2.8,0.8c-1,0.2-2.1,0.2-3.2,0.2
					c-1.9,0-3.8,0.1-5.7,0.4c-1.3,0.2-2.5,0.6-3.6,1.3c-0.3,0.2-0.7,0.4-1.1,0.5c-0.3,0.1-0.6,0.1-0.8-0.2c-0.2-0.3-0.1-0.6,0.1-0.8
					c0.2-0.2,0.5-0.4,0.7-0.5c2.1-1.6,4.6-2,7.1-2.1c1.4-0.1,2.8-0.2,4.2-0.2c1.4,0,2.7-0.4,4.1-0.7c0.4-0.1,0.9-0.2,1.3-0.1
					C129.3,66.1,129.5,66.2,129.5,66.6z"/>
				<path fill="#463021" d="M148.9,96.9c-0.6,0-1.1-0.1-1.2-0.7c-0.1-0.5,0.2-0.9,0.6-1.1c0.5-0.3,1.1-0.5,1.6-0.7
					c2.3-0.7,4.2-2,6-3.5c0.8-0.7,1.5-1.4,2.3-2c0.2-0.1,0.4-0.3,0.5-0.4c0.3-0.1,0.6-0.3,0.8-0.1c0.3,0.3,0.1,0.6,0,0.9
					c0,0.1-0.1,0.2-0.2,0.3c-2.5,3.5-5.7,6-10,7.1C149.3,96.9,149,96.9,148.9,96.9z"/>
				<path fill="#463021" d="M121.6,74.1c-1.4-0.1-2.8,0-4.1,0.2c-0.4,0-0.9,0.3-1.1-0.2c-0.1-0.5,0.4-0.6,0.7-0.8
					c1.1-0.6,2.2-0.9,3.4-1.1c0.8-0.1,1.5-0.2,2.3-0.2c1.3,0,2.5-0.2,3.6-0.6c0.5-0.2,1-0.2,1.5-0.2c0.8,0.1,0.9,0.3,0.5,1
					c-0.3,0.5-0.7,0.8-1.1,1c-1.1,0.6-2.2,0.9-3.4,0.9C123.1,74.1,122.4,74.1,121.6,74.1z"/>
			</g>
		</g>
		<g>
			<g>
				<g>
					<path fill="#FFD0B3" d="M132.8,85.7l4.9-2.4c0,0,2.3,0.6,2.5,1.5l-2.1,4.6C138.1,89.5,134.1,86.1,132.8,85.7z"/>
					<g>
						<path fill="#FFD0B3" d="M157.2,91.7c-5.8,0.1-10.8-1-15.7-3.2c-3.8-1.7-7.2-4-10.2-6.9c-2.8-2.7-5-5.7-6.6-9.2
							c-1-2.3-1.7-4.7-2.1-7.2c-0.3-1.9-0.3-3.9-0.2-5.8c0.2-2.7,0.8-5.3,2-7.8c1.4-3.2,3.4-6,5.9-8.4c1.8-1.8,3.9-3.2,6.1-4.4
							c0.5-0.3,1-0.5,1.4-1c0.4-0.5,1.1-0.6,1.6-0.9c3-1.3,6.1-2.1,9.4-2.5c2.5-0.3,5-0.3,7.5-0.1c3.5,0.2,6.9,1,10.2,2.3
							c3.6,1.4,6.9,3.2,9.9,5.7c1.9,1.5,3.6,3.2,5.1,5.1c2.3,2.9,4,6,5,9.5c0.5,1.7,0.9,3.4,1,5.2c0.1,0.9,0.2,1.9,0.2,2.8
							c-0.2,3.2-0.8,6.3-2.1,9.3c-1.6,3.8-4,6.9-7.1,9.6c-2.5,2.2-5.3,3.9-8.5,5.2c-2.6,1-5.3,1.8-8.1,2.2
							C160.3,91.7,158.5,91.7,157.2,91.7z"/>
						<g>
							<g>
								<path fill="#F48A74" d="M145.7,76.3c0-2.5,1.7-3.9,3.9-3.6c1.8,0.2,3.5,0.9,4.9,2c1.2,1,2.5,1.9,3.4,3.2
									c0.8,1.1,1.3,2.3,1.6,3.7c0.3,2-0.7,3.4-2.7,3.7c-1.3,0.2-2.6,0.1-3.9-0.4c-3.5-1.4-6-3.7-7.1-7.4c-0.1-0.2-0.1-0.4-0.1-0.6
									C145.7,76.7,145.7,76.4,145.7,76.3z"/>
								<path fill="#F48A74" d="M126.8,50.7c0.5,0,1.1,0.1,1.6,0.3c1.9,0.8,3.5,2.2,4.5,4c0.7,1.3,0.5,2.3-0.5,3.4
									c-0.8,0.8-2.1,1.1-3.2,0.6c-1.5-0.6-2.6-1.6-3.5-2.9c-0.4-0.5-0.7-1.1-1.1-1.7C123.4,52.7,124.4,50.5,126.8,50.7z"/>
							</g>
							<path fill="#954334" d="M133,71c0.1-0.9,0.2-1.8,0.6-2.8c0.1-0.3,0.3-0.6,0.5-0.8c0.4-0.4,0.9-0.3,1,0.3c0.1,0.3,0,0.6,0,0.9
								c-0.1,0.7-0.2,1.3-0.3,1.9c-0.1,0.5-0.1,1.1,0.1,1.6c0.3,0.7,0.6,0.9,1.4,0.8c0.6-0.1,1.2-0.4,1.8-0.6c0.3-0.1,0.7-0.3,1-0.4
								c0.4-0.1,0.8-0.3,1.1,0.2c0.2,0.4-0.1,0.8-0.4,1c-1.2,0.9-2.5,1.5-4.1,1.4C134,74.3,133,72.9,133,71z"/>
							<g>
								<path fill="#F4B49B" d="M142.8,59c0,1.6-1,2.9-2.8,3.7c-0.7,0.3-1.5,0.5-2.2,0.4c-1.3-0.1-2.3-0.9-2.6-2.2
									c-0.1-0.4-0.2-0.8-0.3-1.3c-0.3-1.2,0.3-2,1.5-2.2c0.4-0.1,0.8-0.1,1.2,0c0.7,0,1.4,0.2,2.2-0.3c0.5-0.3,1.3-0.1,2,0
									C142.5,57.3,142.8,58,142.8,59z"/>
								<path fill="#954334" d="M136,57.6c-0.2,1.1-0.1,2.2-0.7,3.1c-1-1.3-1.1-3.6-0.2-4.8c0.3-0.4,0.7-0.5,1.1-0.1
									c1.1,1.2,2.4,1.2,3.8,1c0.5-0.1,1-0.3,1.2,0.3c0.2,0.4-0.2,0.9-0.9,1.1c-1.2,0.4-2.3,0.3-3.4-0.2
									C136.7,57.9,136.4,57.8,136,57.6z"/>
							</g>
							<g>
								<g>
									<path fill="#F4B49B" d="M156.7,67.3c0.6,0.1,1.2,0.4,1.9,0.8c0.3,0.2,0.5,0.6,0.4,1.1c-0.1,0.6-0.6,0.9-1.1,0.9
										c-0.9,0-1.7-0.3-2.2-0.9c-0.3-0.4-0.3-0.8-0.2-1.2C155.7,67.4,156.1,67.3,156.7,67.3z"/>
									<path fill="#5C3920" d="M150.3,71c0.4-0.3,0.8-0.4,1.2-0.6c0.5-0.3,0.7-0.8,0.5-1.3c-0.1-0.2-0.3-0.2-0.4-0.2
										c-0.5,0-1-0.2-1.5-0.4c-0.3-0.2-0.6-0.4-0.7-0.8c-0.1-0.3,0-0.5,0.3-0.5c0.5,0,1,0,1.5,0.1c0.2,0.1,0.5,0.1,0.8,0.1
										c0.3,0,0.4-0.2,0.4-0.4c0.1-0.2,0-0.3-0.2-0.4c-0.3-0.2-0.7-0.3-1-0.5c-0.6-0.4-0.9-0.8-0.8-1.6c0.7,0,1.2,0.4,1.7,0.6
										c1,0.3,0.8,0.5,1.4-0.4c0.3-0.5,0.6-1,1.1-1.4c0.2-0.1,0.3-0.3,0.6-0.2c0.2,0.1,0.3,0.3,0.3,0.6c-0.1,0.4-0.2,0.9-0.3,1.3
										c-0.2,0.9-0.6,1.8-0.7,2.7c-0.4,2.2,0.1,3.6,2.9,3.2c0.7-0.1,1.5-0.2,2.2-0.1c0.6,0,0.7,0.3,0.6,0.8
										c-0.2,0.7-0.7,1.2-1.5,1.5c-1.7,0.7-4.2,0.8-5.7-1.1c-0.2-0.3-0.4-0.4-0.8-0.3C151.5,71.8,150.8,71.7,150.3,71z"/>
									<path fill="#5C3920" d="M164.1,68.1c-0.3-0.8-0.6-1.4-0.8-2.1c-0.7-2.3-2.3-3.8-4.5-4.8c-0.3-0.1-0.6-0.3-0.9-0.4
										c-0.2-0.1-0.4-0.3-0.3-0.5c0.1-0.2,0.3-0.3,0.5-0.3c0.3,0,0.5,0.1,0.7,0.2c1.1,0.4,2.1,0.9,3,1.5c1.6,1.1,2.4,2.7,2.6,4.6
										C164.6,66.9,164.6,67.5,164.1,68.1z"/>
								</g>
								<g>
									<path fill="#F4B49B" d="M137.3,49.1c-0.6,0-1.1-0.2-1.6-0.7c-0.5-0.6-0.4-1.2,0.2-1.7c0.7-0.4,2-0.4,2.6,0.2
										c0.3,0.3,0.4,0.7,0.3,1.1c-0.1,0.5-0.4,0.8-0.9,1C137.8,49.1,137.5,49.1,137.3,49.1z"/>
									<path fill="#5C3920" d="M131.2,51.7c0.8-0.4,1.5-0.7,2.2-1c0.2-0.1,0.6-0.2,0.4-0.5c-0.1-0.3-0.3-0.5-0.8-0.4
										c-0.5,0.2-1.1,0.3-1.6,0.1c-0.3-0.1-0.6-0.2-0.9-0.4c-0.4-0.4-0.3-0.6,0.2-0.8c0.5-0.1,1-0.2,1.5-0.3
										c0.3-0.1,0.7-0.1,0.8-0.6c0-0.5-0.4-0.5-0.6-0.6c-0.4-0.2-0.9-0.3-1.2-0.7c-0.3-0.3-0.5-0.6-0.3-1c0.2-0.4,0.6-0.3,0.9-0.2
										c0.6,0.2,1.3,0.6,1.9,0.6c0.5-0.1,1-0.7,1.4-1.1c0.1-0.1,0.2-0.2,0.4-0.2c0.4-0.1,0.8-0.3,1.1,0.2c0.3,0.4,0,0.7-0.2,1
										c-0.4,0.5-0.8,0.9-1.1,1.5c-0.6,1.1-0.3,2.1,0.9,2.6c0.7,0.3,1.5,0.3,2.3,0.1c1-0.2,1.9-0.5,2.8-0.8c0.5-0.2,1-0.4,1.6-0.3
										c0.5,0,0.6,0.3,0.4,0.7c-0.2,0.4-0.6,0.7-0.9,0.9c-2,1-4,1.7-6.2,1c-0.4-0.1-0.7,0-1,0.3c-0.9,0.7-2,1.1-3.2,0.6
										C131.6,52.1,131.4,52,131.2,51.7z"/>
									<path fill="#5C3920" d="M138.6,41.7c0.5-0.5,1.1-0.6,1.8-0.4c1.9,0.5,3.4,1.6,4.3,3.5c0.3,0.6,0.4,1.2,0.1,1.8
										c-0.1,0.2-0.3,0.4-0.6,0.4c-0.2,0-0.4-0.2-0.4-0.4c-0.5-2.4-2.5-3.4-4.4-4.4c-0.2-0.1-0.3-0.1-0.5-0.2
										C138.8,41.9,138.8,41.8,138.6,41.7z"/>
								</g>
							</g>
						</g>
					</g>
				</g>
				<path fill="#F4B49B" d="M152.6,44.9c0,0.4,0,0.8,0,1.2c-0.1,2.4,2.6,4.4,4.8,3.6c0.2-0.1,0.4-0.1,0.6-0.2c0.9-0.2,1.5,0,2,0.9
					c0.3,0.6,0.6,1.3,0.7,2c0.1,1,0.4,1.9,0.7,2.9c0.2,0.6,0.5,1.1,0.9,1.6c0.9,1,2,1.9,3.1,2.6c0.8,0.5,1.6,1,2.3,1.6
					c1.3,1,2,2.3,2,3.9c0,0.4,0,0.8,0,1.2c-0.1,1,0.4,1.7,1.3,2.1c0.6,0.3,1.2,0.5,1.7,1c0.8,0.8,0.6,1.4-0.3,1.9
					c-1,0.5-1.9,0.1-2.8-0.3c-1.9-1-3-2.6-2.7-4.8c0.2-1.7-0.5-2.7-1.9-3.5c-1.1-0.7-2.1-1.4-3.1-2.2c-1.9-1.5-3.1-3.4-3.6-5.7
					c-0.1-0.5-0.2-0.9-0.2-1.4c0-0.5-0.2-0.6-0.7-0.5c-3.7,0.5-7-2.1-7.5-5.7c-0.1-0.5-0.3-1.1-0.1-1.6c0.2-0.4-0.1-0.7-0.5-0.8
					c-0.1,0-0.1,0-0.2,0c-2.5,0-4.3-1.3-5.7-3.1c-0.3-0.3-0.6-0.4-1-0.4c-0.9,0-1.8-0.2-2.6-0.6c-1-0.5-1.5-1.3-1.5-2.2
					c0-0.3,0.1-0.6,0.3-0.8c0.6-0.7,1.4-0.7,1.8,0.1c0.3,0.5,0.6,0.7,1.1,0.7c0.8,0.1,1.6,0.2,2.4,0.2c0.7,0,1.2,0.2,1.6,0.8
					c1.1,1.8,3,2.8,5,2.5c1.6-0.2,2.3,0.3,2.4,2C152.6,44.1,152.6,44.5,152.6,44.9C152.6,44.9,152.6,44.9,152.6,44.9z"/>
			</g>
			<g>
				<path fill="#F48A74" d="M167.7,88.1c-0.8,0-1.5,0-2.3-0.2c-2.8-0.7-4.3-3.1-4.7-5.4c-0.1-0.8,0.1-1.3,0.9-1.5
					c2.1-0.5,3.9-1.8,5.8-2.7c1.1-0.6,2.3-1.2,3.3-1.9c0.9-0.6,1.8-0.6,2.7-0.1c2.4,1.3,3.4,4.4,2.2,7.1c-1.3,2.8-3.4,4.4-6.5,4.6
					C168.6,88.1,168.1,88.1,167.7,88.1z"/>
				<path fill="#954334" d="M169.8,83.6c-0.9-0.1-1.8-0.1-2.6-0.3c-0.9-0.3-1.4-0.9-1.3-1.5c0.1-0.6,0.7-1.1,1.6-1
					c1.5,0.1,3,0.2,4.4,0.5c0.7,0.2,1.1,0.6,1.1,1c0,0.5-0.4,0.9-1.1,1.1C171.3,83.6,170.5,83.6,169.8,83.6z"/>
			</g>
		</g>
		<g>
			<path fill="#5C3920" d="M169.6,68.8c-1.3-1.1-1.9-2.6-2.2-4.2c-0.1-0.6-0.3-1.2-0.4-1.8c-0.3-1.2-0.9-2.1-1.9-2.7
				c-0.6-0.4-1.3-0.8-2-1.2c-1.2-0.7-2.2-1.6-3-2.7c-0.8-1.1-1.2-2.3-1.2-3.7c0-1.1-1.1-2.2-2.1-2.3c-0.7-0.1-1.4-0.2-2-0.4
				c-2.4-0.7-3.6-2.5-3.3-5c0.1-1.2,0.1-1.3-1.1-1.6c-1.1-0.3-2.2-0.4-3.2-0.6c-1.4-0.3-2.2-1.2-2.9-2.3c-0.4-0.7-0.8-1-1.5-1
				c-0.5,0-0.9-0.1-1.4-0.2c-0.8-0.1-1.5-0.4-2-1c-1.5-1.4-1-3.6,0-4.9c0.8-0.9,1.8-1.5,2.9-2c3.1-1.5,6.4-2.2,9.8-2.4
				c3-0.2,5.9-0.2,8.8,0.6c1.7,0.5,3.3,1.1,4.8,2.1c0.6,0.4,1.2,0.9,1.8,1.5c0.8,0.8,1.3,1.7,1.3,2.9c0,0.4,0.1,0.6,0.5,0.7
				c4,0.6,7.1,2.8,9.9,5.5c2.4,2.2,4.1,5,5.6,7.8c1.1,2.1,2.2,4.1,2.7,6.5c0.4,3.2,0.9,6.4,0.7,9.7c-0.2,3.1-1.3,5.8-2.1,8.7
				c-0.5,1.9-1.1,3.8-2.2,5.4c-0.8,1.2-1.9,2.1-2.9,3.1c-1.4,1.3-2.7,2.8-4.4,3.7c-1.7,1-3.8,1.3-5.5,0.4c2.4-0.5,3.1-2.6,3.9-4.7
				c0.8-2.2,0-4.7-1.6-6.3c-0.1-0.1-0.3-0.2-0.5-0.1c-0.6,0.2-1.3,0.3-1.9,0.6c-2.6,1.6-5.5,2.7-8.3,3.9c-1.4,0.6-2.9,0.8-4.4,0.9
				c-0.4,0-0.7,0-1.1-0.1c-0.9-0.3-1.1-1.2-0.6-1.9c0.9-1.2,2-2.2,3.4-2.9C163.3,74.5,166.7,72,169.6,68.8z"/>
			<g>
				<path fill="#463021" d="M176,47.3c0,0.7-0.2,1.3-0.6,1.9c-0.6,1.2-1.5,2.3-2.6,3.2c-1.5,1.2-3.1,2.2-4.9,2.9
					c-0.4,0.2-0.9,0.4-1.4,0.3c-0.7-0.1-1-0.7-0.5-1.3c0.3-0.4,0.7-0.6,1.1-0.8c1.3-0.7,2.5-1.3,3.7-2.1c1.7-1.1,3.1-2.6,3.9-4.6
					c0.1-0.3,0.2-0.7,0.6-0.6c0.4,0.1,0.5,0.5,0.5,0.9C176,47.2,176,47.3,176,47.3z"/>
				<path fill="#463021" d="M184.3,61.3c0,0.3-0.1,0.7-0.3,1.2c-1.2,3-3.2,5.4-6,7.2c-0.4,0.3-0.8,0.5-1.3,0.5c-0.6,0-0.9-0.4-0.7-1
					c0.2-0.4,0.5-0.7,0.8-1c0.6-0.4,1.2-0.9,1.7-1.3c1.7-1.4,3.1-3.1,4.2-5c0.2-0.4,0.4-0.7,0.6-1c0.1-0.2,0.4-0.4,0.6-0.3
					C184.3,60.5,184.3,60.8,184.3,61.3z"/>
				<path fill="#463021" d="M163,34.3c-0.2,0.2-0.4,0.1-0.5,0c-2.8-1.4-5.7-1.3-8.6-1c-1.8,0.2-3.6,0.7-5.4,1.1
					c-0.4,0.1-0.8,0.2-1.2,0.2c-0.2,0-0.4,0.1-0.5-0.2c-0.1-0.2,0.1-0.3,0.2-0.5c0.2-0.3,0.5-0.4,0.8-0.6c4-1.6,8.1-2.2,12.3-1.1
					c1,0.3,1.9,0.8,2.6,1.5C162.9,34,163.1,34.1,163,34.3z"/>
				<path fill="#463021" d="M160.6,79.1c-0.2,0-0.5,0.1-0.6-0.3c-0.1-0.3,0.1-0.4,0.3-0.5c0.4-0.3,0.7-0.5,1.1-0.7
					c3.6-1.8,6.9-4.1,9.8-6.9c0.2-0.2,0.5-0.7,0.9-0.4c0.4,0.3,0.1,0.8-0.1,1.1c-0.8,1.3-2,2.4-3.2,3.3c-2.1,1.6-4.3,3-6.7,4
					C161.6,79,161.1,79.2,160.6,79.1z"/>
				<path fill="#463021" d="M169,59.2c0.4-0.6,1-1,1.6-1.4c0.5-0.4,1.1-0.7,1.7-1.1c1.9-1.2,3.6-2.7,4.8-4.6c0.2-0.3,0.4-0.9,1-0.7
					c0.6,0.3,0.3,0.9,0.2,1.3c-0.3,1.1-0.9,2.1-1.7,2.9c-1.4,1.6-3.2,2.8-5.1,3.6c-0.5,0.2-1,0.4-1.6,0.3
					C169.5,59.6,169.2,59.5,169,59.2z"/>
				<path fill="#463021" d="M181.3,59c0,0.6-0.2,1.2-0.5,1.7c-1.3,2.7-3.4,4.5-6,5.9c-0.5,0.3-1,0.4-1.4,0.1
					c-0.3-0.2-0.1-0.9,0.6-1.4c0.7-0.6,1.4-1.1,2.2-1.7c1.7-1.3,3.1-2.9,4.1-4.9c0.2-0.3,0.2-0.8,0.7-0.7
					C181.4,58.2,181.2,58.7,181.3,59z"/>
				<path fill="#463021" d="M168.8,40.4c0,0.3-0.3,0.4-0.5,0.5c-0.6,0.2-1.2,0.5-1.8,0.7c-2.4,0.8-4.8,1.7-7,2.9
					c-0.2,0.1-0.3,0.2-0.5,0.2c-0.3,0.1-0.6,0.4-0.9,0.1c-0.3-0.3-0.1-0.7,0.1-1c0.2-0.4,0.5-0.7,0.9-1c0.7-0.6,1.5-1,2.4-1.3
					c1.9-0.7,3.8-1.1,5.8-1.5c0.4-0.1,0.8-0.1,1.2-0.1C168.6,40,168.8,40.1,168.8,40.4z"/>
				<path fill="#463021" d="M161.1,36.1c-0.1,0.2-0.2,0.2-0.3,0.2c-3.1-0.4-6,0.1-9,1.1c-0.7,0.2-1.4,0.5-2.2,0.6
					c-0.3,0-0.7,0.1-0.9-0.3c-0.1-0.3,0.1-0.6,0.3-0.9c0.3-0.3,0.8-0.5,1.2-0.7c2.5-1,5.1-1.1,7.8-0.9c0.7,0.1,1.4,0.1,2.1,0.3
					C160.5,35.6,160.9,35.6,161.1,36.1z"/>
				<path fill="#463021" d="M183.7,68.8c0,0.7-0.2,1.2-0.5,1.7c-1.1,2-2.8,3.4-4.8,4.5c-0.2,0.1-0.3,0.1-0.5,0.2
					c-0.3,0-0.5,0.1-0.7-0.2c-0.2-0.3,0-0.5,0.1-0.7c0.2-0.3,0.5-0.6,0.8-0.8c1.8-1.4,3.5-2.8,4.8-4.8c0-0.1,0.1-0.1,0.1-0.2
					c0.2-0.2,0.3-0.3,0.6-0.2C183.8,68.5,183.7,68.7,183.7,68.8z"/>
				<path fill="#463021" d="M161.4,47.6c-0.3,0-0.6,0-0.7-0.2c-0.2-0.3,0.1-0.5,0.2-0.7c0.2-0.2,0.4-0.4,0.7-0.5
					c1.9-1,3.7-1.9,5.8-2.5c0.5-0.1,1.1-0.4,1.4,0.2c0.3,0.7-0.4,0.9-0.8,1.1c-1.8,0.9-3.7,1.7-5.6,2.4
					C162,47.5,161.7,47.6,161.4,47.6z"/>
				<path fill="#463021" d="M178.4,79.3c-0.5,0-0.7,0-0.9-0.4c-0.2-0.4,0.1-0.6,0.3-0.8c0.2-0.2,0.4-0.3,0.7-0.4
					c1.7-0.8,3-2.1,4.2-3.5c0,0,0-0.1,0.1-0.1c0.2-0.3,0.4-0.7,0.9-0.5c0.5,0.2,0.3,0.7,0.2,1.1c-0.1,0.2-0.2,0.5-0.3,0.7
					c-1.1,1.6-2.5,3-4.4,3.7C178.8,79.2,178.5,79.3,178.4,79.3z"/>
			</g>
		</g>
		<path fill="#D77D79" d="M142.9,99.3c0.1,0.8,0.3,1.6,0.3,2.4c0,1.5-1.3,2.3-2.6,1.5c-3.6-2.2-7.4-3.9-10.8-6.3
			c-2.4-1.7-4.7-3.6-7-5.4c-2.2-1.8-4.6-3.4-6.9-5.1c-3-2.2-5.9-4.4-8.9-6.6c-0.4-0.3-0.7-0.6-0.9-1c-0.4-0.9,0.2-1.8,1.1-1.6
			c0.9,0.2,1.6-0.2,2.3-0.2c1.9-0.2,3.7-0.1,5.6,0.1c0.7,0.1,1.3,0.1,2,0.3c2.6,0.5,4.8,1.7,7,3c0.4,0.2,0.7,0.5,1.1,0.7
			c1.8,1.4,3.9,2.2,6.1,2.5c1,0.2,2,0.5,3,0.7c0.4,0.1,0.7,0.4,1,0.7c1,1.2,2.1,2.3,3.4,3.3c0.8,0.6,1.3,1.5,1.8,2.3
			c1.1,1.8,1.6,3.9,2,6c0.2,0.8,0.3,1.6,0.4,2.4C142.6,99.1,142.7,99.2,142.9,99.3z"/>
	</g>
	<g>
		<g>
			<path fill="#FDF7D9" d="M153.8,112.3c-0.2-0.6-0.2-1.2-0.3-1.8c-0.1-2-0.8-3.7-2-5.2c-1.2-1.5-2.1-3.2-3.5-4.6
				c-1-1-2.1-1.8-3.1-2.8c-1-1-2.1-1.8-3.2-2.7c-4-3.1-8.3-5.9-12.3-9c-2-1.6-4.2-2.9-6.3-4.3c-3.6-2.3-7.5-4.1-11.4-5.8
				c-3.3-1.4-6.5-3.1-9.6-4.9c-1.4-0.9-2.9-1.7-4.5-2.1c-2.5-0.8-5.2-1.2-7.8-1.3c-3.2-0.1-6.3-0.1-9.4,0.7
				c-0.8,0.2-1.8,0.2-2.4,0.8c-0.7-0.1-1.3,0.1-1.9,0.2c-4.3,1.2-8.6,2.4-12.7,4c-3.1,1.1-6.2,2-9.3,3.3c-6.5,2.7-12.9,5.5-19,9
				c-3,1.7-5.9,3.5-8.7,5.5c-3.2,2.2-6.1,4.8-9,7.3c-1.1,1-2.1,2.1-3,3.4c-1,1.5-1.6,3.1-2.6,4.6c-0.2,0.3-0.1,0.6-0.1,0.9
				c-0.1,0.1-0.2,0.2-0.3,0.3c-0.5,1.1-0.8,2.3-0.9,3.5c-0.1,1.7,0.1,3.4,0.5,5.1c0.4,1.7,0.7,3.4,1.5,5c1.6,2.9,3.8,5.3,6.3,7.4
				c4,3.2,8.4,5.7,12.8,8.1c4.9,2.7,10.1,4.7,15.3,6.7c2.3,0.8,4.5,1.7,6.7,2.6c3,1.2,5.9,2.5,8.9,3.5c3.8,1.2,7.5,2.4,11.5,2.9
				c1.9,0.2,3.7,0.3,5.6,0.1c2.3-0.2,4.5-0.8,6.6-1.7c4.4-1.8,8.6-3.7,12.8-5.9c3.4-1.7,6.7-3.5,10.1-5.3c1.3-0.7,2.5-1.3,3.8-2
				c3.6-2,7.1-4,10.7-6c3.5-1.9,7.1-3.8,10.7-5.5c5.8-2.8,11.2-6.2,16.7-9.6c1-0.6,1.8-1.4,2.4-2.5
				C153.7,113.6,154.1,113.1,153.8,112.3z"/>
			<path fill="#FFD078" d="M11.6,107.5c0-0.3-0.1-0.6,0.1-0.9c0.9-1.5,1.6-3.1,2.6-4.6c0.9-1.2,1.8-2.4,3-3.4c2.9-2.5,5.8-5.1,9-7.3
				c2.8-2,5.7-3.8,8.7-5.5c6.1-3.6,12.5-6.3,19-9c3-1.3,6.2-2.2,9.3-3.3c4.2-1.5,8.4-2.8,12.7-4c0.6-0.2,1.3-0.3,1.9-0.2
				c0.7,0.4,1.5,0.6,2.2,0.8c7.4,2.1,14.6,4.8,21.6,8c5.3,2.5,10.3,5.4,15.3,8.6c5.9,3.8,11.6,8,17,12.6c0.5,0.4,0.9,0.9,1.5,1
				c1,0.1,1.6,0.8,2.3,1.4c0.7,0.5,1.3,1.2,2,1.7c1.4,1.2,2.3,2.7,2.7,4.4c0.1,0.2,0.2,0.5,0.1,0.8c-0.4,2-1.4,3.7-3.2,4.7
				c-1.3,0.7-2.6,1.3-3.9,2.1c-4.4,2.6-8.9,5-13.5,7.3c-6.2,3.1-12.3,6.2-18.5,9.3c-1.6,0.8-3.1,1.5-4.8,2.2c-5,2.2-10,4.3-15.2,6.3
				c-3.2,1.2-6.5,1.8-9.9,2c-0.5,0-1,0-1.5,0.1c-0.8,0.2-1.5,0.1-2.3-0.1c-1.3-0.4-2.6-0.9-3.8-1.3c-5-1.6-10-3.4-14.8-5.6
				c-3.6-1.6-7.1-3.3-10.6-5c-4.8-2.3-9.4-4.8-13.8-7.8c-3.8-2.6-7.4-5.5-10.5-8.9c-1.2-1.3-2.4-2.7-3.3-4.3
				C12.6,108.8,12.1,108.2,11.6,107.5z"/>
		</g>
		<g>
			<path fill="#FFB064" d="M44.9,101.9c0.8,0,1.5,0.6,1.5,1.4c0,0.8-0.7,1.5-1.5,1.5c-0.7,0-1.4-0.7-1.4-1.4
				C43.5,102.7,44.2,102,44.9,101.9z"/>
			<g>
				<g>
					<path fill="#FFB064" d="M80.7,99.8c0,0.9-0.3,1.8-0.8,2.6c-0.4,0.7-0.8,0.8-1.4,0.2c-1.1-1.1-1.6-2.5-1.2-4
						c0.2-0.9,0.9-1.4,1.6-1.3c0.7,0,1.4,0.6,1.6,1.4C80.7,99,80.7,99.4,80.7,99.8z"/>
					<path fill="#FFB064" d="M78,105.8c-0.1,1.1-0.4,2.3-1.3,3.2c-0.6,0.7-1.3,0.9-1.9,0.6c-0.7-0.4-1-1.1-0.8-2
						c0.3-1.4,1.7-2.8,3-2.9C77.8,104.7,78,104.9,78,105.8z"/>
					<path fill="#FFB064" d="M73.4,101c1.4,0,2.7,0.9,3,2.1c0.2,0.8,0,1.2-0.8,1.4c-1.3,0.4-2.4,0-3.4-0.7c-0.6-0.4-0.7-1.3-0.5-1.9
						C72,101.4,72.6,101,73.4,101z"/>
					<path fill="#FFB064" d="M83.1,109.2c0,0.2,0,0.5-0.1,0.7c-0.3,1.1-1.4,1.4-2.2,0.7c-1-0.8-1.4-2.8-0.8-3.9
						c0.4-0.7,0.7-0.8,1.4-0.4C82.5,106.9,83.1,107.9,83.1,109.2z"/>
					<path fill="#FFB064" d="M83.7,99.7c0.9,0,1.5,0.7,1.3,1.5c-0.3,1.4-2,2.8-3.4,3.1c-0.3,0.1-0.5-0.1-0.6-0.4
						c-0.2-1.1,1.1-3.7,2.1-4.1C83.4,99.8,83.6,99.7,83.7,99.7z"/>
				</g>
				<g>
					<path fill="#FFB064" d="M70.9,127.9c0.1-1.2,0.6-2.4,1.6-3.3c0.6-0.6,1.6-0.7,2.2-0.3c0.7,0.5,0.9,1.3,0.5,2.2
						c-0.6,1.1-1.4,2.1-2.7,2.7C71.4,129.6,70.9,129.3,70.9,127.9z"/>
					<path fill="#FFB064" d="M70.4,125.1c0,0.8-0.1,1.6-0.6,2.3c-0.3,0.4-0.6,0.5-1,0.2c-0.4-0.3-0.7-0.6-1-1
						c-0.5-1-0.6-2.2-0.4-3.3c0.1-0.8,0.7-1.3,1.2-1.4c0.6-0.1,1.2,0.4,1.5,1.2C70.4,123.8,70.4,124.4,70.4,125.1z"/>
					<path fill="#FFB064" d="M67.9,131.6c0,0.6-0.3,1.5-0.7,2.4c-0.4,0.8-1.1,1.1-1.8,1c-0.8-0.2-1.3-0.9-1.2-1.8
						c0.1-1.3,1.8-2.8,3.1-2.9C67.9,130.2,68,130.3,67.9,131.6z"/>
					<path fill="#FFB064" d="M69.7,133c-0.1-0.6,0.1-1.2,0.3-1.8c0.2-0.5,0.5-0.7,0.9-0.3c0.8,0.7,1.6,1.5,1.9,2.6
						c0.3,0.9,0,1.7-0.8,2.1c-0.8,0.3-1.6-0.1-2-1C69.8,134.1,69.7,133.8,69.7,133z"/>
					<path fill="#FFB064" d="M64.8,129.4c-0.8-0.1-1.6-0.3-2.2-0.9c-0.5-0.4-0.7-1.1-0.4-1.7c0.2-0.5,0.9-0.8,1.5-0.8
						c1.1,0.1,2.5,1.2,2.8,2.2c0.1,0.4,0,0.7-0.4,0.9C65.6,129.3,65.2,129.4,64.8,129.4z"/>
				</g>
				<g>
					<path fill="#FFB064" d="M53,87.4c0,0.7-0.1,1.4-0.4,2.1c-0.3,0.7-0.6,0.8-1.2,0.3c-0.4-0.3-0.7-0.7-0.9-1.1
						c-0.3-0.7-0.4-1.5-0.5-2.3c0-0.3,0.1-0.6,0.2-0.9c0.2-0.5,0.5-0.9,1.1-0.9c0.6-0.1,1.1,0.2,1.4,0.7C53.1,85.9,53,86.6,53,87.4z
						"/>
					<path fill="#FFB064" d="M56.5,95.3c0,0.9-0.9,1.9-2.1,1.3c-1.1-0.6-2-2.1-1.8-3.3c0.1-0.8,0.6-1.1,1.4-0.9
						C55.2,92.7,56.5,94.1,56.5,95.3z"/>
					<path fill="#FFB064" d="M51,92.5c-0.1,1-0.6,2-1.3,2.9c-0.4,0.5-1,0.7-1.6,0.5c-0.5-0.2-1-0.9-0.9-1.5c0.1-1.4,1.7-3,3-3
						C51,91.4,51.1,91.4,51,92.5z"/>
					<path fill="#FFB064" d="M47.8,91.6c-0.8-0.1-1.5-0.3-2.2-0.8c-0.6-0.5-0.7-1.3-0.4-1.9c0.4-0.6,1.1-0.9,1.8-0.5
						c0.8,0.4,1.5,0.8,2,1.6c0.4,0.8,0.3,1.1-0.5,1.4C48.3,91.5,48,91.5,47.8,91.6z"/>
					<path fill="#FFB064" d="M58.2,87.3c0,0.3-0.1,0.6-0.4,0.9c-0.9,1-2,1.7-3.2,2.2c-0.5,0.2-0.8,0-0.7-0.6
						c0.4-1.4,1.2-2.6,2.4-3.4C57.1,85.9,58.2,86.4,58.2,87.3z"/>
				</g>
				<g>
					<path fill="#FFB064" d="M33.2,104.4c0.1,0,0.4,0.1,0.6,0.2c1.4,0.5,2.4,1.4,2.7,2.9c0.1,0.6,0.1,1.1-0.4,1.5
						c-0.5,0.4-1,0.4-1.6,0.1c-1.3-0.7-2.2-1.7-2.5-3.2C32,104.9,32.4,104.4,33.2,104.4z"/>
					<path fill="#FFB064" d="M32.8,98.9c0,0.3,0,0.5,0,0.6c-0.1,0.7-0.3,1.4-1,1.7c-0.7,0.3-1.2-0.3-1.7-0.8c-0.6-0.6-1-1.3-1.1-2.1
						c-0.1-0.8,0.3-1.4,1-1.8c0.6-0.3,1.3-0.2,1.9,0.4C32.6,97.4,32.8,98.3,32.8,98.9z"/>
					<path fill="#FFB064" d="M37.6,99.8c-0.1,0.4-0.2,0.7-0.5,1c-1.2,1.2-2.8,1.7-4.4,2.2c-0.4,0.1-0.5-0.1-0.5-0.5
						c0.3-1.5,2.3-3.5,3.8-3.7C36.9,98.6,37.7,99.2,37.6,99.8z"/>
					<path fill="#FFB064" d="M30.4,106.4c-0.1,0.5-0.1,1.1-0.2,1.6c-0.1,0.6-0.6,1-1.2,1.1c-0.7,0.1-1.1-0.2-1.4-0.8
						c-0.5-0.9-0.2-1.7,0.2-2.5c0.4-0.7,1-1.1,1.7-1.4c0.5-0.2,0.7-0.1,0.8,0.4C30.3,105.4,30.3,105.9,30.4,106.4z"/>
					<path fill="#FFB064" d="M27.3,103.9c-0.6,0-1.1,0-1.6-0.2c-0.5-0.2-0.8-0.5-0.9-1c0-0.5,0.3-0.8,0.6-1.1c1.2-0.7,3.4-0.2,4.1,1
						c0.2,0.4,0.1,0.6-0.3,0.8C28.7,103.8,28,103.9,27.3,103.9z"/>
				</g>
				<g>
					<path fill="#FFB064" d="M52.1,111.6c0,1.4-0.6,1.8-1.6,1.4c-1.3-0.5-2.1-1.5-2.3-2.8c-0.1-0.6,0.3-1.4,0.8-1.7
						c0.6-0.3,1.4-0.3,1.9,0.3C51.8,109.6,52.1,110.7,52.1,111.6z"/>
					<path fill="#FFB064" d="M57.8,110.3c0,0.3-0.1,0.5-0.2,0.7c-0.6,1.3-1.6,2-3,2.3c-0.5,0.1-0.8-0.1-0.9-0.5
						c0-0.1-0.1-0.2-0.1-0.3c-0.1-1.1,1-3,2-3.5C56.8,108.5,57.8,109.2,57.8,110.3z"/>
					<path fill="#FFB064" d="M46.4,116.4c-0.5,0-1.1-0.1-1.6-0.3c-0.5-0.3-0.9-0.7-0.9-1.4c0.1-0.6,0.5-1.1,1.1-1.2
						c1.4-0.3,2.6-0.1,3.6,0.9c0.6,0.6,0.5,1-0.2,1.4C47.9,116.2,47.2,116.4,46.4,116.4z"/>
					<path fill="#FFB064" d="M52.4,117.3c0,0.7-0.1,1.3-0.4,1.9c-0.3,0.6-0.9,1-1.5,0.9c-0.6-0.1-1.1-0.6-1.2-1.3
						c-0.1-1.1,0.2-2.1,1-2.9c0.4-0.4,0.9-0.6,1.4-0.4c0.5,0.2,0.6,0.7,0.6,1.2C52.4,117,52.4,117.1,52.4,117.3z"/>
					<path fill="#FFB064" d="M57.8,118.1c0,1-0.9,1.6-1.8,1.2c-1.1-0.4-1.9-2.4-1.4-3.5c0.1-0.2,0.2-0.3,0.4-0.3
						C56.2,115.4,57.8,116.9,57.8,118.1z"/>
				</g>
				<g>
					<path fill="#FFB064" d="M111.4,109.5c-0.2,1.3-0.8,2.5-1.8,3.5c-0.4,0.4-1.2,0.4-1.6,0.1c-0.4-0.3-0.6-0.9-0.5-1.4
						c0.2-1.2,2.1-2.8,3.4-2.9C111.3,108.7,111.4,108.9,111.4,109.5z"/>
					<path fill="#FFB064" d="M116.2,112.9c0,0.7-0.3,1.3-0.9,1.5c-0.6,0.3-1.1,0.1-1.6-0.4c-0.9-0.8-1.1-2.6-0.4-3.6
						c0.2-0.4,0.5-0.4,0.9-0.3C115.2,110.5,116.1,111.7,116.2,112.9z"/>
					<path fill="#FFB064" d="M113.1,103.6c0.1,0.9-0.1,1.7-0.4,2.5c-0.3,0.7-0.6,0.8-1.1,0.2c-0.4-0.5-0.7-1.1-0.8-1.8
						c-0.1-0.7-0.1-1.4,0-2.1c0-0.3,0.1-0.6,0.3-0.9c0.5-0.7,1.4-0.6,1.7,0.2C113.1,102.3,113.1,102.9,113.1,103.6z"/>
					<path fill="#FFB064" d="M108.7,108.3c-1.1,0-1.9-0.3-2.6-1c-0.4-0.4-0.6-0.8-0.3-1.4c0.2-0.5,0.7-0.7,1.2-0.7c1.1,0,2.7,1,3,2
						c0.1,0.3,0,0.6-0.3,0.7C109.4,108.2,109,108.3,108.7,108.3z"/>
					<path fill="#FFB064" d="M117.4,103.7c0.8,0,1.3,0.7,1.1,1.4c-0.2,0.6-0.5,1-1,1.4c-0.6,0.4-1.2,0.8-1.9,1
						c-0.3,0.1-0.6,0.1-0.7-0.3c-0.2-1.1,1.2-3.2,2.2-3.5C117.2,103.7,117.4,103.7,117.4,103.7z"/>
				</g>
				<g>
					<path fill="#FFB064" d="M93,117.7c-0.1,1-0.3,1.9-1,2.6c-0.6,0.6-1.2,0.5-1.7-0.2c-0.6-1-0.4-3,0.4-3.8
						c0.6-0.6,1.6-0.5,2.1,0.2C92.9,116.9,93,117.3,93,117.7z"/>
					<path fill="#FFB064" d="M90.1,124.8c0.1,1-0.3,1.8-0.7,2.6c-0.4,0.7-1.1,0.9-1.7,0.7c-0.6-0.2-0.9-0.8-0.9-1.6
						c0.1-1.2,1.3-2.6,2.5-2.9c0.5-0.1,0.7,0,0.8,0.5C90.1,124.3,90.1,124.5,90.1,124.8z"/>
					<path fill="#FFB064" d="M87.5,123c-0.9,0-1.7-0.2-2.3-0.9c-0.4-0.4-0.6-1-0.3-1.5c0.3-0.6,0.7-0.9,1.4-0.9
						c1.1,0,2.3,0.7,2.8,1.8c0.3,0.7,0.1,1.1-0.6,1.4C88.1,123,87.8,123,87.5,123z"/>
					<path fill="#FFB064" d="M94.7,127.3c0,0.6-0.2,1-0.7,1.3c-0.5,0.2-1,0.2-1.4-0.1c-1.1-0.8-1.4-3-0.5-4c0.2-0.2,0.4-0.3,0.7-0.1
						C93.7,125,94.6,125.9,94.7,127.3z"/>
					<path fill="#FFB064" d="M93.2,122.8c-0.4,0-0.6-0.2-0.6-0.6c0-1.1,0.9-2.6,1.9-3c0.6-0.3,1.1-0.2,1.4,0.1
						c0.4,0.4,0.3,0.9,0.1,1.3C95.5,121.7,94.1,122.7,93.2,122.8z"/>
				</g>
				<g>
					<path fill="#FFB064" d="M104.9,86.6c0.4,0,0.8,0.1,1.3,0.2c0.5,0.1,0.6,0.4,0.3,0.8c-0.9,1-1.8,2-3.1,2.5
						c-0.7,0.3-1.4,0.2-1.7-0.2c-0.4-0.5-0.3-1.3,0.2-1.9C102.5,87.1,103.5,86.6,104.9,86.6z"/>
					<path fill="#FFB064" d="M102.6,91c0.1,0,0.4,0.1,0.5,0.2c1,0.6,1.8,1.4,2.1,2.6c0.2,1-0.3,1.5-1.3,1.4c-1-0.1-2.4-1.4-2.7-2.4
						C101,91.8,101.6,91,102.6,91z"/>
					<path fill="#FFB064" d="M100.5,85.5c0,1-0.3,1.9-0.9,2.6c-0.4,0.4-0.6,0.5-1,0c-0.8-1-1.2-2.2-1-3.4c0.1-0.8,0.6-1.3,1.3-1.4
						c0.8,0,1.3,0.5,1.5,1.3C100.4,84.9,100.4,85.2,100.5,85.5z"/>
					<path fill="#FFB064" d="M96.1,94.2c0-0.9,1-2.4,1.9-2.7c0.6-0.2,1.2-0.1,1.6,0.4c0.4,0.5,0.5,1.1,0.1,1.6
						c-0.6,0.8-1.3,1.5-2.3,1.7C96.6,95.4,96.1,95,96.1,94.2z"/>
					<path fill="#FFB064" d="M95.9,89.8c-0.7-0.1-1.4-0.2-2-0.4c-0.5-0.2-0.8-0.7-0.8-1.2c0.1-0.5,0.5-0.9,1.1-1
						c1-0.1,2.5,0.7,3,1.7c0.2,0.5,0.1,0.7-0.4,0.8C96.5,89.7,96.2,89.7,95.9,89.8z"/>
				</g>
				<g>
					<path fill="#FFB064" d="M80.3,76.7c0.3,0,0.7-0.1,0.9,0.2c0.2,0.4-0.1,0.7-0.3,1c-0.6,0.8-1.4,1.5-2.2,2.1
						c-0.3,0.2-0.6,0.3-0.9,0.5c-0.5,0.2-1,0.2-1.4-0.3c-0.4-0.4-0.4-0.9-0.1-1.4c0.4-0.7,1-1.2,1.7-1.5
						C78.7,76.9,79.5,76.7,80.3,76.7z"/>
					<path fill="#FFB064" d="M79.4,85.4c-1.1,0-2.5-1.4-2.5-2.5c0-1,0.9-1.6,1.8-1.3c0.9,0.2,2,1.5,2.1,2.4
						C80.8,84.8,80.2,85.4,79.4,85.4z"/>
					<path fill="#FFB064" d="M75.2,84.7c-0.2,0.9-0.6,1.8-1.6,2.4c-0.5,0.3-0.8,0.2-1.1-0.3c-0.5-0.9,0.1-2.9,1-3.4
						C74.4,82.8,75.2,83.4,75.2,84.7z"/>
					<path fill="#FFB064" d="M72.3,76.5c0.3,0,0.6,0.1,0.8,0.3c0.7,0.6,1.1,1.4,1.2,2.3c0.1,0.7-0.2,1-0.9,0.9
						c-1-0.1-1.9-0.7-2.3-1.6C70.6,77.5,71.3,76.5,72.3,76.5z"/>
					<path fill="#FFB064" d="M69.4,83.5c-0.5,0-1,0-1.3-0.3c-0.3-0.2-0.5-0.5-0.5-0.9c0.1-0.4,0.3-0.6,0.7-0.8
						c0.3-0.1,0.6-0.2,1-0.2c0.8,0,1.6,0.2,2.3,0.5c0.6,0.2,0.6,0.5,0.1,0.9C71,83.3,70.2,83.6,69.4,83.5z"/>
				</g>
			</g>
			<g>
				<path fill="#FFB064" d="M35.7,117c0,1-0.7,1.6-1.7,1.6c-1,0-1.8-0.8-1.8-1.8c0-0.9,0.7-1.7,1.6-1.7
					C34.9,115.1,35.7,115.9,35.7,117z"/>
				<path fill="#FFB064" d="M116.6,90.8c0.9,0,1.7,0.8,1.7,1.8c0,0.9-0.8,1.7-1.6,1.8c-1,0-1.8-0.8-1.8-1.8
					C114.9,91.6,115.7,90.9,116.6,90.8z"/>
				<path fill="#FFB064" d="M53.4,125.6c0.9,0,1.6,0.7,1.6,1.7c0,1-0.8,1.8-1.6,1.9c-0.9,0-1.6-0.7-1.6-1.7
					C51.7,126.4,52.4,125.6,53.4,125.6z"/>
				<path fill="#FFB064" d="M66.9,113.6c0.9,0,1.6,0.7,1.7,1.5c0,0.9-0.7,1.7-1.6,1.7c-0.9,0-1.6-0.7-1.6-1.6
					C65.3,114.3,66,113.6,66.9,113.6z"/>
				<path fill="#FFB064" d="M82.2,133.9c0,0.9-0.7,1.6-1.6,1.6c-0.9,0-1.6-0.7-1.6-1.6c0-0.9,0.7-1.6,1.6-1.6
					C81.4,132.3,82.2,133,82.2,133.9z"/>
				<path fill="#FFB064" d="M64,101.2c0.8,0,1.5,0.7,1.5,1.5c0,0.9-0.7,1.6-1.6,1.6c-0.8,0-1.5-0.7-1.5-1.6
					C62.4,102,63.2,101.2,64,101.2z"/>
				<path fill="#FFB064" d="M72.5,93c0,0.9-0.7,1.5-1.6,1.5c-0.8,0-1.4-0.6-1.4-1.5c0-0.9,0.6-1.5,1.5-1.5
					C71.8,91.4,72.5,92.2,72.5,93z"/>
				<path fill="#FFB064" d="M129.8,110.3c0,0.9-0.7,1.6-1.5,1.5c-0.8,0-1.4-0.8-1.4-1.6c0.1-0.8,0.8-1.6,1.5-1.6
					C129.1,108.6,129.8,109.4,129.8,110.3z"/>
				<path fill="#FFB064" d="M84.9,90.8c0.8,0,1.5,0.7,1.5,1.5c0,0.8-0.7,1.4-1.6,1.3c-0.8,0-1.4-0.6-1.4-1.4
					C83.4,91.4,84,90.8,84.9,90.8z"/>
				<path fill="#FFB064" d="M63.4,79.8c0,0.8-0.7,1.4-1.5,1.4c-0.8,0-1.4-0.6-1.4-1.4c0-0.8,0.6-1.5,1.4-1.5
					C62.7,78.4,63.4,79,63.4,79.8z"/>
				<path fill="#FFB064" d="M105.9,122.5c0-0.8,0.6-1.6,1.3-1.6c0.7,0,1.3,0.6,1.3,1.5c0,0.8-0.7,1.6-1.3,1.6
					C106.5,124,106,123.3,105.9,122.5z"/>
				<path fill="#FFB064" d="M38.9,91.2c-0.8,0-1.4-0.6-1.4-1.3c0-0.7,0.6-1.3,1.3-1.3c0.8,0,1.4,0.6,1.4,1.3
					C40.2,90.6,39.6,91.2,38.9,91.2z"/>
				<path fill="#FFB064" d="M89.3,81.4c0-0.8,0.6-1.4,1.4-1.4c0.7,0,1.2,0.6,1.2,1.3c0,0.7-0.8,1.6-1.5,1.5
					C89.8,82.8,89.3,82.1,89.3,81.4z"/>
				<path fill="#FFB064" d="M94.2,107.9c0,0.6-0.5,1.1-1.1,1.2c-0.6,0-1.2-0.5-1.2-1.1c0-0.6,0.5-1.1,1.1-1.1
					C93.7,106.7,94.2,107.2,94.2,107.9z"/>
			</g>
		</g>
	</g>
	<g>
		<g>
			<path fill="#FFD0B3" d="M132.7,86.1c0.8,0.1,1.6,0.2,2.4,0.5c2.1,0.8,3.9,2,5.3,3.7c1,1.3,2,2.6,2.7,4.1c0.2,0.4,0.3,0.7,0.3,1.2
				c0,0.9-0.3,1.3-1.2,1.5c-0.6,0.1-1.1,0.5-1.7,0.7c-1.4,0.4-2.7,0.1-4-0.1c-1.1-0.2-2.2-0.6-3.2-1.1c-1.7-0.9-3.5-1.6-5.1-2.7
				c-0.7-0.5-1.5-0.9-1.9-1.8c-0.6-1.4,0.2-3.8,1.7-4.6C129.5,86.6,131.1,86.2,132.7,86.1z"/>
			<g>
				<path fill="#F48A74" d="M138.2,90.7c-0.1,0.2-0.3,0.3-0.5,0.4c-0.5,0.2-1.1,0.4-1.7,0.6c-0.7,0.2-1.3,0.4-1.9,0.7
					c-0.8,0.4-1.4,1-2,1.7c-0.2,0.3-0.5,0.8-0.9,0.6c-0.6-0.3-0.2-0.8-0.1-1.2c0.1-0.2,0.2-0.5,0.4-0.7c1.5-1.5,3.3-2.7,5.6-2.7
					c0.3,0,0.7,0,1,0.2C138.1,90.4,138.2,90.4,138.2,90.7z"/>
				<path fill="#F48A74" d="M136.1,88.6c0,0.3-0.3,0.3-0.6,0.4c-1.1,0.2-2.1,0.6-3.1,1c-1.1,0.4-1.9,1.1-2.3,2.2
					c-0.2,0.4-0.4,0.8-0.7,1.1c-0.2,0.2-0.4,0.3-0.7,0.2c-0.3-0.1-0.4-0.4-0.4-0.7c0-0.3,0.1-0.6,0.3-0.9c1.5-2.3,3.7-3.6,6.5-3.8
					c0.3,0,0.5,0,0.7,0.1C136,88.3,136.1,88.4,136.1,88.6z"/>
				<path fill="#F48A74" d="M139,92c0,0,0.1,0,0.1,0c0.4,0.1,1,0,1.1,0.6c0.1,0.5-0.4,0.6-0.8,0.7c-0.5,0.2-1,0.3-1.5,0.5
					c-1.3,0.4-2.4,1-3.2,2.1c-0.4,0.6-1,0.6-1.2,0.1c-0.1-0.2-0.1-0.4,0-0.6c0.1-0.3,0.3-0.6,0.6-0.8c1.1-0.7,2.1-1.6,3.3-2.1
					C137.8,92.2,138.4,92.1,139,92z"/>
			</g>
		</g>
		<g>
			<path fill="#FFD0B3" d="M110.2,80c-1.5,0-2.6-0.3-3.6-0.7c-2.1-0.8-4.2-1.6-6.2-2.7c-1-0.6-2-1.2-2.3-2.5
				c-0.3-1.2-0.1-2.3,0.8-3.3c1.9-2,4.3-3,7-3.1c1.2-0.1,2.3-0.2,3.5,0.1c3.1,0.8,5.4,2.5,6.9,5.3c0.1,0.1,0.1,0.3,0.2,0.4
				c1.4,2.3,0.2,3.8-1.3,4.8C113.5,79.4,111.7,79.9,110.2,80z"/>
			<g>
				<path fill="#F48A74" d="M107.4,70c0.5-0.1,1,0.1,1.5,0.3c0.2,0.1,0.4,0.1,0.3,0.4c0,0.2-0.1,0.3-0.3,0.3
					c-0.4,0.1-0.8,0.2-1.2,0.3c-1.4,0.3-2.7,0.7-3.9,1.4c-0.9,0.5-1.5,1.2-2.1,2c-0.2,0.3-0.5,0.7-1,0.5c-0.3-0.1-0.5-0.7-0.3-1.3
					c0.2-0.6,0.7-1.1,1.2-1.6C103,71.1,105.5,70,107.4,70z"/>
				<path fill="#F48A74" d="M110.6,72.6c0,0.2-0.2,0.4-0.4,0.5c-0.3,0.1-0.7,0.3-1,0.4c-2.1,0.6-4.1,1.6-5.4,3.4
					c-0.1,0.1-0.2,0.2-0.3,0.3c-0.3,0.2-0.6,0.2-0.8,0c-0.3-0.2-0.3-0.5-0.1-0.8c0.4-0.8,0.9-1.6,1.6-2.2c0.5-0.4,1.1-0.8,1.7-1
					c1.2-0.5,2.4-0.8,3.7-1.1c0.3-0.1,0.6-0.1,0.9,0C110.5,72.2,110.6,72.4,110.6,72.6z"/>
				<path fill="#F48A74" d="M112.6,74.2c0.1,0,0.2,0,0.4,0c0.4,0,0.8,0.1,0.9,0.5c0,0.5-0.4,0.5-0.8,0.6c-0.6,0.1-1.1,0.2-1.7,0.4
					c-1.5,0.3-2.9,1.1-4,2.1c-0.3,0.2-0.5,0.5-0.9,0.7c-0.3,0.1-0.6,0.2-0.8-0.1c-0.3-0.2-0.3-0.5-0.2-0.8c0.1-0.5,0.5-0.9,0.9-1.2
					c1.4-1,3-1.6,4.7-2C111.5,74.3,112.1,74.1,112.6,74.2z"/>
			</g>
		</g>
	</g>
</g>
</svg>
