<?xml version="1.0" encoding="utf-8"?>
<!-- Generator: Adobe Illustrator 25.2.2, SVG Export Plug-In . SVG Version: 6.00 Build 0)  -->
<svg version="1.2" baseProfile="tiny" id="OBJECTS" xmlns="http://www.w3.org/2000/svg" xmlns:xlink="http://www.w3.org/1999/xlink"
	 x="0px" y="0px" viewBox="0 0 213.4 160.9" overflow="visible" xml:space="preserve">
<g>
	<g>
		<path fill="#F48A74" d="M97.6,15.1c1.7,0.4,3.1,0.6,4.6,0.8c2.7,0.3,5.4,0.7,8.1,0.7c0.5,0,1,0.1,1.5,0.3c0.8,0.3,1.4,1,1.3,1.8
			c-0.1,0.8-0.5,1.4-1.3,1.8c-0.5,0.2-1,0.2-1.5,0.2c-1.6,0-3.3-0.3-4.9-0.5c-2.9-0.4-5.8-0.8-8.6-1.5c-0.8-0.2-1.5-0.5-2.2-0.9
			c-1.5-0.9-1.8-2.3-1-3.9c0.5-0.9,1.3-1.6,2.1-2.2c1.1-0.9,2.4-1.6,3.6-2.2c1.7-0.9,3.3-1.7,4.9-2.7c0.2-0.1,0.5-0.2,0.6-0.5
			c-0.6-0.6-1.4-0.8-2.2-1.2C101.1,4.5,99.5,4,98,3.4c-0.4-0.1-0.8-0.3-1.1-0.5c-0.8-0.5-0.8-1.4,0-1.9c0.4-0.3,0.9-0.2,1.4-0.2
			c1.6,0.1,3.1,0.6,4.6,1c1.3,0.4,2.6,0.8,3.9,1.5c2.9,1.6,3.1,4.3,0.4,6.2c-1.2,0.9-2.5,1.6-3.9,2.3c-1.6,0.8-3.1,1.6-4.6,2.5
			C98.4,14.5,98.1,14.7,97.6,15.1z"/>
		<path fill="#F48A74" d="M104.3,33c-0.8-0.6-1.5-1-2-1.6c-0.3-0.4-0.6-0.7-0.8-1.2c-0.2-0.5-0.1-1.1,0.3-1.4c0.4-0.3,0.9-0.3,1.3,0
			c0.2,0.1,0.3,0.2,0.4,0.3c0.8,0.7,1.6,1.3,2.5,2c1.9,1.4,1.9,2.8-0.2,4.1c-1,0.6-2,1.2-3,1.7c-0.4,0.2-0.9,0.4-1.2,0.9
			c0.4,0.2,0.7,0.3,1,0.4c0.7,0.2,1.4,0.4,2.1,0.6c0.5,0.1,0.9,0.4,1.2,0.8c0.6,0.7,0.3,1.7-0.5,2.1c-0.4,0.2-0.8,0.2-1.2,0.2
			c-1.4-0.3-2.7-0.8-3.7-1.7c-1.4-1.2-1.5-2.8-0.1-4c0.8-0.8,1.8-1.4,2.7-2.1C103.5,33.6,103.9,33.3,104.3,33z"/>
	</g>
	<g>
		<path fill="#F48A74" d="M213.2,83.7c-1.4-6.7-8.7-9.3-13.6-12.9c-9.7-6.9-19.8-12.7-30.4-17.8c-18.9-9.1-36.9-14.2-56.6-4.9
			c-10.1,4.7-20.2,9.5-30.3,14.2c-15.9,7.5-31.6,16.4-46.5,25.9c-7.3,4.7-14.6,9.6-21.4,14.9C9.7,106.8,3.6,111,1,116.7
			c-4,8.6,5.7,13.5,11.5,16.6c8.8,4.8,17.6,10,26.5,14.9c9.5,5.3,19.6,9.8,30.3,11.8c20.3,3.9,37.9-5.3,55.4-14.7
			c2.5,0,7.3-3.9,9.6-5.2c3.7-2,7.4-4,11.1-6c7.4-4,14.8-8,22.2-12c11-5.9,23.5-11.8,33-20.2C205.1,97.9,214.7,91,213.2,83.7z"/>
		<path fill="#D16651" d="M213.2,83.8c-0.1-0.7-0.4-1.4-0.6-2c-6.6,10.4-19.4,16.9-22.9,20.2c-4.2,3.9-86.7,47.5-99.4,50.4
			c-12.6,2.9-20.6,2.9-52.6-15.7C17,124.6,7.3,117,3,113.2c-0.8,1.1-1.5,2.2-2.1,3.4c-4,8.6,5.7,13.5,11.4,16.6
			c8.8,4.8,17.6,10,26.5,15c9.5,5.4,19.6,9.8,30.3,11.8c20.2,3.9,37.9-5.2,55.4-14.6c2.5,0,7.3-3.9,9.6-5.2c3.7-2,7.4-4,11.1-6
			c7.4-4,14.8-8,22.2-11.9c11-5.9,23.5-11.7,33-20.2C205.1,98,214.7,91.2,213.2,83.8z"/>
	</g>
	<g>
		<path fill="#F48A74" d="M179.9,92c9.3-1.6,29.6-19.8,32.9-24.6c-18.3-23-61.1-35.2-61.1-35.2c-21.1,0.4-39.4,24.9-39.4,24.9
			c-0.2,1.3,0.2,2.8,1.1,4.4C125,67.9,171.8,93.5,179.9,92z"/>
		<path fill="#D16651" d="M179.9,92c-8.1,1.4-54.9-24.1-66.6-30.5c8.6,15.3,64.1,40.1,64.1,40.1c27.3-11.8,35.3-34.1,35.3-34.1
			C209.5,72.3,189.2,90.4,179.9,92z"/>
	</g>
	<g>
		<g>
			<path fill="#B57436" d="M139.1,112.8c-0.1,0-0.1,0-0.2-0.1c-0.1-0.1-0.2-0.1-0.3-0.1c-0.1,0-0.3-0.1-0.4-0.1
				c-0.1-0.1-0.3-0.2-0.4-0.1c-0.1,0-0.1,0-0.2-0.1c-0.1-0.1-0.3-0.2-0.5-0.1c-0.1,0-0.3-0.1-0.4-0.1c-0.2-0.2-0.4-0.2-0.7-0.1
				c-0.3,0-0.6-0.1-0.9-0.1c-0.7-0.2-1.4-0.2-2,0c-0.4,0-0.9,0.1-1.3,0.1c-0.5-0.1-1,0-1.5,0.1c-0.5,0-1,0.1-1.5,0.1
				c-0.5-0.3-1-0.3-1.5,0c-0.4,0-0.9,0-1.3-0.1c-0.1-0.1-0.3-0.1-0.5-0.1c-0.2,0-0.4-0.1-0.6-0.1c-0.1-0.1-0.3-0.1-0.5-0.1
				c-0.2-0.1-0.4-0.1-0.7-0.2c-0.1-0.1-0.1-0.1-0.2,0c-0.1,0-0.2-0.1-0.2-0.1c-0.1-0.1-0.1-0.1-0.3-0.1c-0.1-0.1-0.3-0.1-0.4-0.2
				c-0.1,0-0.1-0.1-0.2-0.1c-5.5-2.4-9.5-6.3-11.8-11.9c-0.5-1.3-1-2.6-1.2-4c-0.4-2.1-1.4-3.8-3.4-4.8c-0.1-0.1-0.1-0.2-0.3-0.2
				c-2-1.2-3.6-2.7-4.3-5c0.1-0.2,0-0.4-0.1-0.6c0-0.2-0.1-0.4-0.1-0.6c0.2-0.2,0.1-0.5-0.1-0.7c0-0.4-0.1-0.9-0.1-1.3
				c0.2-0.2,0.2-0.4,0-0.7c-0.1-0.7-0.1-1.5-0.2-2.2c0.2-0.2,0.1-0.3,0-0.4c-0.1-0.8-0.3-1.5-0.8-2c-0.1-0.2-0.3-0.2-0.5-0.2
				c-0.4,0-0.9-0.1-1.3-0.1c-0.2-0.1-0.4-0.1-0.6-0.1c-0.2,0-0.3-0.1-0.5-0.1c-0.1,0-0.1,0-0.2-0.1C95.6,75.8,94.7,75,94,74
				c-1.5-2-2.6-4.1-2.9-6.6c0.2-0.6,0.2-1.2,0-1.7c0-0.3,0.1-0.6,0.1-0.8c0.2-0.2,0.3-0.3,0.1-0.6c1.1-3.5,3.7-5.3,7.2-5.8
				c0.2,0,0.4,0,0.6-0.1c0.5,0.1,1,0.1,1.6,0c1.2,0.1,2.3,0.4,3.4,0.8c0.8,0.3,0.8,0.2,0.9-0.6c0-0.1,0-0.2,0-0.3
				c0.1-0.1,0.2-0.3,0.1-0.5c0.3-1.4,0.8-2.6,1.5-3.9c0.7-1.1,1.5-2,2.6-2.8c0-0.3-0.1-0.4-0.2-0.6c-1.4-2.2-1.4-4.5-0.4-6.9
				c0.1-0.1,0.1-0.3,0.2-0.4c0.2-0.3,0.4-0.6,0.9-0.5c0.4,0.1,0.4,0.5,0.5,0.8c0.1,1,0.1,2.1,0.4,3.1c0.4,1.4,1.3,2.3,2.7,2.8
				c0.3-0.3,0.1-0.5,0-0.7c-0.6-2.1-0.5-4.3,0.1-6.4c0.2-0.6,0.4-1.1,0.8-1.5c0.5-0.5,1-0.7,1.6-0.5c0.5,0.2,0.8,0.8,0.6,1.5
				c-0.3,1.3-0.5,2.7-0.4,4c0.1,1.1,0.3,2.2,1,3.1c0.2,0,0.3-0.2,0.4-0.4c1.1-2.8,3.2-4.5,6-5.4c0.9-0.3,2-0.4,2.8-0.8
				c0.8-0.4,1.3-1.3,2.1-1.9c2.8-2.2,5.8-4.2,9-5.8c2.1-1.1,4.3-1.8,6.6-2.3c0.3,0.1,0.5,0.1,0.7-0.2c0.1,0,0.3,0,0.4-0.1
				c0.3,0.1,0.6,0.1,0.9-0.2c0.3,0,0.6-0.1,0.8-0.1c0.4,0.1,0.8,0.2,1.2-0.1c0.3,0,0.6-0.1,0.8-0.1c0.5,0.1,0.9,0.2,1.4-0.1
				c0.3,0,0.7-0.1,1-0.1c0.7,0.1,1.4,0.2,2-0.1c3.3-0.1,6.5-0.1,9.7,0.3c4.6,0.6,8.6,2.4,12.3,5.1c1.6,1.2,3.3,2.4,4.9,3.5
				c2.4,1.5,3.8,3.8,4.5,6.5c0.1,0.3,0.1,0.6,0.1,0.9c0,0.2,0,0.4,0.2,0.5c0.1,0.3,0.1,0.6,0.2,0.9c-0.2,0.2-0.1,0.3,0,0.4
				c0.1,0.4,0.1,0.9,0.2,1.3c-0.2,0.2-0.2,0.3,0,0.4c0.1,0.7,0.1,1.5,0.2,2.2c-0.2,0.3-0.2,0.6,0,0.9c0.1,2,1.1,3.6,2.7,4.8
				c1,0.8,1.9,1.6,3.2,2.1c0.7,0.3,1.3,0.8,1.9,1.3c2.1,2,2.7,4.7,1.6,7.4c-0.5,1.3-1.3,2.5-2.2,3.6c-0.8,1-1.7,2-2.5,3
				c-0.7,0.8-0.9,1.7-0.5,2.7c0.5,1.1,1.3,1.7,2.5,1.8c0.9,0,1.7-0.1,2.6-0.4c1-0.4,2.1-0.7,3.1-1c0.3,0.3,0.1,0.7,0,1
				c-0.2,0.4-0.4,0.8-0.7,1.1c-1.7,1.7-5,2.4-7.2,1.5c-0.7-0.3-0.7-0.3-1,0.4c-0.3,0.6-0.6,1.3-1.1,1.7c-0.8,0.7-1.5,1.4-2.4,2.1
				c-0.8,0.7-1.8,1.1-2.9,1.3c-0.8,0.2-1.3,0.6-1.6,1.4c-0.3,0.9-0.7,1.7-1.1,2.5c-1,2-2.6,3.4-4.7,4.2c-0.3,0.1-0.5,0.2-0.8,0.3
				c-0.5,0.1-0.6,0.4-0.5,0.9c0.2,1.1,0.2,2.3,1.1,3.1c0.3,0.3,0.1,0.6-0.1,0.9c-0.6,0.6-1.7,0.8-2.5,0.3c-0.3-0.2-0.6-0.4-0.8-0.6
				c-0.3,0.1-0.3,0.4-0.4,0.7c-0.8,2.1-2.4,3.2-4.6,3.5c-0.8,0.1-1.5,0.2-2.3,0.2c-0.5,0-0.8,0.2-0.8,0.7c0,0.2-0.1,0.4-0.1,0.5
				c-0.9,3.8-3.9,6.1-7.8,6.1c-1.1,0-2.2,0.4-3.3,0.6c-1,0.2-2.1,0.5-3.1,0.9c-1.7,0.6-3.4,0.6-5.1,0.1c-1.6-0.5-3.1-1.2-4.6-1.8
				C139.3,112.9,139.2,112.9,139.1,112.8z"/>
			<g>
				<g>
					<path fill="#5C3920" d="M111,64.3c-0.5-0.1-0.7-0.4-0.9-0.8c-0.4-0.5-0.5-1.1-0.6-1.7c-0.2-3.2,1.5-6.5,4.6-7.8
						c0.6-0.2,1.2-0.4,1.8-0.4c0.4,0,0.7,0.1,1,0.3c0.3,0.2,0.4,0.4,0.3,0.7c-0.1,0.3-0.3,0.4-0.5,0.5c-0.1,0-0.3,0-0.4,0.1
						c-1.5,0.2-2.7,0.9-3.5,2.1c-1.4,2-2,4.3-1.7,6.7C111.2,64.2,111.1,64.2,111,64.3z"/>
					<path fill="#5C3920" d="M95,66.3c-0.2-0.9,0-1.5,0.4-2.1c1.4-2.3,3.3-3.1,5.8-2.7c0.9,0.2,1.8,0.4,2.7,0.9c0.4,0.2,0.8,0.5,1,1
						c0.1,0.2,0.1,0.4,0,0.6c-0.2,0.2-0.4,0.2-0.6,0.1c-0.9-0.3-1.8-0.5-2.7-0.7c-1.6-0.4-3,0-4.2,1C96.6,65,95.9,65.6,95,66.3z"/>
					<path fill="#5C3920" d="M113.2,63.5c0.2-2.3,1.2-4.1,3.3-5.2c0.4-0.2,0.9-0.4,1.4-0.2c0.6,0.2,0.7,0.8,0.2,1.2
						c-1.6,1.1-2.1,2.8-2.7,4.5c-0.2,0.6-0.4,1.2,0.1,1.8c0.2,0.2,0,0.4-0.3,0.5c-0.6,0.2-1.1,0-1.5-0.5
						C113.3,65,113.1,64.3,113.2,63.5z"/>
					<path fill="#5C3920" d="M121.2,52.5c-1-2.2-0.1-5.1,1.6-6.1c0.2-0.1,0.5-0.2,0.7-0.2c0.7,0,1.1,0.5,0.7,1.1
						c-0.4,0.7-0.8,1.3-1.2,1.9C122.4,50.1,121.8,51.2,121.2,52.5z"/>
				</g>
				<g>
					<path fill="#5C3920" d="M171.9,89.3c0.2,0.6,0,1-0.2,1.4c-0.2,0.3-0.4,0.6-0.7,0.8c-2.6,2-5.5,3.4-8.8,3.4
						c-0.7,0-1.4-0.2-2-0.4c-0.3-0.1-0.7-0.3-0.9-0.6c-0.2-0.2-0.4-0.4-0.3-0.8c0.2-0.3,0.5-0.2,0.7-0.1c1.5,0.3,2.9,0.1,4.3-0.4
						c1.7-0.5,3.3-1.2,4.9-2C169.8,90.1,170.8,89.7,171.9,89.3z"/>
					<path fill="#5C3920" d="M163.7,100.5c-0.6,0-1.5-0.1-2.2-0.5c-0.3-0.1-0.6-0.3-0.8-0.6c-0.2-0.2-0.3-0.4-0.2-0.7
						c0.1-0.2,0.3-0.3,0.6-0.3c3.7,0.1,6.8-1.5,9.9-3.3c0.3-0.2,0.5-0.6,0.8-0.3c0.4,0.3,0.1,0.7,0,1c-0.2,0.6-0.6,1.2-1,1.7
						C168.8,99.4,166.6,100.5,163.7,100.5z"/>
					<path fill="#5C3920" d="M176.8,85.4c0.7-0.1,1.2-0.6,1.8-1c2-1.4,3.3-3.2,3.9-5.5c0.1-0.4,0.2-0.8,0.4-1.3
						c0.1-0.3,0.2-0.6,0.6-0.6c0.3,0,0.5,0.3,0.6,0.5c0.4,0.9,0.3,1.8,0.1,2.7c-0.6,2.4-2,4.3-4.1,5.6c-0.7,0.4-1.4,0.6-2.2,0.5
						C177.3,86.3,177.3,86.2,176.8,85.4z"/>
					<path fill="#5C3920" d="M188.5,72.3c-0.2-0.2-0.1-0.3-0.1-0.4c0.8-2.4,0.6-4.7,0-7.1c0-0.1,0-0.2-0.1-0.3
						c-0.1-0.4-0.1-0.7,0.2-1c0.4-0.3,0.8-0.2,1.1,0.1c0.5,0.3,0.8,0.8,1,1.3c0.7,1.8,0.7,3.6-0.1,5.4
						C190.2,71.2,189.6,71.9,188.5,72.3z"/>
					<path fill="#5C3920" d="M160,100.3c0.6,1.1,0.6,2.1,0.3,3.1c-0.3,1.2-0.9,2.3-1.7,3.1c-0.8,0.8-1.8,1.3-2.9,1.3
						c-0.3,0-0.5,0-0.8-0.1c-0.4-0.1-0.9-0.3-0.8-0.9c0-0.5,0.5-0.6,0.9-0.7c0.9-0.1,1.6-0.6,2.2-1.3c1-1.1,1.7-2.3,2.3-3.6
						C159.6,101,159.6,100.6,160,100.3z"/>
					<path fill="#5C3920" d="M156.6,99c-0.2,0.7-0.6,1.2-1.1,1.6c-1,0.9-2.1,1.6-3.3,2c-0.6,0.2-1.3,0.3-1.9,0
						c-0.4-0.2-0.7-0.5-0.6-0.9c0-0.4,0.4-0.7,0.7-0.7c2-0.2,3.7-1.3,5.5-2C156,99,156.2,98.8,156.6,99z"/>
				</g>
			</g>
		</g>
		<path fill="#6FA4BD" d="M144.1,103.7c-14.4-12.9-28-17.8-31.1-22.7c-4.8-7.5,7-6,10.5-3.8c7.4,4.7,11.8,6.6,14.7,9.2
			c4.3,1.5,4.6,3,6.5,4.6C149.5,94.4,149.9,105.6,144.1,103.7z"/>
		<g>
			<g>
				<path fill="#F48A74" d="M171.7,91.1c-0.9,0-1.9,0-2.8-0.2c-1.1-0.2-2-0.7-2.8-1.5c-0.3-0.3-0.6-0.5-1-0.5
					c-0.9-0.2-1.4-0.8-1.4-1.8c0-0.6,0.3-1.2,0.7-1.7c0.7-0.9,1.4-1.8,2.2-2.6c1.6-1.7,3.3-3.3,5-4.9c0.3-0.3,0.6-0.5,0.9-0.8
					c0.9-0.7,1.7-1,2.8-0.4c0.7,0.4,1.6,0.6,2.3,1c2.2,1.3,3.4,3.1,3.4,5.7c0,2.1-0.4,4-1.8,5.6c-0.8,0.9-1.9,1.5-3.1,1.8
					C174.6,91,173.2,91.2,171.7,91.1z"/>
				<path fill="#954334" d="M171.5,82.5c1.6,0.1,3.1,0.5,4.5,1.1c0.4,0.2,0.8,0.5,1.1,0.9c0.6,0.8,0.4,1.7-0.5,2.2
					c-0.5,0.3-1,0.4-1.6,0.2c-1.5-0.3-3-0.9-4.4-1.6c-0.2-0.1-0.3-0.2-0.4-0.3c-0.4-0.4-0.7-0.8-0.6-1.4c0.2-0.7,0.7-0.9,1.3-0.9
					C171.1,82.5,171.3,82.5,171.5,82.5z"/>
			</g>
			<g>
				<g>
					<path fill="#FFD0B3" d="M155.7,88.7c-2.7,0.1-5.5-0.2-8.1-0.8c-0.7-0.2-1.2-0.1-1.7,0.5c-1.8,2.1-3.2,3.5-6.2,3
						c-0.5-0.1-1-0.2-1.4-0.5c-2.1-1.4-1-3.5,0.3-4.9c0.7-0.8,0.7-1-0.2-1.5c-1.8-1.1-3.6-2.1-5.3-3.5c-1.3-1.1-2.5-2.4-3.7-3.6
						c-0.7-0.8-1.4-1.6-2-2.5c-2.8-3.7-4.4-8-5.1-12.6c-0.4-2.7-0.1-5.4,0.6-8c1-3.7,2.9-7,5.3-10c2.2-2.7,4.9-4.8,8-6.6
						c2.9-1.7,6.1-2.9,9.4-3.6c0.9-0.2,1.8-0.4,2.7-0.4c0.7,0.1,1.4-0.2,2.2-0.2c4.1,0.1,8.1,0.5,12,1.9c2.4,0.9,4.9,1.5,7.1,2.7
						c1.6,0.8,3.1,1.8,4.1,3.3c0.1,0.1,0.2,0.2,0.3,0.3c1.1,0.7,1.8,1.7,2.5,2.7c2,2.8,3.7,5.7,5.3,8.7c1.5,2.9,2.6,5.9,3,9.2
						c0.3,3-0.1,6-1.2,8.9c-1.5,3.8-3.9,7-6.9,9.7c-3,2.6-6.3,4.6-10,5.9c-2.2,0.7-4.5,1.2-6.8,1.5
						C158.5,88.7,157.1,88.7,155.7,88.7z"/>
					<path fill="#F4B49B" d="M170.6,43.2c-3.6-2.9-7.5-4.9-12-5.8c-2.4-0.5-4.8-0.7-7.3-0.6c-1.5,0-3.1,0.2-4.6,0.4
						c-2.1,0.3-4.2,0.6-6.2,1.2c-2.2,0.7-4.2,1.6-6.2,2.7c-0.8,0.5-1.6,0.9-2.7,0.9c-0.7,0-1.5-0.1-1.8-0.8
						c-0.4-0.8-0.1-1.6,0.4-2.3c0.6-0.7,1.3-1.3,2.1-1.8c3.3-2.1,6.9-3.4,10.8-4c3.1-0.5,6.3-0.9,9.5-0.8c4.9,0.2,9.7,1,14.1,3.5
						c2.7,1.5,5.1,3.3,7.3,5.6c0.6,0.7,1.1,1.4,1.1,2.4c0,0.5-0.1,0.9-0.6,1.2c-1.3,1-2.7,1.9-4.2,2.8c-1.9,1.1-3.7,2.5-5,4.3
						c-0.8,1.1-1.4,2.4-1.6,3.8c-0.1,0.6,0,1.2,0.2,1.8c0.3,0.7,1,1.1,1.9,1c1-0.2,1.9-0.5,2.8-0.9c1.1-0.4,2.3-0.5,3.4-0.4
						c0.7,0.1,1,0.5,0.9,1.2c-0.1,0.4-0.1,0.8-0.3,1c-0.9,1.1-0.7,2.5-1.1,3.7c-0.4,1.3-0.3,2.6-0.1,3.9c0.1,0.3,0,0.7,0.1,1
						c0.2,1.5,1,2.5,2.3,3.2c0.7,0.4,1.4,0.7,2.1,1.2c1,0.6,1,1.2,0.3,2c-0.6,0.7-1.4,1.1-2.3,1.1c-0.6,0-0.8,0.3-0.9,0.9
						c-0.3,3.2-1.6,6-3.5,8.6c-1,1.4-2.4,1.7-4,1.5c-0.5-0.1-0.7-0.3-0.5-1c0.3-1.3,0.8-2.5,1.6-3.6c1.8-2.3,2.3-5.1,2.9-7.8
						c0.1-0.3-0.1-0.6-0.3-0.8c-2.4-2.8-2.5-6-2.2-9.4c0-0.1,0.1-0.2,0.1-0.3c0.1-0.7,0-0.8-0.7-0.8c-0.6,0-1.2,0.1-1.8,0.1
						c-2.9-0.3-5-2.5-5.4-5.4c-0.5-3.2,0.6-5.9,2.5-8.4c2.1-2.9,5-4.7,8.2-6C170.1,43.5,170.3,43.4,170.6,43.2z"/>
				</g>
				<g>
					<g>
						<path fill="#F4B49B" d="M162.5,67c0,1-0.7,1.9-1.4,2.1c-0.8,0.2-1.8-0.3-2.3-1.1c-0.6-1-0.4-2.4,0.5-3.1
							c0.5-0.4,1.5-0.5,2-0.1C162.1,65.5,162.2,66.4,162.5,67z"/>
						<path fill="#5C3920" d="M152.7,71.1c0.2-0.8,0.8-1.3,1.5-1.7c0.3-0.2,0.6-0.4,0.6-0.8c0.1-0.9,0.1-0.9-0.7-1.1
							c-0.3-0.1-0.6-0.1-0.8-0.3c-0.6-0.3-0.6-0.8,0-1.1c0.5-0.3,1-0.3,1.6-0.3c0.2,0,0.4,0,0.5,0c0.2-0.3-0.1-0.4-0.3-0.5
							c-0.6-0.4-1.3-0.8-1.9-1.3c-0.1-0.1-0.3-0.2-0.3-0.4c0.1-0.3,0.3-0.2,0.5-0.2c0.5,0,1,0.2,1.5,0.4c0.4,0.2,0.8,0.4,1.2,0.6
							c0.4-0.3,0.5-0.9,0.8-1.3c0.2-0.2,0.3-0.4,0.6-0.4c0.3,0,0.5,0.3,0.6,0.6c0.1,0.5,0.1,0.9,0,1.4c-0.2,0.9-0.5,1.8-0.8,2.6
							c-0.6,2.1-0.2,2.7,2,2.8c1.7,0.1,3.4,0.1,5,0.2c0.3,0,0.6-0.1,0.9,0.1c0,0.5-0.3,0.8-0.7,1c-0.5,0.4-1,0.6-1.6,0.7
							c-1.8,0.4-3.7,0.4-5.5,0c-0.8-0.2-1.5-0.5-1.9-1.2c-0.3-0.4-0.5-0.3-0.9-0.1C154,71.2,153.4,71.4,152.7,71.1z"/>
					</g>
					<g>
						<path fill="#F4B49B" d="M139.4,45.3c1.1,0,1.9,0.9,1.9,2.1c0,1.1-1,2.1-2,2c-1,0-2.1-1.2-2.1-2.2
							C137.2,46.1,138.1,45.3,139.4,45.3z"/>
						<path fill="#5C3920" d="M141.7,51.1c-0.6,0.8-1.3,1-2.1,1.1c-1.2,0.2-2.5,0.2-3.7-0.3c-0.4-0.2-0.7-0.2-1.1,0
							c-0.5,0.2-1.1,0.4-1.4,0c-0.4-0.5,0.1-0.9,0.4-1.4c0.4-0.6,0.4-0.6-0.4-0.7c-0.5,0-0.9-0.1-1.3-0.4c-0.4-0.3-0.3-0.5,0-0.8
							c0.3-0.2,0.7-0.3,1-0.4c0.3-0.1,0.8,0.1,0.8-0.3c0-0.6-0.5-0.3-0.8-0.4c-0.4-0.1-0.8-0.2-1.1-0.3c-0.3-0.1-0.6-0.3-0.6-0.7
							c0-0.5,0.4-0.6,0.8-0.6c0.5,0,1,0.1,1.5,0.2c0.6,0.2,0.9,0.1,1.2-0.4c0.3-0.5,0.7-1,1.2-1.3c0.3-0.2,0.5-0.3,0.8-0.1
							c0.2,0.2,0.2,0.4,0.1,0.7c-0.2,0.5-0.3,1-0.5,1.4c-0.1,0.3-0.2,0.7-0.3,1.1c-0.3,1.6,0.1,2.3,1.6,2.7
							C139,50.7,140.3,51,141.7,51.1z"/>
						<path fill="#5C3920" d="M150.1,41.2c0,0.4-0.2,0.5-0.5,0.4c-0.1,0-0.2-0.1-0.3-0.2c-1.2-1.2-2.8-1.6-4.4-1.8
							c-0.9-0.1-1.8-0.3-2.7-0.4c-0.4,0-0.5-0.3-0.4-0.6c0.1-0.5,0.5-0.7,0.9-0.9c2.3-1,6.3,0.7,7.2,3.1
							C150.1,40.9,150.1,41,150.1,41.2z"/>
					</g>
					<g>
						<path fill="#F48A74" d="M158.6,74.4c2.4,0.1,4.4,0.9,6.2,2.4c1.7,1.5,2.1,4,0.9,5.7c-0.4,0.5-0.8,0.9-1.4,1.2
							c-3,1.5-7,1.4-9.7-0.8c-1.5-1.2-1.9-2.9-1.6-4.7c0.3-1.8,1.6-2.9,3.3-3.4C157,74.5,157.8,74.4,158.6,74.4z"/>
						<path fill="#F48A74" d="M130,62.4c-2.6-0.1-4.6-1.1-6.1-2.9c-1.6-2.1-1.1-3.6,0.8-5.3c1.5-1.4,3.3-1.5,5.1-0.7
							c2.2,1,3.5,2.7,3.8,5.2C133.8,60.6,131.9,62.6,130,62.4z"/>
					</g>
					<g>
						<g>
							<path fill="#F4B49B" d="M141,62.8c-0.6-0.1-1.2-0.1-1.8-0.3c-1.3-0.4-1.9-1.6-1.1-3c0.7-1.2,1.5-1.5,2.8-1.2
								c0.4,0.1,0.7,0.1,1.1,0c0.9-0.3,1.8-0.3,2.6-1c0.5-0.5,1.6,0.1,1.7,0.9c0.1,0.5,0,1-0.2,1.5c-0.6,1.2-1.6,2-2.9,2.5
								C142.5,62.5,141.8,62.7,141,62.8z"/>
							<path fill="#954334" d="M141.6,58.9c-0.2,0-0.4,0-0.7,0c-1.1-0.1-1.1-0.1-1.3,1c-0.1,0.4-0.1,0.7-0.2,1.1
								c-0.1,0.5-0.4,0.6-0.8,0.4c-0.5-0.2-0.8-0.7-0.8-1.2c-0.2-1.3,0.1-2.5,0.6-3.6c0.2-0.5,0.8-0.7,1.2-0.2
								c1.2,1.5,2.8,1.2,4.4,1c0.4-0.1,0.8-0.4,1.1,0.2c0.2,0.6-0.3,0.8-0.7,0.9C143.4,58.7,142.5,58.9,141.6,58.9z"/>
						</g>
						<g>
							<path fill="#F48A74" d="M146.3,73.5c0,0.3,0,0.5,0,0.8c0.1,0.7-0.2,1.1-0.7,1.6c-1.2,1.4-2.8,1.8-4.5,1.8c-0.6,0-1.2,0-1.7,0
								c-3.4-0.3-5.9-3.9-4.9-7.1c0.2-0.5,0.5-1,0.5-1.7c0-0.4,0.3-0.7,0.7-0.9c0.9-0.4,1.9-0.8,2.9-0.9c1.2-0.2,2.1,0.4,2.4,1.6
								c0.1,0.5,0.1,0.9,0.3,1.4c0.2,0.7,0.4,0.8,1,0.5c0.5-0.2,1-0.4,1.6-0.5c1.4-0.1,2.3,0.6,2.5,2
								C146.3,72.6,146.3,73.1,146.3,73.5C146.3,73.5,146.3,73.5,146.3,73.5z"/>
							<path fill="#954334" d="M145.2,76.5c-0.1,0-0.3,0-0.5-0.1c-3.7-1.5-6.9-3.6-9-7.2c-0.2-0.3-0.3-0.6-0.4-0.9
								c-0.1-0.3,0-0.6,0.3-0.8c0.3-0.2,0.6-0.1,0.9,0.2c0.2,0.3,0.4,0.5,0.5,0.8c1.6,2.8,3.9,4.6,6.9,5.6c0.8,0.3,1.6,0.6,2.5,0.8
								c0.6,0.1,0.7,0.4,0.3,0.9C146.3,76.3,145.8,76.6,145.2,76.5z"/>
						</g>
					</g>
				</g>
			</g>
			<g>
				<path fill="#B57436" d="M173.9,43.5c-2.2-1.8-3.8-4-6.1-5.5c-1-0.7-2.1-1.1-3.3-1.4c-1.7-0.4-3.4-1-5.2-1.4
					c-4.1-1.1-8.1-1.2-12.3-0.4c-1.4,0.3-2.7,0.5-4,1.1c-0.4,0.2-0.8,0.3-1.1,0.4c-2.3,0.4-4.3,1.5-6.1,2.8c-1.1,0.7-2.1,1.4-3.3,2
					c-0.4,0.2-0.8,0.5-1.2,0.8c-1,0.9-2.3,0.7-3.2-0.3c-0.8-1-1.1-2.2-0.8-3.4c0.5-2.3,1.7-4.2,3.9-5.2c0.4-0.2,0.8-0.3,0.7-0.9
					c-0.3-3,3.1-6.8,6.7-7.3c0.9-0.1,1.7-0.2,2.6,0c0.8,0.3,0.9,0.5,0.6,1.3c-0.1,0.1-0.1,0.3-0.1,0.4c0,0.9,0.1,1.8,0.1,2.6
					c0,0.5,0.2,1,0.6,1.4c0.8,0.7,1.5,0.7,2.1-0.2c0.4-0.6,0.7-1.2,1.1-1.8c0.4-0.7,0.7-1.4,1.1-2.1c2-3.4,5-4.9,8.8-4.8
					c2.8,0.1,5.5,1,7.8,2.6c2.2,1.6,3.5,3.8,4.1,6.4c0.1,0.4,0.2,0.8,0.3,1.2c0,0,0,0.1,0.1,0.1c1-0.2,2.1-0.7,3.1-0.8
					c3.6-0.4,6.9,0.1,9.6,2.8c0.4,0.4,0.9,0.9,1.4,1.3c2,1.6,3.3,3.8,4.1,6.2c0.2,0.5,0.3,0.9,0.7,1.1c0.6,0.4,0.9,1,1.2,1.7
					c0.7,1.7,1.6,3.4,2.4,5c0.8,1.7,1.2,3.6,1.2,5.5c0,2.1-0.2,4.2-0.6,6.2c-0.6,3.2-2.1,6-3.8,8.7c-1.3,2.2-3,4.2-4.9,6
					c-1.2,1.2-2.5,2.3-3.4,3.7c-0.4,0.6-1,1.1-1.6,1.5c-2.6,2-5.3,3.8-7.9,5.7c-0.2,0.1-0.4,0.2-0.6,0.3c-0.7,0.2-1.3,0.1-1.7-0.4
					c-0.4-0.5-0.4-1.1-0.1-1.6c0.6-0.9,1.2-1.8,2-2.5c0.4-0.3,0.6-0.7,0.6-1.2c0.1-0.5,0.2-1,0.4-1.5c0.8-1.5,1.2-3.1,1.9-4.7
					c0.5-1,0.3-1.9-0.4-2.7c-0.7-0.8-1.3-1.8-1.5-2.9c-0.4-1.7-0.4-3.3-0.1-5c0.1-0.6,0.4-1.2,0.2-1.7c-0.3-0.5-1.1-0.3-1.6-0.4
					c-3.8-0.8-7.1-4.7-5.3-9.4c1.4-3.7,4.1-6.3,7.7-7.8C171.9,44.5,172.9,44.2,173.9,43.5z"/>
				<g>
					<g>
						<path fill="#5C3920" d="M157.5,25.1c0.6,0,1.2,0.1,1.7,0.3c2.7,0.9,5.3,4.4,5.3,7.2c0,0.4,0,0.7-0.1,1.1
							c-0.1,0.3-0.3,0.6-0.7,0.6c-0.3,0-0.5-0.3-0.6-0.6c-0.2-0.4-0.3-0.9-0.5-1.3c-0.8-1.8-2.2-3-4-3.7c-0.8-0.3-1.7-0.2-2.4,0.2
							c-0.9,0.5-1.8,1-2.6,1.5c-0.7,0.4-1.3,0.8-2,1.2c-0.4,0.2-0.8,0.4-1.2,0.4c-1,0-1.6-0.8-1.4-1.8c0.1-0.4,0.4-0.8,0.7-1.1
							c1.7-1.8,3.8-3,6.1-3.8C156.4,25.1,156.9,25.1,157.5,25.1z"/>
						<path fill="#5C3920" d="M138.2,35.9c-2.1-0.1-3.6-0.9-4.7-2.7c-0.4-0.7-0.5-1.4-0.4-2.1c0.1-0.4,0.2-0.7,0.6-0.8
							c0.4-0.1,0.6,0.2,0.8,0.6c0.8,1.7,2.3,2.5,4.1,2.8c0.6,0.1,1.2,0.2,1.8,0.2c0.6,0.1,0.7,0.3,0.4,0.8c-0.4,0.6-1,0.9-1.7,1.1
							C138.8,35.8,138.5,35.8,138.2,35.9z"/>
						<path fill="#5C3920" d="M132.9,39.1c-0.5,0-1.1-0.1-1.7-0.4c-0.7-0.4-1.2-0.9-1.1-1.7c0-0.6,0.3-0.8,0.9-0.7
							c1.5,0.5,3.1,0.5,4.7,0.7c0.2,0,0.6-0.1,0.6,0.3c0.1,0.3-0.2,0.5-0.4,0.6C135.2,38.7,134.1,39.1,132.9,39.1z"/>
					</g>
					<g>
						<path fill="#5C3920" d="M170.8,59.8c-1,0.3-1.6,0.2-2.3-0.7c-0.7-1-1.1-2.1-1.2-3.3c-0.2-1.5,0.2-2.8,0.9-4.1
							c0.5-0.8,1.1-1.6,1.9-2.3c1.3-1.2,2.7-2.2,4.1-3c0.6-0.4,1.3-0.6,2-0.8c0.4-0.1,0.8-0.3,1,0.1c0.2,0.4-0.3,0.5-0.5,0.7
							c-0.3,0.2-0.6,0.4-0.9,0.6c-1.3,0.9-2.5,2-3.6,3.1c-2.4,2.4-3,5.3-2,8.6C170.4,59.1,170.6,59.5,170.8,59.8z"/>
						<path fill="#5C3920" d="M179.5,38.2c0,2.7-1.3,4.5-3.5,5.3c-0.1,0-0.1,0.1-0.2,0.1c-0.9,0.3-1.6,0.1-1.9-0.4
							c-0.3-0.5-0.1-1.1,0.6-1.7c0.3-0.3,0.7-0.7,1-1c1-0.7,1.2-1.8,1.2-2.9c0-0.6-0.1-1.2-0.1-1.9c0-0.8,0.2-1.2,0.7-1.3
							c0.6-0.1,1,0.2,1.4,0.7C179.3,36.2,179.5,37.3,179.5,38.2z"/>
						<path fill="#5C3920" d="M180.6,75.5c-0.4,0.5-1,0.5-1.5,0.4c-0.7-0.1-1.2-0.4-1.8-0.8c-3.2-2.2-4.8-6.5-3.5-10.2
							c0.1-0.4,0.3-0.8,0.6-1.2c0.2-0.2,0.4-0.3,0.7-0.2c0.3,0.1,0.3,0.4,0.3,0.6c-0.1,1.2-0.1,2.3,0,3.5
							C175.8,71.1,177.5,73.8,180.6,75.5z"/>
						<path fill="#5C3920" d="M184.6,62.8c-0.8,0.7-1.5,0.6-2.2,0.2c-1.4-0.7-2.1-2-2.3-3.5c-0.2-1.4,0.1-2.8,0.7-4
							c0.7-1.5,1.7-2.9,3-4c0.2-0.1,0.3-0.3,0.5-0.4c0.3-0.2,0.6-0.4,0.9-0.1c0.3,0.3,0,0.5-0.2,0.8c-0.8,1.2-1.6,2.4-2.2,3.8
							c-0.3,0.7-0.5,1.5-0.6,2.3c-0.2,1.9,0.6,3.4,1.9,4.7C184.3,62.7,184.4,62.8,184.6,62.8z"/>
						<path fill="#5C3920" d="M177.1,60.6c-1.3,0.1-2-0.4-2.4-1.2c-0.6-1.1-0.7-2.4-0.4-3.6c0.4-1.7,1.3-3.2,2.4-4.5
							c1.2-1.6,2.7-2.9,4-4.4c0,0,0.1-0.1,0.1-0.1c0.3-0.3,0.7-0.7,1.1-0.3c0.5,0.4-0.1,0.8-0.3,1.1c-0.7,0.8-1.4,1.6-2,2.4
							c-1.1,1.3-2,2.6-2.8,4c-0.7,1.4-0.9,2.8-0.8,4.3C176.1,59.2,176.3,59.9,177.1,60.6z"/>
						<path fill="#5C3920" d="M185.4,72.2c-0.8,0.6-1.5,0.6-2.3,0.4c-2.4-0.7-4.1-3.7-3.5-6.1c0-0.2,0.1-0.4,0.2-0.6
							c0.1-0.3,0.3-0.5,0.7-0.5c0.3,0,0.6,0.2,0.7,0.5c0.1,0.3,0.2,0.6,0.3,0.9c0.4,2.4,1.7,4.1,3.8,5.2
							C185.2,72.1,185.3,72.1,185.4,72.2z"/>
						<path fill="#5C3920" d="M173.3,83.1c0.5-0.6,1-1.2,1.5-1.8c0.5-0.6,0.9-1.3,1.3-2c0.1-0.3,0.3-0.5,0.7-0.5
							c0.4,0,0.5,0.3,0.6,0.7c0.1,0.4,0.1,0.8-0.1,1.2c-0.5,1.4-1.5,2.3-2.9,2.7C174,83.4,173.7,83.5,173.3,83.1z"/>
					</g>
				</g>
			</g>
		</g>
		<g>
			<g>
				<path fill="#FDF7D9" d="M150.7,109.5c-0.9-3.5-2.7-6.6-5.1-9.3c-1.8-2-3.8-3.9-6-5.6c-3-2.4-6.1-4.6-9.2-6.8
					c-2.5-1.7-5.1-3.3-7.7-4.9c-3.5-2.2-7-4.4-10.6-6.5c-2.8-1.7-5.6-3.3-8.7-4.6c-3.3-1.4-6.7-2.4-10.2-3.1
					c-1.2-0.2-2.3-0.1-3.5-0.4c-0.3-0.1-0.8-0.1-1.1,0c-1.1,0.3-2.2,0.1-3.2,0.4c-1.5,0.4-3.1,0.6-4.6,0.9c-0.2,0-0.4,0.1-0.5,0.4
					c-0.3-0.1-0.6-0.1-0.9-0.1c-1.8,0.4-3.6,0.9-5.4,1.4c-9.4,2.7-18.6,6.1-27.4,10.3c-7.8,3.7-15.1,8.2-22,13.5
					c-1.8,1.4-3.3,3-5,4.4c-2.6,2.4-4.8,5.1-6.8,8c-0.3,0.5-0.6,0.9-0.7,1.5c-0.2,0.1-0.3,0.3-0.3,0.4c-0.6,1.6-1.1,3.1-1.5,4.8
					c-0.4,1.8,0.1,3.4,1.1,4.9c0.6,0.9,1.2,1.7,1.8,2.6c1.5,2,3,4.1,4.7,6c1.4,1.7,2.9,3.3,4.7,4.6c2.9,2.1,5.9,3.8,9.1,5.4
					c2.2,1.1,4.4,2.2,6.6,3.2c3.8,1.9,7.7,3.7,11.6,5.5c3.8,1.7,7.5,3.3,11.3,5c4,1.7,8.1,2.5,12.4,2.8c2.5,0.2,5.1,0.1,7.6-0.4
					c3.3-0.7,6.4-1.7,9.2-3.7c1-0.7,2.1-1.4,3.3-1.9c3.2-1.5,6.4-3,9.6-4.5c3.1-1.5,6.2-2.8,9.3-4.4c6-3,12-5.9,18.1-8.7
					c1.9-0.8,3.7-1.8,5.5-2.8c2.5-1.4,5-2.8,7.4-4.5c1.7-1.3,3.4-2.7,4.8-4.3c0.9-1,1.7-2.1,2.1-3.4
					C151.2,113.7,151.3,111.6,150.7,109.5z"/>
				<path fill="#F48A74" d="M12.2,109.1c0.1-0.6,0.4-1,0.7-1.5c1.9-2.9,4.1-5.7,6.8-8c1.7-1.5,3.2-3.1,5-4.4
					c6.9-5.3,14.2-9.8,22-13.5c8.8-4.2,18-7.7,27.4-10.3c1.8-0.5,3.6-1,5.4-1.4c0.3-0.1,0.6,0,0.9,0.1c1.7,0.2,3.3,0.8,4.8,1.4
					c4.4,1.6,8.8,3.5,13.1,5.4c1.6,0.7,3.3,1.3,4.7,2.3c8.5,5.4,17,10.9,25,17c4.5,3.4,8.8,6.9,13.1,10.4c1,0.8,1.6,1.7,1.8,3.1
					c0.3,1.8-0.1,3.2-1.3,4.5c-0.7,0.7-1.4,1.3-2.2,1.8c-4.2,2.6-8.4,5.2-13,7c-1.5,0.6-3,1.1-4.4,2c-3.3,2-6.7,3.6-10.3,4.7
					c-2.3,0.7-4.5,1.5-6.6,2.5c-3.6,1.6-7.3,3.2-11,4.5c-4,1.5-8,2.6-12,4c-1.7,0.6-3.3,1.2-5,1.7c-2.6,0.7-5.2,0.5-7.8,0.5
					c-0.2,0-0.4-0.1-0.6-0.2c-5.3-1.6-10.4-3.8-15.5-6c-4-1.7-8-3.6-12-5.4c-5.9-2.7-11.5-5.8-16.7-9.8c-2.9-2.3-5.6-4.8-8-7.6
					C15.1,112.1,13.7,110.5,12.2,109.1z"/>
			</g>
			<g>
				<path fill="#D16651" d="M76.9,87.1c0.4,0.7,0.9,1.1,1.3,1.5c0.4,0.4,0.8,0.8,1.2,1.2c0.8,0.8,0.9,1.7,0.5,2.5
					c-0.4,0.8-1.4,1.3-2.4,1.2c-0.7-0.1-1.4-0.4-2-0.8c-0.3-0.2-0.6-0.4-0.9-0.7c-0.3,0.4-0.2,0.9-0.3,1.3c-0.1,0.7-0.3,1.4-0.7,2.1
					c-1.1,1.6-3,1.6-4,0c-0.7-1.1-0.9-2.5-1-3.8c0-0.8,0-1.5,0-2.3c-0.4-0.2-0.6,0.1-0.8,0.3c-0.9,0.5-1.7,1.1-2.6,1.6
					c-0.6,0.4-1.3,0.7-2,0.8c-1.1,0.2-2.2-0.2-2.7-1C59.8,90,59.9,89,60.6,88c0.4-0.5,0.8-0.9,1.3-1.3c1.1-0.9,2.4-1.6,3.7-2.1
					c0.3-0.1,0.6-0.2,0.9-0.4c-0.2-0.4-0.6-0.4-0.9-0.6c-1-0.5-1.9-1.1-2.6-1.9c-0.3-0.3-0.6-0.7-0.8-1.2c-0.6-1.5,0.3-2.9,1.9-3
					c1.2-0.1,2.4,0.2,3.5,0.8c1.4,0.7,2.7,1.6,3.8,2.7c0.3,0,0.3-0.3,0.4-0.5c0.7-1.9,1.8-3.7,3-5.3c0.5-0.7,1.2-1.3,2-1.7
					c1.1-0.6,2.2-0.5,3,0.2c0.8,0.7,1,1.8,0.5,2.9c-0.7,1.6-1.8,2.9-2.9,4.2c-0.3,0.4-0.7,0.7-1.1,1.4c1.3-0.2,2.4-0.2,3.6-0.3
					c1.5-0.1,3.1,0,4.6,0.4c0.5,0.1,0.9,0.3,1.3,0.5c1.4,0.9,1.4,2.7-0.1,3.6c-0.8,0.5-1.8,0.7-2.7,0.7c-1.6,0.1-3.2,0-4.8,0
					C77.8,87.1,77.5,87.1,76.9,87.1z"/>
				<path fill="#D16651" d="M95.3,95.5c-0.9-0.5-1.8-0.9-2.7-1.4C92,93.8,91.4,93.5,91,93c-0.7-0.8-0.9-1.8-0.5-2.6
					c0.4-0.8,1.3-1.2,2.4-1c0.9,0.2,1.7,0.6,2.4,1c0.9,0.5,1.7,1.1,2.7,1.7c0.1-1.4,0.2-2.7,0.3-3.9c0.1-0.8,0.2-1.5,0.4-2.3
					c0.2-0.9,0.8-1.5,1.7-1.6c0.8-0.1,1.6,0.4,2.1,1.3c0.4,0.8,0.6,1.7,0.7,2.5c0,0.4,0.1,0.9,0.2,1.3c0.5-0.2,0.8-0.6,1.2-0.9
					c0.7-0.6,1.4-1.2,2.2-1.6c1-0.5,2-0.4,2.7,0.2c0.7,0.6,0.9,1.6,0.5,2.6c-0.3,0.8-0.8,1.4-1.3,2c-0.8,0.9-1.8,1.6-2.8,2.3
					c-0.3,0.2-0.7,0.4-0.9,0.7c0.1,0.4,0.5,0.4,0.7,0.4c1.2,0.4,2.3,1,3.3,1.7c0.4,0.3,0.7,0.5,1,0.8c0.6,0.6,0.8,1.4,0.5,2.2
					c-0.3,0.8-0.9,1.3-1.8,1.5c-1.4,0.2-2.6-0.2-3.8-0.8c-0.3-0.2-0.6-0.4-1-0.5c-0.3,0.2-0.1,0.5-0.1,0.7c0.1,1.1,0.2,2.3,0.2,3.4
					c0,0.7-0.1,1.4-0.3,2c-0.4,1-1.1,1.6-2.1,1.7c-1,0-1.7-0.5-2.2-1.4c-0.7-1.4-0.9-2.9-1-4.4c0-0.4,0-0.8-0.1-1.1
					c-0.4-0.2-0.5,0-0.8,0.1c-0.9,0.5-1.8,1-2.7,1.4c-0.8,0.4-1.6,0.6-2.4,0.5c-1.8-0.1-2.8-1.8-2.1-3.5c0.4-0.8,0.9-1.4,1.6-1.9
					c0.7-0.6,1.5-1.1,2.4-1.6C94.6,96,95,95.9,95.3,95.5z"/>
				<path fill="#D16651" d="M66.9,113.1c-1.3,0.5-2.5,1.1-3.8,1.4c-0.7,0.2-1.4,0.4-2.1,0.4c-1.2,0-2-0.5-2.4-1.4
					c-0.3-0.9,0-1.9,0.8-2.6c0.7-0.6,1.4-1,2.2-1.4c1.2-0.7,2.5-1.2,3.8-1.7c0-0.5-0.4-0.6-0.6-0.7c-1.1-0.9-2.2-1.8-3.1-3
					c-0.3-0.4-0.6-0.8-0.8-1.3c-0.3-0.9-0.2-1.7,0.4-2.4c0.6-0.7,1.4-0.9,2.3-0.7c0.7,0.2,1.4,0.5,2,0.9c1.2,0.7,2.2,1.7,3,2.8
					c0.2,0.3,0.4,0.6,0.7,0.8c0.3-0.1,0.3-0.4,0.4-0.6c0.5-1.8,1.1-3.5,2.2-5c0.5-0.7,1.1-1.4,1.8-1.9c0.9-0.6,1.8-0.6,2.6-0.1
					c0.7,0.5,1,1.4,0.6,2.4c-0.2,0.7-0.5,1.3-0.8,1.9c-0.5,1-1,2-1.5,3c0.4,0.3,0.7,0,1,0c1.4-0.3,2.7-0.6,4.1-0.4
					c0.3,0.1,0.6,0.1,0.9,0.3c1.2,0.7,1.3,2.2,0.2,3c-0.6,0.4-1.2,0.5-1.8,0.7c-1.4,0.4-2.9,0.7-4.3,1.1c-0.3,0.1-0.6,0.1-0.8,0.3
					c0.1,0.3,0.4,0.4,0.6,0.6c1.1,0.7,2,1.6,2.8,2.6c0.7,1.1,0.8,2.1,0.2,3c-0.6,0.9-1.7,1.2-3,0.8c-0.9-0.2-1.5-0.8-2.2-1.3
					c-0.4,0.2-0.2,0.5-0.3,0.7c-0.1,1-0.3,1.9-0.7,2.9c-0.2,0.6-0.5,1.1-1,1.6c-1.3,1.2-3.2,0.7-3.6-1.1c-0.1-0.5-0.1-1-0.1-1.5
					c0.1-1.3,0.4-2.5,0.6-3.8c0.1-0.1,0.1-0.2,0-0.3C67,113,67,113.1,66.9,113.1z"/>
				<path fill="#D16651" d="M97.8,115.5c0.4-0.2,0.5-0.6,0.7-0.9c1-1.6,2.1-3.1,3.6-4.3c0.6-0.5,1.2-0.9,2-1c1.7-0.3,2.9,1,2.5,2.6
					c-0.2,0.6-0.5,1.1-0.8,1.6c-1.2,1.7-2.6,3.2-4.1,4.7c-0.3,0.3-0.6,0.4-0.7,0.8c0.1,0.3,0.4,0.3,0.6,0.4c1.1,0.4,2.2,0.9,3.2,1.5
					c0.3,0.1,0.5,0.3,0.7,0.5c0.8,0.6,1.2,1.4,1,2.4c-0.2,1-0.9,1.7-1.9,1.9c-2.2,0.5-4.2,0.3-5.8-1.5c0-0.1-0.1-0.1-0.2-0.1
					c0,0-0.1,0-0.2,0c-0.1,0.4-0.2,0.9-0.3,1.3c-0.3,1.6-0.9,3.2-1.8,4.5c-0.4,0.5-0.7,1-1.3,1.3c-1.5,1-3.3,0.1-3.5-1.7
					c-0.1-0.8,0.1-1.5,0.3-2.3c0.4-1.5,0.9-2.9,1.4-4.4c0.1-0.3,0.3-0.5,0.2-0.8c-0.2-0.3-0.5-0.2-0.7-0.1c-1.4,0.1-2.8,0.3-4.3,0.3
					c-0.6,0-1.2-0.1-1.8-0.3c-0.9-0.3-1.6-0.9-1.7-1.9c-0.1-0.9,0.4-1.8,1.4-2.3c1.5-0.7,3.1-1,4.8-1c0.4,0,0.9,0,1.3,0
					c0.1-0.4-0.2-0.6-0.3-0.8c-0.9-1.5-1.6-3-1.7-4.8c0-0.1,0-0.1,0-0.2c-0.1-1.4,0.5-2.3,1.5-2.6c1-0.3,1.9,0.1,2.7,1.2
					c1.1,1.6,2,3.2,2.8,5C97.5,114.8,97.7,115.1,97.8,115.5z"/>
				<path fill="#D16651" d="M42.6,101.9c-0.5,0-0.8,0.3-1.1,0.5c-1.2,0.8-2.3,1.5-3.6,2.1c-0.5,0.3-1.1,0.5-1.7,0.6
					c-0.9,0.1-1.8-0.1-2.3-0.9c-0.5-0.8-0.4-1.6,0.1-2.4c0.4-0.6,0.9-1.1,1.4-1.6c1.2-1,2.4-2,3.7-2.9c0.4-0.2,0.7-0.5,1.1-0.7
					c-0.1-0.4-0.5-0.4-0.8-0.6c-0.8-0.4-1.5-0.7-2.2-1.2c-0.7-0.5-1.1-1.2-0.9-2.1c0.2-0.8,0.9-1.3,1.9-1.4c1.5-0.1,2.9,0.4,4.2,1.1
					c1.2,0.6,1.2,0.6,1.6-0.7c0.5-1.5,1-3,1.8-4.5c0.3-0.6,0.7-1.2,1.2-1.7c0.5-0.4,1-0.7,1.7-0.4c0.7,0.3,1,0.8,1,1.5
					c0.1,0.9-0.2,1.7-0.4,2.6c-0.2,0.8-0.6,1.6-0.5,2.5c0.5,0,0.9-0.3,1.3-0.4c1-0.4,2-0.8,3-1c1-0.2,1.8,0.1,2.2,0.8
					c0.4,0.7,0.1,1.5-0.7,2.2c-0.7,0.6-1.5,1.1-2.4,1.6c-1.2,0.7-2.5,1.3-3.9,1.9c1.3,0.7,2.4,1.5,3.5,2.3c0.3,0.2,0.6,0.4,0.9,0.7
					c1.1,1.1,0.8,2.8-0.7,3.4c-0.8,0.3-1.6,0.1-2.4-0.1c-0.8-0.2-1.5-0.6-2.2-1.1c-0.4,0.5-0.3,1-0.3,1.4c-0.1,1.2-0.3,2.4-0.8,3.5
					c-0.2,0.4-0.4,0.8-0.8,1.2c-1.2,1.1-2.9,0.6-3.3-1c-0.2-0.8-0.2-1.6-0.1-2.4C42.5,103.7,42.6,102.8,42.6,101.9z"/>
				<path fill="#D16651" d="M52.8,119.2c0.2,0.5,0.6,0.7,0.9,0.9c1.1,1,2.1,2,2.9,3.3c0.7,1.2,0.6,2.4-0.3,3.1
					c-0.8,0.7-2.1,0.5-3-0.5c-0.4-0.4-0.8-0.9-1.1-1.3c-0.4-0.4-0.7-0.9-1.2-1.2c-0.3,0.2-0.2,0.5-0.2,0.7c0,1,0,2,0,3.1
					c0,0.5-0.1,1-0.2,1.5c-0.3,0.8-1,1.3-1.8,1.3c-0.8-0.1-1.4-0.5-1.6-1.4c-0.1-0.4-0.1-0.8-0.1-1.2c0-1,0-2,0-3
					c0-0.4,0.1-0.7-0.1-1.1c-0.3-0.1-0.5,0.1-0.7,0.3c-0.8,0.7-1.7,1.3-2.5,2c-0.5,0.4-1,0.7-1.5,0.8c-0.9,0.3-1.8,0-2.3-0.6
					c-0.5-0.7-0.5-1.5-0.1-2.3c0.2-0.4,0.5-0.8,0.9-1.1c0.8-0.9,1.7-1.6,2.6-2.3c0.2-0.2,0.5-0.3,0.6-0.7c-1-0.5-2.1-1.1-3-1.7
					c-0.6-0.4-1.2-0.8-1.6-1.3c-0.6-0.7-0.9-1.5-0.4-2.4c0.5-0.9,1.3-1.1,2.2-1.1c1.9,0.2,3.6,0.8,5.3,1.8c1.3,0.7,1.3,0.7,1.7-0.7
					c0.3-1.1,0.6-2.3,1.2-3.3c0.2-0.4,0.5-0.8,0.7-1.2c0.5-0.6,1.2-1,2-0.8c0.8,0.2,1.3,0.7,1.6,1.5c0.3,1,0.3,2.1,0.1,3.1
					c-0.1,0.5-0.2,1.1-0.3,1.6c0.5,0.2,0.9,0,1.4,0c0.6,0,1.2,0,1.9,0.1c0.6,0.1,1,0.5,1.2,1.2c0.1,0.7-0.1,1.2-0.7,1.6
					c-0.4,0.3-0.9,0.4-1.3,0.5C54.8,118.6,53.9,118.9,52.8,119.2z"/>
				<path fill="#D16651" d="M125.8,110.4c0.4,0.3,0.9,0.7,1.4,1c0.7,0.6,1.2,1.2,1.5,2.1c0.3,1.1-0.2,1.8-1.4,1.8
					c-0.7,0-1.4-0.2-2-0.6c-0.3-0.2-0.7-0.4-1-0.7c-0.2,0.5-0.1,0.9-0.1,1.4c0,0.7,0,1.3-0.1,2c-0.2,0.9-0.8,1.5-1.5,1.5
					c-0.7,0.1-1.4-0.4-1.7-1.3c-0.3-0.7-0.3-1.4-0.4-2.1c0-0.2,0-0.4-0.1-0.7c-0.4,0.1-0.6,0.4-1,0.7c-0.6,0.4-1.1,0.8-1.8,1.1
					c-0.7,0.3-1.2,0.2-1.6-0.3c-0.4-0.5-0.4-1.1-0.1-1.6c0.2-0.5,0.6-0.9,1-1.3c0.9-0.9,1.9-1.8,2.9-2.6c0.2-0.2,0.5-0.2,0.6-0.6
					c-0.6-0.1-1.1-0.2-1.7-0.4c-1.1-0.3-2.1-0.7-2.9-1.5c-0.3-0.2-0.4-0.5-0.3-0.9c0.2-0.4,0.5-0.5,0.9-0.4c0.9,0.2,1.8,0.6,2.7,1
					c0.6,0.3,1.1,0.5,1.9,0.9c-0.3-1.1-0.3-2-0.4-3c-0.1-1.2,0-2.3,0.3-3.5c0.1-0.4,0.2-0.7,0.4-1c0.2-0.5,0.6-0.8,1.1-0.7
					c0.6,0,0.9,0.4,1.1,0.9c0.2,0.5,0.2,1.1,0.2,1.6c0,1.5-0.2,3.1-0.3,4.6c0.4,0.1,0.6-0.2,0.8-0.3c1.1-0.8,2.1-1.6,3.3-2.1
					c0.5-0.2,1-0.4,1.5-0.3c0.9,0.1,1.3,0.8,0.8,1.6c-0.2,0.3-0.4,0.6-0.7,0.8c-0.9,0.8-1.7,1.6-2.6,2.3
					C126.1,110,125.8,110.1,125.8,110.4z"/>
				<path fill="#D16651" d="M24.8,110c0.6,0.4,1.2,0.7,1.7,1c0.6,0.4,1.1,0.9,1.4,1.5c0.4,0.8,0.2,1.5-0.6,1.9
					c-0.7,0.3-1.4,0.2-2.1-0.1c-0.4-0.1-0.7-0.5-1.1-0.5c-0.1,0.4-0.2,0.8-0.3,1.1c-0.3,0.7-0.8,1.1-1.4,1c-0.7,0-1-0.4-1.3-1
					c-0.3-0.7-0.2-1.5-0.3-2.3c-0.5-0.1-0.8,0.2-1.2,0.2c-0.6,0.1-1.1,0-1.4-0.5c-0.3-0.5-0.2-1.1,0.1-1.5c0.3-0.5,0.8-0.8,1.3-1.2
					c0.5-0.3,0.9-0.6,1.4-0.9c-0.2-0.4-0.6-0.6-0.8-0.9c-0.5-0.5-0.8-1.1-1-1.8c-0.1-0.5-0.1-0.9,0.3-1.2c0.4-0.3,0.8-0.2,1.2,0.1
					c0.3,0.2,0.5,0.4,0.7,0.6c0.2,0.2,0.3,0.5,0.7,0.6c0.1-1,0.3-1.9,0.4-2.9c0.1-0.5,0.2-1.1,0.3-1.6c0.2-0.8,0.6-1.2,1.1-1.2
					c0.5,0,1,0.4,1.2,1.3c0.2,0.8,0.2,1.7,0.2,2.5c0,0.3-0.1,0.5-0.1,0.8c0.5-0.1,0.7-0.4,1-0.6c0.5-0.2,1-0.4,1.4,0
					c0.5,0.4,0.3,0.9,0.1,1.4c-0.6,1.3-1.5,2.4-2.4,3.5C25.1,109.7,25,109.8,24.8,110z"/>
				<path fill="#D16651" d="M73.2,131c-0.5-0.1-0.7,0.3-1,0.4c-0.5,0.3-1.1,0.6-1.7,0.8c-0.5,0.1-1,0-1.4-0.4c-0.4-0.5-0.3-1,0-1.4
					c0.4-0.7,1-1.1,1.5-1.5c0.4-0.3,0.7-0.5,1.1-0.8c-0.3-0.4-0.7-0.5-1-0.7c-0.4-0.3-0.8-0.7-1-1.2c-0.4-1,0.2-1.8,1.2-1.7
					c0.6,0,1.1,0.3,1.6,0.6c0.4,0.2,0.9,0.5,1.4,0.8c0.1-0.8,0.2-1.4,0.5-2.1c0.3-0.8,0.7-1.5,1.2-2c0.4-0.4,1-0.7,1.6-0.4
					c0.6,0.3,0.8,0.8,0.8,1.4c0,0.4-0.2,0.8-0.2,1.2c-0.1,0.2-0.2,0.5-0.1,0.8c0.5,0,0.8-0.4,1.3-0.5c0.5-0.2,0.9-0.2,1.3,0.3
					c0.4,0.5,0.2,0.9-0.1,1.3c-0.3,0.4-0.7,0.7-1.1,1.1c-0.4,0.3-0.8,0.6-1.2,1c0.2,0.4,0.6,0.6,0.8,0.9c0.7,0.6,1.2,1.3,1.6,2
					c0.4,0.7,0.2,1.1-0.6,1.2c-0.7,0.1-1.5,0-2.1-0.2c-0.3-0.1-0.6-0.4-0.9-0.4c-0.3,0.2-0.2,0.5-0.3,0.8c-0.1,0.2-0.1,0.4-0.2,0.6
					c-0.3,1-0.9,1.4-1.6,1.4c-0.7-0.1-1.2-0.7-1.3-1.7C73.3,131.9,73.2,131.5,73.2,131z"/>
			</g>
		</g>
		<g>
			<g>
				<path fill="#FFD0B3" d="M106.6,79.1c-1.8,0.2-3.4-0.6-4.8-1.5c-1.5-1-3.2-1.7-4.9-2.4c-0.7-0.3-1.3-0.6-1.9-1
					c-1.5-1-1.7-2.6-0.6-4c1.2-1.5,2.8-2.5,4.7-3c2.4-0.6,4.7-0.7,7,0.3c2.8,1.2,5,3,5.9,6c0.3,0.9,0.3,1.7-0.2,2.5
					C110.7,78.1,109,79.3,106.6,79.1z"/>
				<g>
					<path fill="#F48A74" d="M103.6,69.4c0,0.3-0.2,0.4-0.5,0.4c-0.6,0.1-1.1,0.3-1.6,0.4c-1.7,0.5-3.1,1.4-4.2,2.8
						c-0.3,0.4-0.6,0.7-1,1c-0.3,0.3-0.7,0.5-1.1,0.2c-0.5-0.4-0.2-0.8,0-1.2c0-0.1,0.1-0.2,0.2-0.3c1.7-1.9,3.5-3.5,6.1-4
						c0.5-0.1,1-0.2,1.5,0C103.4,68.9,103.6,69.1,103.6,69.4z"/>
					<path fill="#F48A74" d="M107.1,72.6c0.1,0,0.2,0,0.3,0c0.4,0.1,0.8,0.1,0.8,0.6c0.1,0.5-0.3,0.6-0.7,0.8
						c-0.8,0.3-1.5,0.7-2.2,1.1c-0.8,0.5-1.5,1.1-2,1.9c-0.2,0.3-0.5,0.6-0.9,0.8c-0.3,0.1-0.6,0.2-0.8,0c-0.2-0.2-0.3-0.5-0.3-0.8
						c0.1-0.4,0.3-0.8,0.5-1.1c1.2-1.5,2.7-2.6,4.5-3.2C106.7,72.6,106.9,72.6,107.1,72.6z"/>
					<path fill="#F48A74" d="M104.4,70.4c0.4,0,0.8,0.1,0.8,0.5c0.1,0.4-0.2,0.6-0.5,0.7c-0.3,0.1-0.7,0.2-1,0.3
						c-1.5,0.6-2.8,1.5-3.8,2.8c-0.2,0.2-0.4,0.5-0.6,0.7c-0.2,0.2-0.4,0.2-0.6,0.1c-0.3-0.1-0.4-0.4-0.3-0.6
						c0.1-0.3,0.2-0.6,0.4-0.9c1.3-1.8,3.1-3,5.3-3.6C104.2,70.5,104.3,70.5,104.4,70.4z"/>
				</g>
			</g>
			<g>
				<path fill="#FFD0B3" d="M135.1,95.8c-1.8,0.2-3.4-0.6-4.8-1.5c-1.5-1-3.2-1.7-4.9-2.4c-0.7-0.3-1.3-0.6-1.9-1
					c-1.5-1-1.7-2.6-0.6-4c1.2-1.5,2.8-2.5,4.7-3c2.4-0.6,4.7-0.7,7,0.3c2.8,1.2,5,3,5.9,6c0.3,0.9,0.3,1.7-0.2,2.5
					C139.2,94.8,137.5,96,135.1,95.8z"/>
				<g>
					<path fill="#F48A74" d="M131.1,86.8c0.4,0,0.8,0.1,1.2,0.2c0.2,0.1,0.5,0.2,0.4,0.6c0,0.3-0.3,0.4-0.5,0.4
						c-0.5,0.1-0.9,0.2-1.4,0.3c-1.7,0.4-3.1,1-4.1,2.5c-0.1,0.1-0.2,0.3-0.4,0.4c-0.3,0.3-0.7,0.3-1,0.1c-0.3-0.2-0.4-0.5-0.3-0.9
						c0.2-0.6,0.5-1.2,1-1.7c1-0.9,2.2-1.4,3.5-1.7C130.1,86.9,130.6,86.9,131.1,86.8z"/>
					<path fill="#F48A74" d="M133.4,88.9c0.3,0,0.7,0,1,0.2c0.3,0.2,0.6,0.5,0.5,0.9c-0.1,0.4-0.5,0.5-0.8,0.5c-0.5,0-1.1,0-1.6,0.1
						c-1.1,0.3-2.1,0.7-3,1.5c-0.1,0.1-0.3,0.2-0.4,0.4c-0.3,0.2-0.7,0.3-1,0c-0.3-0.3-0.3-0.7-0.1-1c0.3-0.6,0.8-1.1,1.5-1.4
						C130.3,89.4,132.2,88.9,133.4,88.9z"/>
					<path fill="#F48A74" d="M134.8,90.9c0.2,0,0.3,0,0.3,0c0.5,0,1,0,1.2,0.6c0.1,0.6-0.4,0.7-0.8,0.9c-1.3,0.5-2.6,1-3.7,1.8
						c-0.3,0.2-0.7,0.4-1,0c-0.3-0.3-0.2-0.7,0-1c0.2-0.4,0.4-0.7,0.8-0.9C132.5,91.4,133.7,91.1,134.8,90.9z"/>
				</g>
			</g>
		</g>
	</g>
</g>
</svg>
