<?xml version="1.0" standalone="no"?>
<!DOCTYPE svg PUBLIC "-//W3C//DTD SVG 20010904//EN"
 "http://www.w3.org/TR/2001/REC-SVG-20010904/DTD/svg10.dtd">
<svg version="1.0" xmlns="http://www.w3.org/2000/svg"
 width="700.000000pt" height="700.000000pt" viewBox="0 0 700.000000 700.000000"
 preserveAspectRatio="xMidYMid meet">
<metadata>
Created by potrace 1.11, written by Peter Selinger 2001-2013
</metadata>
<g transform="translate(0.000000,700.000000) scale(0.100000,-0.100000)"
fill="#000000" stroke="none">
<path d="M1840 6993 c-67 -7 -234 -45 -303 -70 -242 -87 -433 -273 -521 -507
-34 -92 -41 -115 -51 -177 -3 -19 -9 -59 -14 -89 -5 -30 -10 -246 -10 -480 -1
-233 -4 -427 -7 -430 -3 -3 -99 -5 -212 -5 -177 0 -207 -2 -208 -15 0 -18 -14
-146 -19 -180 -2 -14 -6 -52 -9 -85 -4 -33 -8 -80 -11 -105 -3 -25 -7 -63 -9
-85 -3 -22 -8 -71 -12 -110 -5 -38 -8 -85 -9 -104 l0 -35 245 0 245 -1 3
-1402 c2 -1327 3 -1403 20 -1403 24 -1 757 -1 812 0 l45 0 0 1396 c0 768 2
1399 5 1403 3 4 176 7 385 7 l380 0 3 359 2 360 -377 0 c-208 -1 -383 2 -388
6 -17 12 -12 659 5 729 59 244 238 331 582 280 36 -5 73 -13 82 -16 13 -5 16
1 17 27 0 19 2 41 4 50 3 15 8 62 21 189 3 30 7 66 9 80 2 14 7 57 11 95 3 39
8 77 9 86 2 9 7 53 11 98 6 71 5 81 -10 82 -9 1 -19 2 -23 3 -5 1 -28 6 -53
11 -25 5 -47 9 -50 10 -3 1 -32 5 -65 9 -33 4 -73 9 -90 12 -38 6 -398 11
-445 7z"/>
<path d="M4967 5294 c-1 -1 -49 -4 -107 -7 -137 -8 -170 -13 -300 -42 -186
-43 -442 -174 -585 -299 -44 -38 -47 -37 -64 30 -14 58 -69 242 -74 251 -4 7
-664 10 -699 4 -5 0 -8 -1178 -8 -2616 l0 -2615 438 0 438 0 0 955 c-1 525 2
955 6 955 4 0 38 -20 76 -45 160 -103 352 -175 547 -204 188 -28 456 -31 595
-6 14 3 41 7 60 10 281 46 565 197 770 412 132 136 201 236 290 418 141 289
208 599 207 970 0 291 -39 534 -124 775 -35 101 -110 260 -163 345 -66 109
-134 192 -241 297 -209 205 -484 343 -774 388 -60 10 -283 28 -288 24z m38
-737 c11 -2 40 -10 65 -17 122 -32 262 -128 351 -240 100 -127 182 -316 214
-495 2 -16 7 -41 10 -55 9 -45 18 -193 18 -295 0 -559 -227 -961 -603 -1068
-140 -41 -371 -36 -509 10 -69 22 -181 75 -181 84 0 5 -6 9 -14 9 -22 0 -147
127 -193 195 -106 158 -170 361 -191 600 -12 143 -6 365 12 461 2 11 7 40 10
65 7 51 47 192 72 254 67 165 192 320 317 394 64 38 199 86 267 96 25 4 47 9
49 11 6 6 282 -2 306 -9z"/>
</g>
</svg>
